<svg width="573" height="389" viewBox="0 0 573 389" fill="none" xmlns="http://www.w3.org/2000/svg">
<path d="M112.188 353.217C150.809 353.217 182.117 348.661 182.117 343.04C182.117 337.419 150.809 332.862 112.188 332.862C73.5674 332.862 42.2592 337.419 42.2592 343.04C42.2592 348.661 73.5674 353.217 112.188 353.217Z" fill="#EAE6DA"/>
<path d="M145.767 307.157C147.123 299.032 148.439 290.024 149.519 280.961C142.819 282.721 129.147 286.662 122.213 286.935C122.213 292.651 122.505 298.684 122.936 304.487C130.317 307.049 137.99 307.307 145.767 307.157Z" fill="#6D3D37"/>
<path d="M122.935 304.487C123.43 311.167 124.111 317.541 124.747 322.773C131.274 321.698 137.575 320.183 143.771 318.356C144.43 314.899 145.103 311.137 145.767 307.158C137.99 307.307 130.317 307.049 122.935 304.487Z" fill="#895147"/>
<path d="M126.538 335.778C121.996 349.852 137.629 345.515 137.629 345.515C137.629 345.515 164.402 347.852 164.402 343.567C164.402 339.283 140.88 331.883 140.88 331.883C141.751 328.379 142.744 323.742 143.772 318.356C137.576 320.184 131.274 321.699 124.748 322.773C125.692 330.531 126.538 335.778 126.538 335.778Z" fill="#895147"/>
<path d="M125.422 342.348C125.491 343.294 125.608 344.29 125.796 345.336C125.796 345.336 131.231 347.229 146.025 347.229C162.555 347.229 164.673 345.084 164.673 345.084C164.673 345.084 164.781 344.271 164.436 343.078C146.898 346.497 132.862 344.243 125.422 342.348Z" fill="#404042"/>
<path d="M138.762 345.583C138.762 345.583 141.393 336.506 145.056 333.098L148.881 334.616C148.881 334.616 144.58 340.703 144.199 345.762L138.762 345.583Z" fill="#404042"/>
<path d="M147.917 345.583C147.917 345.583 149.062 339.452 152.725 336.043L156.243 337.536C156.243 337.536 153.734 340.703 153.353 345.763L147.917 345.583Z" fill="#404042"/>
<path d="M79.8861 304.411C81.0313 311.493 82.2209 318.001 83.3317 323.415C89.1779 324.649 95.1638 325.121 101.101 324.832C101.861 318.815 102.735 310.912 103.299 302.661C95.9156 305.195 87.74 306.667 79.8861 304.411Z" fill="#895147"/>
<path d="M83.3318 323.414C83.9995 326.67 84.6397 329.53 85.2242 331.882C85.2242 331.882 61.7021 339.282 61.7021 343.566C61.7021 347.851 88.475 345.514 88.475 345.514C88.475 345.514 104.108 349.851 99.566 335.777C99.566 335.777 100.265 331.442 101.1 324.831C95.1638 325.121 89.1779 324.649 83.3318 323.414Z" fill="#895147"/>
<path d="M103.299 302.66C103.657 297.426 103.891 292.053 103.891 286.935C96.9578 286.663 83.2852 282.721 76.585 280.961C77.5445 289.014 78.6913 297.024 79.8862 304.41C87.7401 306.667 95.9157 305.195 103.299 302.66Z" fill="#6D3D37"/>
<path d="M100.682 342.348C100.613 343.294 100.496 344.29 100.309 345.336C100.309 345.336 94.8735 347.229 80.0795 347.229C63.5495 347.229 61.4302 345.084 61.4302 345.084C61.4302 345.084 61.3225 344.271 61.6678 343.078C79.2062 346.497 93.2432 344.243 100.682 342.348Z" fill="#404042"/>
<path d="M87.342 345.583C87.342 345.583 84.7116 336.506 81.0489 333.098L77.2244 334.616C77.2244 334.616 81.5249 340.703 81.9062 345.762L87.342 345.583Z" fill="#404042"/>
<path d="M78.1878 345.583C78.1878 345.583 77.0418 339.452 73.3791 336.043L69.8617 337.536C69.8617 337.536 72.3699 340.703 72.7511 345.763L78.1878 345.583Z" fill="#404042"/>
<path d="M157.785 186.475L157.577 186.069C161.257 184.118 162.549 179.626 162.197 176.04C161.803 172.018 159.766 168.316 157.968 165.049C156.03 161.527 154.037 157.904 153.552 153.924C153.122 150.395 153.921 146.862 154.694 143.446C155.062 141.819 155.443 140.136 155.685 138.478C156.944 129.85 154.536 120.938 149.076 114.028C148.004 112.672 146.78 111.329 145.596 110.029C142.005 106.089 138.291 102.014 138.022 96.798L138.471 96.7739C138.731 101.824 142.388 105.837 145.926 109.718C147.115 111.024 148.345 112.374 149.426 113.742C154.964 120.751 157.407 129.791 156.13 138.546C155.885 140.222 155.502 141.914 155.132 143.55C154.368 146.928 153.577 150.421 153.998 153.869C154.472 157.761 156.444 161.342 158.35 164.807C160.18 168.131 162.242 171.878 162.645 175.995C163.012 179.735 161.651 184.426 157.785 186.475Z" fill="#3A2924"/>
<path d="M158.263 165.344C154.714 159.565 152.229 152.616 152.184 148.45C152.1 140.734 160.024 131.302 149.519 116.898C141.943 106.51 141.678 95.6536 141.678 95.6536L68.3413 97.4087C68.3413 97.4087 65.9538 108.777 61.2705 114.638C56.5872 120.499 49.0037 124.809 52.8061 137.575C55.9263 148.05 48.5621 158.086 44.5503 163.781C40.5982 169.393 42.2347 175.346 46.8057 189.163C46.8057 189.163 50.0787 191.176 52.729 192.588L53.8268 186.712C54.8368 187.14 55.652 193.92 56.8591 194.285C58.054 194.646 59.3414 194.96 60.7151 195.199C58.9082 190.545 58.5048 185.761 60.4087 181.917C67.4703 166.21 72.363 150.526 67.1136 133.525C63.3577 120.773 73.3745 110.72 84.2004 108.477C99.3574 105.477 111.746 113.877 124.827 119.426C129.182 120.802 134.983 122.164 137.2 126.405C141.625 134.175 133.77 143.495 137.479 151.984C139.711 157.645 145.552 162.559 147.791 168.932C150.365 175.302 150.513 182.038 148.954 188.66L149.182 189.102C149.182 189.102 156.068 190.767 161.564 185.308C162.821 184.056 164.485 175.471 158.263 165.344Z" fill="#3A2924"/>
<path d="M147.79 168.931C145.55 162.558 139.71 157.645 137.478 151.983C133.769 143.494 141.623 134.175 137.198 126.404C134.982 122.163 129.181 120.802 124.825 119.425C111.745 113.876 99.3559 105.477 84.1989 108.476C73.373 110.72 63.3562 120.772 67.112 133.524C72.3607 150.525 67.4688 166.209 60.4072 181.916C58.5025 185.76 58.9067 190.545 60.7135 195.198C62.9574 195.588 65.4266 195.776 68.0953 195.626L70.0191 182.879L73.4548 195.605C73.4548 195.605 80.9404 199.664 107.635 194.011C134.329 188.358 138.967 192.597 141.044 188.188C143.12 183.779 138.155 167.727 138.155 167.727L148.951 188.66C150.51 182.038 150.364 175.302 147.79 168.931Z" fill="#281B18"/>
<path d="M46.9226 188.139C41.7412 180.824 40.5692 171.134 43.8643 162.848C44.7353 160.658 45.9134 158.543 47.0532 156.497C48.9296 153.129 50.8694 149.647 51.4027 145.835C51.8443 142.677 51.3072 139.372 50.7877 136.176C50.084 131.845 49.3552 127.365 51.1101 123.287C52.551 119.937 55.416 117.494 58.187 115.132C59.7441 113.805 61.3546 112.433 62.6992 110.912C66.4077 106.718 68.2986 100.927 67.7576 95.4202L68.2046 95.375C68.7585 101.009 66.8248 106.931 63.0331 111.219C61.6678 112.763 60.0451 114.147 58.4758 115.485C55.6192 117.92 52.9208 120.22 51.5219 123.472C49.8205 127.425 50.5058 131.64 51.2316 136.102C51.7564 139.331 52.2996 142.672 51.8481 145.9C51.3026 149.797 49.3414 153.318 47.4436 156.723C46.3114 158.756 45.1402 160.858 44.2815 163.019C41.0436 171.16 42.195 180.683 47.287 187.871L46.9226 188.139Z" fill="#3A2924"/>
<path d="M101.097 73.6369C102.646 71.3146 103.036 68.1419 102.167 64.9319C100.531 58.8876 94.6986 54.2577 88.3069 53.9224C82.2369 53.605 75.9607 57.1317 72.6885 62.6975L73.0789 62.9355C76.2663 57.5129 82.3768 54.0772 88.2832 54.3861C94.4869 54.7097 100.142 59.1972 101.727 65.0556C102.561 68.1341 102.193 71.1676 100.72 73.3763L101.097 73.6369Z" fill="#3A2924"/>
<path d="M101.571 76.6229C101.571 76.6229 107.122 69.2506 97.6789 60.0826C88.2359 50.9147 72.2469 56.0121 66.6429 68.8413C62.431 78.4823 67.0142 93.7288 83.5602 89.6225C100.105 85.517 101.571 76.6229 101.571 76.6229Z" fill="#3A2924"/>
<path d="M70.6609 170.425C66.9493 178.635 64.2547 186.311 64.6726 195.44L79.3857 202.856C80.1948 203.267 147.897 201.297 143.204 202.187C135.865 203.579 136.819 194.138 135.865 186.68C143.231 193.78 161.194 202.504 162.478 193.301C163.957 182.702 157.711 176.378 151.729 166.96C125.625 175.262 97.1296 174.612 70.6609 170.425Z" fill="#895147"/>
<path d="M77.8899 154.676C76.9395 156.077 75.9501 157.594 74.9576 159.205C98.5011 165.58 123.731 164.444 147.303 157.9C146.411 155.853 145.488 154.093 144.557 152.567C122.554 159.162 99.6876 162.488 77.8899 154.676Z" fill="#C69524"/>
<path d="M135.883 143.911C133.732 142.872 132.295 142.896 132.295 142.896C118.363 139.518 102.514 141.516 102.514 141.516C102.514 141.516 95.4848 142.533 90.2972 143.589C88.433 143.969 86.6934 144.749 85.1624 145.842C101.82 151.409 119.684 150.106 135.883 143.911Z" fill="#F1D3B6"/>
<path d="M135.883 143.911C119.683 150.106 101.819 151.408 85.163 145.843C84.0568 146.633 83.0567 147.581 82.211 148.683C81.7434 149.292 81.2246 149.988 80.6837 150.723C101.086 157.424 121.674 154.786 141.662 148.553C139.533 146.082 137.505 144.695 135.883 143.911Z" fill="#C69524"/>
<path d="M80.6837 150.724C79.8173 151.902 78.8792 153.216 77.8898 154.676C99.6875 162.488 122.554 159.162 144.556 152.567C143.59 150.983 142.617 149.661 141.662 148.553C121.674 154.786 101.086 157.424 80.6837 150.724Z" fill="#F1D3B6"/>
<path d="M147.302 157.901C123.731 164.445 98.5002 165.58 74.9568 159.206C73.8299 161.034 72.6984 162.98 71.6135 165.015C97.3542 170.902 124.528 169.106 150.2 162.918C149.198 161.53 148.226 160.05 147.453 158.238C147.403 158.121 147.353 158.015 147.302 157.901Z" fill="#F1D3B6"/>
<path d="M150.2 162.917C124.529 169.105 97.355 170.901 71.6136 165.015C70.8244 166.495 70.0588 168.018 69.3391 169.577C69.1917 169.897 69.3491 170.282 69.6761 170.4C95.1654 179.544 126.66 175.269 152.44 167.166C152.766 167.064 152.904 166.665 152.711 166.379C151.918 165.2 151.048 164.09 150.2 162.917Z" fill="#C69524"/>
<path d="M91.3278 143.065C91.3278 143.065 89.835 171.44 87.3474 179.547C84.8598 187.654 79.3857 202.855 79.3857 202.855C70.7434 290.377 70.5417 290.349 69.932 307.741C69.932 307.741 87.3474 322.942 111.728 313.315L113.221 245.755L115.211 246.262L118.694 313.315C118.694 313.315 138.763 321.421 155.183 308.754C142.245 185.494 137.209 177.137 137.209 178.826C137.209 177.306 129.595 141.268 129.595 141.268L122.563 140.928L126.155 160.468C126.155 160.468 105.923 167.216 96.4695 161.812C96.0608 161.577 95.8064 142.05 95.8064 142.05L91.3278 143.065Z" fill="#DE9D71"/>
<path d="M102.224 142.251C102.224 142.251 98.2657 144.206 97.2984 145.768C96.3312 147.329 101.981 149.592 111.432 148.245C120.519 146.95 122.08 144.3 122.342 143.234C122.606 142.168 116.412 140.007 102.224 142.251Z" fill="#404042"/>
<path d="M100.157 141.265L100.312 146.278C105.218 146.149 112.439 146.044 119.196 143.514L118.875 136.38C113.015 139.583 106.609 141.444 100.157 141.265Z" fill="#895147"/>
<path d="M99.9327 134.038L100.157 141.265C106.609 141.444 113.015 139.583 118.875 136.38L118.681 132.044L99.9327 134.038Z" fill="#6D3D37"/>
<path d="M86.3672 121.713L83.8957 109.924C83.8957 109.924 73.7436 105.347 72.4754 116.186C71.2079 127.024 82.3921 128.353 86.3672 121.713Z" fill="#895147"/>
<path d="M89.8808 131.863C89.0114 135.064 86.028 137.31 82.6481 137.076C78.7853 136.808 75.8668 133.402 76.1296 129.469C76.3175 126.655 78.0816 124.334 80.4844 123.338" stroke="#E4BB5B" stroke-width="1.0065" stroke-miterlimit="10" stroke-linecap="round"/>
<path d="M135.936 119.036C138.105 121.515 138.34 125.286 136.313 128.05C133.996 131.21 129.603 131.859 126.501 129.5C124.282 127.813 123.324 125.044 123.805 122.449" stroke="#E4BB5B" stroke-width="1.0065" stroke-miterlimit="10" stroke-linecap="round"/>
<path d="M132.394 84.8961C132.394 84.8961 136.772 95.6053 137.231 111.422C137.59 123.763 128.265 136.133 113.498 137.557C99.618 138.895 85.005 133.629 80.094 113.897C75.183 94.1652 80.8641 78.1649 98.4346 73.2176C116.005 68.2718 128.425 72.6839 132.394 84.8961Z" fill="#895147"/>
<path d="M105.334 122.593C104.866 124.655 101.412 125.602 97.6209 124.708C93.8299 123.814 91.1361 121.419 91.6044 119.357C92.0727 117.295 95.5268 116.348 99.3177 117.242C103.109 118.136 105.803 120.532 105.334 122.593Z" fill="#6D3D37"/>
<path d="M135.481 120.188C135.86 122.268 133.066 124.541 129.239 125.264C125.413 125.987 122.003 124.887 121.624 122.806C121.245 120.725 124.04 118.452 127.866 117.729C131.692 117.007 135.102 118.107 135.481 120.188Z" fill="#6D3D37"/>
<path d="M95.0615 105.473C95.0615 105.473 92.7916 103.709 97.1143 100.958C101.437 98.207 103.057 98.6162 103.876 99.7645C104.622 100.812 103.713 102.537 101.254 104.033C98.3031 105.827 96.2976 106.493 95.0615 105.473Z" fill="#3A2924"/>
<path d="M133.416 108.081C133.416 108.081 135.64 106.49 131.392 103.294C127.144 100.097 125.556 100.367 124.755 101.464C124.025 102.464 124.921 104.305 127.336 106.052C130.235 108.148 132.204 109.008 133.416 108.081Z" fill="#3A2924"/>
<path d="M105.269 113.068C105.222 114.554 104.214 115.726 103.017 115.688C101.821 115.649 100.888 114.413 100.934 112.928C100.981 111.443 101.989 110.27 103.185 110.309C104.382 110.348 105.315 111.583 105.269 113.068Z" fill="black"/>
<path d="M128.138 113.414C128.091 114.899 127.084 116.071 125.887 116.033C124.691 115.994 123.758 114.759 123.805 113.274C123.851 111.788 124.859 110.615 126.055 110.654C127.252 110.693 128.185 111.929 128.138 113.414Z" fill="black"/>
<path d="M82.6755 122.091C82.6457 122.088 82.6159 122.081 82.5884 122.065C82.4845 122.008 82.4456 121.875 82.5013 121.769C82.5281 121.718 85.1608 116.648 81.7412 113.968C80.5394 113.026 79.3185 112.641 78.1083 112.821C76.0211 113.134 74.649 115.048 74.6344 115.067C74.5649 115.165 74.432 115.188 74.3357 115.118C74.2394 115.048 74.2173 114.911 74.2861 114.813C74.3456 114.729 75.7728 112.731 78.0419 112.389C79.3712 112.191 80.7037 112.604 82.0025 113.621C85.7124 116.53 82.907 121.923 82.8788 121.977C82.8375 122.054 82.7565 122.096 82.6755 122.091Z" fill="#683935"/>
<path d="M77.6874 117.462C77.6224 117.457 77.5598 117.423 77.5216 117.362C77.4574 117.261 77.4864 117.126 77.5857 117.06C77.6232 117.035 81.3928 114.615 83.8758 117.517C83.9537 117.608 83.9445 117.746 83.8551 117.825C83.7657 117.904 83.6305 117.895 83.5526 117.804C81.3118 115.185 77.8524 117.405 77.818 117.427C77.7783 117.454 77.7324 117.465 77.6874 117.462Z" fill="#683935"/>
<path d="M117.288 117.525C117.207 117.528 117.127 117.483 117.089 117.403C117.037 117.294 117.081 117.164 117.187 117.111C117.204 117.102 118.897 116.241 119.611 114.655C120.173 113.41 119.934 111.571 119.11 110.798C118.615 110.334 117.962 110.313 117.218 110.738C117.195 110.751 117.157 110.776 117.107 110.807C114.514 112.447 113.303 111.781 112.744 110.934C111.717 109.378 112.202 96.8384 112.261 95.4139C112.266 95.2933 112.368 95.2023 112.485 95.2046C112.603 95.2093 112.695 95.3112 112.69 95.4326C112.532 99.2643 112.299 109.475 113.1 110.69C113.76 111.69 115.032 111.606 116.882 110.435C116.939 110.399 116.981 110.372 117.009 110.356C117.917 109.839 118.766 109.88 119.401 110.476C120.361 111.378 120.642 113.415 120.002 114.837C119.221 116.567 117.451 117.465 117.376 117.502C117.347 117.517 117.318 117.525 117.288 117.525Z" fill="#683935"/>
<path d="M77.0464 112.023C77.0464 112.023 103.847 102.988 109.249 80.3044C109.249 80.3044 133.644 109.009 142.317 100.006C142.317 100.006 145.455 76.6595 127.251 68.8507C117.265 64.567 109.487 66.6497 109.487 66.6497C96.0325 64.5896 87.8616 62.8616 73.5664 75.4886C58.8479 88.4905 62.101 118.802 77.0464 112.023Z" fill="#3A2924"/>
<path d="M66.4596 113.04C66.1327 113.04 65.8057 113.037 65.4779 113.03L65.4878 112.562C70.3751 112.669 75.2579 111.981 80.0015 110.527C95.9898 105.621 108.562 91.7005 112.031 75.063L112.481 75.1603C108.978 91.9627 96.2809 106.02 80.1337 110.975C75.662 112.346 71.0666 113.04 66.4596 113.04Z" fill="#3A2924"/>
<path d="M140.109 103.339C123 99.2183 108.561 85.5139 103.322 68.4235L103.761 68.2843C108.952 85.219 123.261 98.7998 140.215 102.883L140.109 103.339Z" fill="#3A2924"/>
<path d="M115.895 122.778C115.895 122.778 112.678 124.359 110.653 121.339" stroke="black" stroke-width="0.6161" stroke-miterlimit="10" stroke-linecap="round"/>
<path d="M98.5759 163.493C98.5759 163.493 116.063 161.865 140.979 163.519L140.185 168.379L99.4835 166.537L98.5759 163.493Z" fill="#91825D"/>
<path d="M137.9 149.136C142.556 141.982 142.863 133.843 138.587 130.957C134.31 128.072 127.07 131.532 122.414 138.686C117.758 145.84 117.451 153.979 121.727 156.865C126.004 159.751 133.244 156.291 137.9 149.136Z" fill="#666853"/>
<path d="M115.505 136.984C118.306 142.715 116.284 149.537 114.376 150.505C112.829 151.289 105.903 149.004 103.101 143.273C100.299 137.543 100.804 131.49 104.23 129.753C107.654 128.016 112.702 131.253 115.505 136.984Z" fill="#666853"/>
<path d="M109.06 156.98C111.83 154.291 110.558 148.356 106.22 143.723C101.882 139.09 96.1201 137.515 93.3507 140.204C90.5814 142.893 91.8531 148.829 96.1912 153.461C100.529 158.094 106.291 159.67 109.06 156.98Z" fill="#747761"/>
<path d="M138.998 160.237C133.936 164.033 126.988 163.178 125.724 161.43C124.699 160.013 125.718 152.671 130.78 148.875C135.841 145.078 141.785 144.545 144.054 147.682C146.323 150.819 144.059 156.44 138.998 160.237Z" fill="#747761"/>
<path d="M97.1219 145.53C97.1219 145.53 102.495 148.981 109.063 156.974C111.731 160.845 112.665 167.798 112.665 167.798" stroke="#919379" stroke-width="1.0312" stroke-miterlimit="10" stroke-linecap="round" stroke-linejoin="round"/>
<path d="M106.2 135.111C106.2 135.111 111.64 141.303 114.375 150.505C117.111 159.707 116.605 167.221 116.605 167.221" stroke="#919379" stroke-width="1.0312" stroke-miterlimit="10" stroke-linecap="round" stroke-linejoin="round"/>
<path d="M125.169 148.426C125.332 154.825 120.669 160.14 118.538 160.196C116.81 160.242 111.48 155.191 111.316 148.792C111.154 142.393 114.122 137.123 117.948 137.022C121.774 136.921 125.006 142.027 125.169 148.426Z" fill="#747761"/>
<path d="M117.512 142.726C117.512 142.726 119.875 150.678 118.538 160.196C117.2 169.714 118.948 180.368 118.948 180.368" stroke="#919379" stroke-width="1.0312" stroke-miterlimit="10" stroke-linecap="round" stroke-linejoin="round"/>
<path d="M134.446 136.885C134.446 136.885 124.932 144.288 121.724 156.864C118.515 169.441 120.048 170.963 120.048 170.963" stroke="#919379" stroke-width="1.0312" stroke-miterlimit="10" stroke-linecap="round" stroke-linejoin="round"/>
<path d="M139.785 148.866C139.785 148.866 130.416 151.06 125.724 161.43C123.365 167.646 123.841 171.201 123.841 171.201" stroke="#919379" stroke-width="1.0312" stroke-miterlimit="10" stroke-linecap="round" stroke-linejoin="round"/>
<path d="M140.312 166.872L99.4827 166.537L100.364 177.385C113.572 176.398 127.166 175.672 139.879 171.989L140.312 166.872Z" fill="#91825D"/>
<path d="M100.364 177.385L101.958 197.015C101.958 197.015 117.046 205.273 137.673 198.111L139.879 171.989C127.166 175.671 113.573 176.397 100.364 177.385Z" fill="#AFA178"/>
<path d="M98.5759 163.493L98.5957 170.152C98.5957 170.152 115.856 174.485 141.002 170.655L140.979 163.519C140.979 163.519 127.159 167.12 98.5759 163.493Z" fill="#AFA178"/>
<path d="M99.019 179.978C99.019 179.978 81.1941 179.37 76.2228 181.263C71.2514 183.156 60.34 188.481 66.5162 201.071C69.0542 206.245 73.1064 206.885 83.7749 203.337C91.0322 200.922 103.77 193.545 103.77 193.545" fill="#895147"/>
<path d="M76.2228 181.507C76.1257 181.507 76.034 181.447 75.9974 181.349C75.9508 181.223 76.0142 181.082 76.1379 181.034C81.0833 179.151 97.8623 179.833 98.9984 179.734C99.1282 179.718 99.2467 179.822 99.2581 179.958C99.2696 180.092 99.1718 180.21 99.0396 180.222C98.7623 180.246 81.191 179.633 76.3076 181.493C76.2793 181.503 76.251 181.507 76.2228 181.507Z" fill="#6D3D37"/>
<path d="M111.531 246.188C108.066 246.188 104.598 245.979 101.136 245.559L101.229 244.763C110.838 245.923 120.509 245.458 129.969 243.372L130.135 244.155C123.998 245.51 117.771 246.188 111.531 246.188Z" fill="#C98A5F"/>
<path d="M97.2122 180.575C97.2022 180.585 97.19 180.595 97.1808 180.605C95.4924 182.33 99.0809 194.214 103.102 194.022C107.124 193.83 110.514 192.814 110.582 191.789C110.708 189.882 104.723 189.342 104.723 189.342C104.723 189.342 112.404 189.164 112.4 187.311C112.395 185.458 104.346 186.101 104.346 186.101C104.346 186.101 112.252 184.746 112.352 183.004C112.405 180.044 104.42 182.509 104.42 182.509C104.42 182.509 109.803 179.601 109.244 177.519C108.899 176.238 105.238 176.858 101.963 178.044C102.498 175.949 102.76 173.547 101.183 173.465C98.9403 173.35 97.6446 178.492 97.2122 180.575Z" fill="#895147"/>
<path d="M103.009 194.326C101.339 194.326 99.5729 192.462 98.1473 189.185C96.6934 185.844 95.8744 181.514 96.9715 180.393L97.2121 180.576L97.4207 180.789C97.4161 180.793 97.3955 180.813 97.3909 180.817C96.6735 181.549 97.0845 185.257 98.6874 188.941C100.019 192.001 101.653 193.81 103.087 193.721C103.236 193.729 103.388 193.842 103.396 194.008C103.404 194.175 103.278 194.316 103.115 194.323C103.08 194.325 103.044 194.326 103.009 194.326Z" fill="#6D3D37"/>
<path d="M143.664 176.345C143.664 176.345 160.12 181.066 161.415 183.091C162.71 185.114 163.44 190.899 161.749 195.953C160.058 201.005 151.599 200.836 140.984 188.337" fill="#895147"/>
<path d="M161.415 183.392C161.319 183.392 161.224 183.344 161.167 183.255C160.262 181.84 150.156 178.521 143.585 176.635C143.427 176.59 143.336 176.424 143.381 176.264C143.424 176.103 143.588 176.009 143.745 176.056C145.44 176.542 160.346 180.868 161.663 182.926C161.753 183.066 161.714 183.252 161.577 183.343C161.526 183.376 161.47 183.392 161.415 183.392Z" fill="#6D3D37"/>
<path d="M144.769 175.209C144.781 175.216 144.795 175.223 144.806 175.23C146.848 176.499 146.126 188.911 142.174 189.694C138.222 190.478 134.692 190.308 134.388 189.329C133.821 187.507 139.511 185.539 139.511 185.539C139.511 185.539 132.007 187.218 131.581 185.417C131.154 183.616 139.124 182.299 139.124 182.299C139.124 182.299 131.128 182.889 130.626 181.22C129.885 178.358 138.217 178.827 138.217 178.827C138.217 178.827 132.311 177.299 132.371 175.142C132.407 173.814 136.109 173.533 139.566 173.895C138.561 171.989 137.747 169.718 139.26 169.259C141.41 168.606 143.864 173.289 144.769 175.209Z" fill="#895147"/>
<path d="M142.174 189.995C142.036 189.995 141.912 189.895 141.885 189.751C141.853 189.588 141.958 189.43 142.119 189.398C143.307 189.162 144.068 188.007 144.498 187.079C146 183.837 146.023 178.149 144.547 175.373C144.5 175.286 143.373 173.197 140.906 170.007C140.805 169.876 140.827 169.687 140.955 169.585C141.084 169.481 141.269 169.504 141.37 169.634C143.867 172.864 145.018 174.996 145.065 175.084C146.616 177.999 146.6 183.953 145.032 187.335C144.332 188.845 143.363 189.763 142.231 189.988C142.212 189.993 142.193 189.995 142.174 189.995Z" fill="#6D3D37"/>
<path d="M270.929 353.217C309.55 353.217 340.858 348.661 340.858 343.04C340.858 337.419 309.55 332.862 270.929 332.862C232.308 332.862 201 337.419 201 343.04C201 348.661 232.308 353.217 270.929 353.217Z" fill="#EAE6DA"/>
<path d="M337.855 357.782C366.22 357.782 389.215 353.225 389.215 347.604C389.215 341.983 366.22 337.426 337.855 337.426C309.489 337.426 286.494 341.983 286.494 347.604C286.494 353.225 309.489 357.782 337.855 357.782Z" fill="#EAE6DA"/>
<path d="M300.587 194.06L300.44 193.623C303.76 192.008 305.304 187.457 305.362 183.663C305.427 179.41 304.063 175.299 302.86 171.673C301.562 167.765 300.228 163.749 300.212 159.534C300.196 155.798 301.226 152.195 302.222 148.713C302.697 147.054 303.187 145.338 303.558 143.632C305.485 134.751 304.323 125.15 300.369 117.289C299.593 115.747 298.686 114.2 297.81 112.705C295.149 108.17 292.398 103.479 292.687 97.9969L293.079 98.028C292.799 103.344 295.51 107.965 298.132 112.435C299.013 113.937 299.923 115.49 300.707 117.045C304.715 125.014 305.894 134.749 303.939 143.751C303.565 145.475 303.071 147.199 302.595 148.866C301.61 152.311 300.591 155.875 300.606 159.532C300.622 163.657 301.941 167.632 303.217 171.475C304.443 175.167 305.823 179.324 305.757 183.673C305.696 187.622 304.074 192.364 300.587 194.06Z" fill="#E7D7CC"/>
<path d="M239.096 113.509C239.173 105.974 240.548 98.652 243.151 92.1214L234.245 89.9671C234.245 89.9671 230.256 102.183 225.693 107.77C221.131 113.358 214.258 116.986 216.223 130.777C217.834 142.093 210.58 151.735 206.605 157.227C202.689 162.638 203.488 169.053 206.002 184.031C206.002 184.031 208.583 186.515 210.695 188.299L212.212 182.282C213.028 182.846 213.047 190.03 214.037 190.551C215.016 191.067 216.079 191.544 217.223 191.953C219.092 192.62 221.171 193.104 223.454 193.254L226.355 180.147L228.011 193.853C228.011 193.853 229.471 195.1 233.748 196.023C235.313 184.781 237.81 173.72 241.886 162.919C249.319 147.263 239.962 130.532 239.096 113.509Z" fill="#E7D7CC"/>
<path d="M289.246 155.519C286.581 135.99 294.666 115.676 286.098 98.9577L243.151 92.1222C240.547 98.6527 239.172 105.974 239.095 113.51C239.962 130.533 249.318 147.264 241.886 162.921C237.809 173.722 235.311 184.783 233.747 196.024C238.126 196.968 245.456 197.571 257.215 196.143C280.461 193.321 283.983 198.291 286.185 193.92C288.388 189.55 285.762 172.189 285.762 172.189L292.858 195.329L293.008 195.818C293.008 195.818 296.578 197.396 300.653 195.537C300.837 193.605 300.903 191.6 300.853 189.501C299.606 175.791 290.682 167.571 289.246 155.519Z" fill="#D6C5BA"/>
<path d="M303.086 172.024C300.643 165.57 299.222 158.015 299.597 153.653C300.291 145.574 308.357 136.357 300.464 120.349C292.33 103.847 294.226 100.251 294.226 100.251L286.098 98.9569C294.665 115.675 286.58 135.989 289.246 155.518C290.682 167.57 299.606 175.791 300.853 189.5C300.903 191.6 300.836 193.605 300.652 195.536C301.721 195.049 302.824 194.337 303.907 193.282C305.102 192.12 307.367 183.334 303.086 172.024Z" fill="#E7D7CC"/>
<path d="M204.799 182.579C201.369 174.223 201.64 163.962 205.506 155.798C206.528 153.639 207.8 151.603 209.03 149.631C211.057 146.387 213.152 143.031 214.1 139.134C214.887 135.901 214.862 132.381 214.839 128.975C214.808 124.363 214.776 119.594 216.789 115.596C218.444 112.311 221.186 110.173 223.838 108.103C225.328 106.94 226.869 105.739 228.205 104.345C231.89 100.497 234.245 94.7254 234.505 88.906L234.897 88.9262C234.632 94.8717 232.226 100.768 228.461 104.697C227.104 106.114 225.551 107.326 224.049 108.498C221.316 110.63 218.732 112.644 217.125 115.837C215.169 119.719 215.2 124.21 215.232 128.965C215.255 132.405 215.28 135.963 214.478 139.26C213.509 143.241 211.392 146.633 209.344 149.911C208.121 151.87 206.856 153.895 205.846 156.027C202.044 164.056 201.778 174.149 205.151 182.366L204.799 182.579Z" fill="#E7D7CC"/>
<path d="M283.595 150.177C283.595 150.177 291.183 154.516 299.212 169.385C305.132 180.348 309.717 200.154 305.248 208.085C300.778 216.017 284.963 207.199 284.963 207.199" fill="#DD9E6E"/>
<path d="M292.893 203.464C291.58 206.396 289.347 208.23 287.904 207.56C286.462 206.89 286.357 203.971 287.67 201.038C288.983 198.106 291.216 196.272 292.659 196.942C294.101 197.611 294.206 200.532 292.893 203.464Z" fill="#C98A5F"/>
<path d="M291.572 195.536C291.572 195.536 295.087 195.004 299.211 196.065" stroke="#C98A5F" stroke-width="0.7457" stroke-miterlimit="10" stroke-linecap="round" stroke-linejoin="round"/>
<path d="M281 206.097C277.08 208.92 230.581 206.036 231.724 200.647C231.917 199.741 231.724 195.063 231.724 195.063C231.724 195.063 201.289 201.405 202.255 190.403C203.459 176.686 227.661 152.655 231.966 149.16C239.098 143.372 262.654 143.229 262.654 143.229C262.654 143.229 276.135 147.128 283.596 150.177C284.476 150.537 285.142 151.284 285.424 152.206C286.724 156.457 290.312 169.337 290.014 181.126C289.648 195.498 284.825 203.341 281 206.097Z" fill="#DD9E6E"/>
<path d="M286.099 154.517C286.099 154.517 292.144 165.774 293.152 180.027C294.161 194.28 284.964 203.698 284.964 203.698" stroke="#C98A5F" stroke-width="0.7457" stroke-miterlimit="10" stroke-linecap="round" stroke-linejoin="round"/>
<path d="M260.316 143.842C260.316 143.842 254.224 144.031 252.738 145.083C251.252 146.136 259.762 161.016 269.979 161.979C280.196 162.941 281.059 152.814 281.667 151.957C282.274 151.102 275.524 146.753 260.316 143.842Z" fill="#EBBC8E"/>
<path d="M277.395 146.322L279.287 139.809L260.823 135.42L258.323 143.595C264.532 146.077 271.03 146.837 277.395 146.322Z" fill="#D8A178"/>
<path d="M258.322 143.595L257.225 147.181C261.931 148.704 268.829 151.024 276.069 150.884L277.394 146.322C271.03 146.837 264.532 146.077 258.322 143.595Z" fill="#EBBC8E"/>
<path d="M249.583 128.715L246.244 117.076C246.244 117.076 235.726 113.252 235.244 124.22C234.763 135.188 246.079 135.676 249.583 128.715Z" fill="#EBBC8E"/>
<path d="M293.074 88.3061C293.074 88.3061 298.245 98.7189 299.858 114.55C301.116 126.903 292.662 140.017 277.952 142.56C264.127 144.951 249.083 140.771 242.72 121.349C236.356 101.926 240.89 85.4454 258.156 79.1561C275.421 72.8667 288.201 76.3545 293.074 88.3061Z" fill="#EBBC8E"/>
<path d="M237.603 116.555C237.603 116.555 275.786 106.924 285.637 88.8258C285.637 88.8258 292.28 105.696 300.768 113.317C300.768 113.317 302.886 103.955 299.483 88.559C296.081 73.1624 279.613 71.5301 261.458 75.4403C261.458 75.4403 237.347 73.7248 234.088 90.707C230.83 107.689 237.603 116.555 237.603 116.555Z" fill="#E7D7CC"/>
<path d="M267.757 128.025C267.284 130.098 263.809 131.047 259.996 130.145C256.183 129.243 253.475 126.831 253.949 124.758C254.422 122.684 257.897 121.735 261.71 122.637C265.522 123.539 268.23 125.951 267.757 128.025Z" fill="#D8A178"/>
<path d="M298.083 125.631C298.463 127.723 295.65 130.008 291.801 130.732C287.951 131.456 284.523 130.346 284.143 128.253C283.763 126.16 286.576 123.876 290.425 123.152C294.275 122.428 297.703 123.538 298.083 125.631Z" fill="#D8A178"/>
<path d="M259.179 110.702C259.179 110.702 257.064 108.723 261.641 106.37C266.218 104.016 267.804 104.577 268.521 105.803C269.175 106.922 268.108 108.566 265.511 109.835C262.395 111.358 260.327 111.838 259.179 110.702Z" fill="#E7D7CC"/>
<path d="M296.528 109.136C296.528 109.136 298.303 107.017 293.379 104.987C288.455 102.957 286.974 103.626 286.463 104.899C285.997 106.059 287.323 107.624 290.106 108.709C293.446 110.012 295.576 110.348 296.528 109.136Z" fill="#E7D7CC"/>
<path d="M266.429 118.79C266.381 120.283 265.366 121.462 264.162 121.422C262.958 121.383 262.021 120.139 262.069 118.645C262.117 117.151 263.132 115.972 264.335 116.012C265.54 116.052 266.476 117.296 266.429 118.79Z" fill="black"/>
<path d="M292.227 118.639C292.179 120.133 291.164 121.311 289.96 121.272C288.756 121.231 287.819 119.988 287.868 118.494C287.916 117 288.93 115.821 290.134 115.861C291.338 115.901 292.275 117.145 292.227 118.639Z" fill="black"/>
<path d="M245.906 129.374C245.877 129.374 245.846 129.367 245.817 129.354C245.709 129.305 245.66 129.174 245.709 129.064C245.731 129.01 248.004 123.725 244.378 121.295C243.104 120.441 241.851 120.147 240.65 120.419C238.579 120.89 237.342 122.915 237.329 122.935C237.266 123.038 237.134 123.071 237.033 123.008C236.931 122.945 236.899 122.81 236.961 122.706C237.014 122.617 238.301 120.505 240.552 119.991C241.872 119.691 243.239 120.005 244.615 120.928C248.548 123.564 246.127 129.187 246.103 129.244C246.066 129.325 245.988 129.373 245.906 129.374Z" fill="#683935"/>
<path d="M240.566 125.106C240.5 125.107 240.435 125.077 240.392 125.019C240.32 124.922 240.339 124.784 240.435 124.711C240.471 124.683 244.076 121.97 246.778 124.694C246.863 124.78 246.864 124.919 246.78 125.004C246.696 125.091 246.56 125.092 246.475 125.006C244.036 122.548 240.728 125.036 240.694 125.061C240.656 125.092 240.611 125.106 240.566 125.106Z" fill="#683935"/>
<path d="M279.784 122.937C279.703 122.94 279.623 122.894 279.584 122.814C279.532 122.705 279.577 122.574 279.683 122.52C279.7 122.512 281.403 121.647 282.124 120.052C282.689 118.8 282.451 116.951 281.623 116.172C281.125 115.705 280.469 115.683 279.72 116.11C279.696 116.124 279.658 116.148 279.609 116.179C276.998 117.827 275.78 117.156 275.219 116.303C274.188 114.737 274.686 102.124 274.746 100.691C274.751 100.57 274.854 100.478 274.971 100.481C275.09 100.486 275.182 100.588 275.177 100.711C275.015 104.565 274.771 114.835 275.576 116.058C276.24 117.065 277.519 116.982 279.381 115.805C279.438 115.77 279.481 115.742 279.509 115.727C280.422 115.207 281.277 115.25 281.915 115.849C282.88 116.757 283.161 118.807 282.516 120.236C281.73 121.976 279.948 122.877 279.872 122.915C279.845 122.929 279.814 122.936 279.784 122.937Z" fill="#683935"/>
<path d="M262.227 128.715C255.979 128.413 251.138 122.99 251.435 116.628C251.732 110.265 257.057 105.335 263.305 105.638C269.553 105.94 274.394 111.363 274.097 117.725C273.799 124.088 268.475 129.018 262.227 128.715ZM263.276 106.251C257.36 105.965 252.318 110.633 252.037 116.657C251.756 122.681 256.34 127.816 262.255 128.102C268.171 128.389 273.213 123.721 273.494 117.697C273.776 111.672 269.192 106.538 263.276 106.251Z" fill="black"/>
<path d="M293.205 130.215C286.957 129.913 282.115 124.49 282.413 118.128C282.71 111.765 288.035 106.835 294.283 107.138C300.531 107.44 305.372 112.863 305.075 119.225C304.777 125.588 299.453 130.519 293.205 130.215ZM294.254 107.751C288.338 107.465 283.296 112.133 283.015 118.157C282.734 124.181 287.318 129.316 293.233 129.602C299.149 129.889 304.191 125.221 304.472 119.197C304.754 113.173 300.17 108.038 294.254 107.751Z" fill="black"/>
<path d="M282.774 116.842C282.722 116.84 282.671 116.824 282.624 116.793C278.432 114.012 273.942 116.346 273.897 116.37C273.75 116.448 273.567 116.39 273.49 116.24C273.413 116.09 273.47 115.905 273.617 115.826C273.666 115.801 278.47 113.305 282.953 116.278C283.093 116.37 283.132 116.56 283.041 116.702C282.981 116.798 282.877 116.847 282.774 116.842Z" fill="black"/>
<path d="M234.804 119.845C234.8 119.845 234.796 119.845 234.793 119.845C234.628 119.831 234.504 119.682 234.517 119.513C234.738 116.782 237.642 115.77 237.765 115.728C237.8 115.717 237.838 115.711 237.875 115.714L251.75 116.335C251.917 116.343 252.045 116.487 252.037 116.656C252.029 116.826 251.888 116.957 251.721 116.948L237.905 116.33C237.541 116.469 235.291 117.417 235.118 119.564C235.105 119.73 234.965 119.853 234.804 119.845Z" fill="black"/>
<path d="M274.314 126.653C274.314 126.653 276.555 129.567 279.645 128.315" stroke="#683935" stroke-width="0.5374" stroke-miterlimit="10" stroke-linecap="round" stroke-linejoin="round"/>
<path d="M288.191 307.295C289.554 299.122 290.878 290.06 291.965 280.945C285.225 282.714 271.472 286.68 264.498 286.954C264.498 292.704 264.791 298.771 265.224 304.61C272.649 307.186 280.367 307.445 288.191 307.295Z" fill="#D8A178"/>
<path d="M283.274 332.167C284.713 326.38 286.482 317.537 288.191 307.295C280.367 307.445 272.649 307.186 265.224 304.61C266.462 321.295 268.848 336.085 268.848 336.085C264.279 350.242 280.004 345.879 280.004 345.879C280.004 345.879 306.935 348.23 306.935 343.92C306.935 339.611 283.274 332.167 283.274 332.167Z" fill="#EBBC8E"/>
<path d="M267.725 342.694C267.794 343.646 267.913 344.648 268.101 345.7C268.101 345.7 273.568 347.604 288.449 347.604C305.076 347.604 307.207 345.447 307.207 345.447C307.207 345.447 307.316 344.629 306.968 343.429C289.328 346.867 275.208 344.6 267.725 342.694Z" fill="#C69524"/>
<path d="M281.144 345.948C281.144 345.948 283.79 336.817 287.475 333.389L291.322 334.917C291.322 334.917 286.997 341.039 286.613 346.128L281.144 345.948Z" fill="#C69524"/>
<path d="M290.352 345.948C290.352 345.948 291.505 339.78 295.189 336.351L298.727 337.853C298.727 337.853 296.204 341.038 295.82 346.128L290.352 345.948Z" fill="#C69524"/>
<path d="M256.983 302.772C249.555 305.321 241.332 306.803 233.432 304.533C235.277 315.941 237.235 325.866 238.801 332.167C238.801 332.167 215.141 339.611 215.141 343.92C215.141 348.23 242.072 345.879 242.072 345.879C242.072 345.879 257.797 350.242 253.229 336.085C253.229 336.085 255.793 320.192 256.983 302.772Z" fill="#EBBC8E"/>
<path d="M256.983 302.772C257.343 297.506 257.579 292.103 257.579 286.954C250.604 286.68 236.852 282.715 230.112 280.946C231.076 289.046 232.23 297.103 233.432 304.533C241.332 306.802 249.556 305.321 256.983 302.772Z" fill="#D8A178"/>
<path d="M254.351 342.694C254.282 343.646 254.163 344.648 253.975 345.7C253.975 345.7 248.508 347.604 233.627 347.604C216.999 347.604 214.867 345.447 214.867 345.447C214.867 345.447 214.759 344.629 215.107 343.429C232.748 346.867 246.868 344.6 254.351 342.694Z" fill="#C69524"/>
<path d="M240.932 345.948C240.932 345.948 238.286 336.817 234.602 333.389L230.754 334.917C230.754 334.917 235.08 341.039 235.463 346.128L240.932 345.948Z" fill="#C69524"/>
<path d="M231.724 345.948C231.724 345.948 230.571 339.78 226.887 336.351L223.349 337.853C223.349 337.853 225.871 341.038 226.256 346.128L231.724 345.948Z" fill="#C69524"/>
<path d="M231.051 202.555C231.051 202.555 221.413 222.622 214.699 256.186C210.332 278.021 208.595 295.345 208.595 295.345C208.595 295.345 221.718 299.075 225.991 300.629C230.264 302.182 240.946 303.115 249.186 301.25C257.427 299.385 264.141 300.629 269.634 301.872C275.127 303.115 285.809 305.29 291.913 303.425C298.017 301.561 299.848 299.385 305.036 297.832C310.225 296.278 312.971 291.305 312.971 291.305C312.971 291.305 302.442 230.132 284.589 200.762L231.051 202.555Z" fill="#AFA178"/>
<path d="M230.979 198.919C230.979 198.919 230.95 201.579 231.052 202.555C231.154 203.532 278.305 206.748 286.816 205.017L286.25 200.857C286.25 200.857 262.769 202.584 230.979 198.919Z" fill="#A0906A"/>
<path d="M248.719 271.937C248.632 271.937 248.548 271.889 248.504 271.805C248.442 271.685 248.488 271.536 248.606 271.474C263.85 263.328 275.145 247.539 278.084 230.266C278.107 230.132 278.237 230.046 278.363 230.066C278.495 230.09 278.583 230.216 278.561 230.351C275.596 247.771 264.204 263.695 248.83 271.909C248.795 271.929 248.757 271.937 248.719 271.937Z" fill="#A0906A"/>
<path d="M273.035 289.418C272.976 289.418 272.916 289.395 272.87 289.351C272.773 289.257 272.768 289.102 272.86 289.002C282.556 278.537 287.746 263.721 286.743 249.369C286.733 249.234 286.833 249.116 286.967 249.106C287.118 249.105 287.216 249.2 287.225 249.334C288.237 263.821 282.999 278.776 273.211 289.34C273.164 289.391 273.1 289.418 273.035 289.418Z" fill="#A0906A"/>
<path d="M229.845 181.624C229.729 181.624 229.628 181.539 229.606 181.42C228.795 176.67 229.402 162.267 229.414 162.188C229.435 162.053 229.545 161.962 229.691 161.982C229.822 162.003 229.912 162.129 229.891 162.263C229.878 162.341 229.285 176.666 230.082 181.335C230.105 181.469 230.018 181.596 229.886 181.619C229.872 181.623 229.859 181.624 229.845 181.624Z" fill="#C98A5F"/>
<path d="M298.295 291.57C298.295 291.57 327.856 288.82 369.973 291.615L368.629 299.831L299.828 296.717L298.295 291.57Z" fill="#6D3D37"/>
<path d="M374.998 177.685C374.998 177.685 351.459 186.41 344.598 207.23L352.355 214.044L343.154 210.238C343.154 210.238 329.227 233.261 336.544 280.711C336.544 280.711 345.79 276.194 349.658 273.241C354.636 269.439 359.715 265.405 365.77 251.898C366.07 251.229 359.211 246.491 359.211 246.491C359.211 246.491 367.404 248.216 367.595 247.631C369.664 241.269 373.22 231.7 374.022 223.114C376.647 194.975 374.998 177.685 374.998 177.685Z" fill="#747761"/>
<path d="M316.47 235.356L311.186 238.356L314.457 232.675C313.43 231.348 312.348 230.004 311.197 228.643L308.658 230.69C308.136 230.103 308.875 225.99 308.875 225.99C304.926 221.7 300.329 217.235 294.984 212.615C293.312 211.169 288.385 268.05 330.372 283.898C330.372 283.898 337.373 264.08 316.47 235.356Z" fill="#666853"/>
<path d="M384.98 264.586C392.208 255.217 394.298 246.77 394.298 246.77C377.583 252.134 366.204 259.814 358.562 267.1L359.562 271.186L356.297 269.357C346.685 279.378 344.043 288.079 344.043 288.079C362.582 284.933 374.559 276.45 382.151 267.984L378.767 261.949L384.98 264.586Z" fill="#666853"/>
<path d="M310.362 261.473L305.204 265.154L307.146 258.921C292.507 247.965 279.326 246.815 279.326 246.815C279.326 246.815 281.18 253.099 285.49 260.828L289.81 258.206L287.463 264.169C288.247 265.424 289.09 266.695 289.999 267.968L292.672 266.346L291.328 269.763C294.976 274.536 299.542 279.192 305.167 282.756C319.635 291.924 331.082 288.124 331.082 288.124C324.939 276.086 317.579 267.537 310.362 261.473Z" fill="#747761"/>
<path d="M371.777 183.73C366.506 192.931 361.878 202.51 357.716 212.282C353.583 222.071 349.972 232.083 346.827 242.237C343.689 252.394 341.044 262.711 338.901 273.122L337.395 280.916C337.103 283.502 336.919 286.173 336.824 288.808C336.631 294.086 336.787 299.422 337.848 304.544L337.849 304.551C338 305.279 337.543 305.993 336.829 306.146C336.114 306.299 335.413 305.834 335.262 305.107C335.251 305.052 335.242 304.989 335.238 304.935C334.815 299.486 334.763 294.106 334.995 288.728C335.124 286.033 335.333 283.38 335.67 280.668L337.282 272.775C339.554 262.322 342.324 251.997 345.589 241.832C348.858 231.672 352.594 221.667 356.848 211.895C358.978 207.011 361.2 202.17 363.559 197.396C365.936 192.631 368.432 187.927 371.099 183.322C371.21 183.131 371.451 183.067 371.639 183.18C371.825 183.294 371.888 183.54 371.777 183.73Z" fill="#50513F"/>
<path d="M284.2 249.799C290.027 253.073 295.6 256.742 301.04 260.618C306.473 264.504 311.736 268.642 316.77 273.062C318.049 274.142 319.261 275.302 320.5 276.431C321.748 277.55 322.937 278.734 324.133 279.911L325.927 281.677L327.661 283.506L329.396 285.334C329.668 285.605 330.033 286.018 330.275 286.41C330.533 286.804 330.743 287.204 330.938 287.607C331.323 288.413 331.63 289.23 331.903 290.056C332.039 290.47 332.164 290.883 332.281 291.309L332.303 291.391L332.314 291.433L332.32 291.457C332.686 291.379 329.168 292.267 330.654 291.878L330.619 291.751L330.593 291.665C330.596 291.676 330.585 291.648 330.603 291.689C330.617 291.715 330.608 291.7 330.645 291.759C330.668 291.793 330.694 291.825 330.723 291.853C330.723 291.853 330.796 291.939 330.958 292.022C331.104 292.082 331.216 292.117 331.455 292.087C331.684 292.052 331.868 291.886 331.879 291.872C331.934 291.822 331.981 291.76 332.017 291.696L332.049 291.638C332.089 291.54 332.075 291.574 332.083 291.548L332.073 291.617L332.049 291.878C331.973 293.476 331.992 295.205 331.964 296.884C331.919 300.267 331.827 303.664 331.471 307.075C331.413 307.62 330.933 308.016 330.397 307.958C329.862 307.9 329.473 307.41 329.53 306.865C329.53 306.862 329.531 306.859 329.531 306.856L329.532 306.846C329.923 303.556 330.065 300.204 330.158 296.847C330.212 295.155 330.211 293.511 330.321 291.743L330.36 291.375C330.37 291.306 330.383 291.23 330.406 291.133C330.428 291.057 330.424 291.039 330.487 290.893L330.535 290.799C330.58 290.725 330.636 290.654 330.698 290.593C330.715 290.566 330.913 290.399 331.154 290.359C331.405 290.321 331.529 290.364 331.686 290.431C331.86 290.519 331.94 290.609 331.951 290.623C331.988 290.662 332.022 290.704 332.053 290.748C332.106 290.827 332.107 290.837 332.134 290.887C332.177 290.974 332.182 290.997 332.206 291.055C332.234 291.136 332.255 291.209 332.272 291.271L332.317 291.45C333.805 291.07 330.294 291.985 330.654 291.883L330.651 291.869L330.642 291.834L330.624 291.762C330.525 291.374 330.411 290.981 330.289 290.593C330.046 289.818 329.77 289.053 329.44 288.338C329.275 287.982 329.098 287.636 328.9 287.326C328.701 287.002 328.512 286.782 328.201 286.455L326.511 284.621L324.821 282.787L323.07 281.011C321.902 279.828 320.741 278.637 319.519 277.51C318.308 276.371 317.122 275.204 315.867 274.112C310.935 269.651 305.762 265.46 300.413 261.514C295.062 257.579 289.547 253.833 283.824 250.506L283.814 250.5C283.625 250.39 283.559 250.145 283.667 249.953C283.775 249.761 284.012 249.694 284.2 249.799Z" fill="#50513F"/>
<path d="M298.124 219.296C300.056 225.026 302.182 230.704 304.482 236.297C306.799 241.883 309.286 247.403 312.177 252.692L313.307 254.645C313.685 255.295 314.055 255.951 314.477 256.571L315.703 258.458C316.133 259.07 316.594 259.657 317.037 260.257C317.913 261.461 318.92 262.622 319.808 263.844C320.723 265.053 321.587 266.299 322.444 267.552C324.125 270.078 325.685 272.691 327.084 275.391C328.474 278.101 329.753 280.854 330.746 283.774L330.747 283.777L330.645 283.611C331.261 284.42 331.551 285.174 331.876 285.994C332.193 286.796 332.447 287.614 332.693 288.435C333.177 290.078 333.549 291.746 333.92 293.419C334.26 295.095 334.562 296.781 334.864 298.471C335.154 300.163 335.405 301.86 335.712 303.562C335.87 304.445 335.297 305.29 334.431 305.452C333.565 305.614 332.734 305.03 332.575 304.148C332.549 303.999 332.542 303.85 332.555 303.706L332.558 303.684C332.638 302.845 332.68 302.006 332.74 301.165C332.791 300.323 332.783 299.486 332.808 298.644C332.842 296.962 332.766 295.285 332.646 293.61C332.5 291.941 332.284 290.275 331.914 288.647C331.717 287.837 331.503 287.03 331.205 286.26C331.066 285.871 330.891 285.499 330.71 285.136C330.54 284.785 330.299 284.402 330.098 284.187L330.089 284.179C330.046 284.133 330.014 284.077 329.996 284.021L329.995 284.017C329.035 281.194 327.76 278.437 326.387 275.765C325.003 273.092 323.458 270.505 321.792 268.002C320.944 266.761 320.088 265.527 319.182 264.329C318.295 263.11 317.321 261.992 316.419 260.754C315.966 260.141 315.495 259.542 315.058 258.918L313.814 257.005C313.386 256.375 313.012 255.715 312.63 255.057L311.489 253.085C308.575 247.753 306.08 242.212 303.755 236.608C301.446 230.994 299.319 225.311 297.376 219.55C297.305 219.341 297.415 219.112 297.62 219.04C297.826 218.969 298.05 219.08 298.12 219.289L298.124 219.296Z" fill="#50513F"/>
<path d="M390.289 250.052C384.768 253.949 379.318 257.963 373.945 262.068C368.578 266.181 363.277 270.388 358.172 274.808C355.623 277.021 353.121 279.29 350.748 281.667C349.557 282.852 348.415 284.078 347.336 285.342C346.242 286.618 345.295 287.897 344.507 289.35C342.873 292.235 341.603 295.328 340.923 298.538C340.583 300.142 340.411 301.774 340.398 303.393C340.381 304.203 340.442 305.009 340.529 305.803C340.58 306.197 340.635 306.594 340.715 306.975C340.784 307.347 340.892 307.766 340.979 308.035L341.006 308.118C341.219 308.779 340.866 309.49 340.217 309.707C339.567 309.924 338.869 309.564 338.656 308.903C338.654 308.896 338.65 308.884 338.648 308.877C338.341 307.852 338.228 307.007 338.123 306.078C338.04 305.169 337.994 304.261 338.029 303.359C338.079 301.556 338.308 299.77 338.713 298.033C339.524 294.559 340.955 291.289 342.739 288.285C343.608 286.757 344.726 285.306 345.872 284.031C347.026 282.734 348.227 281.499 349.467 280.317C351.938 277.942 354.511 275.707 357.126 273.532C362.361 269.188 367.763 265.083 373.228 261.074C378.7 257.074 384.233 253.174 389.849 249.384C390.03 249.262 390.274 249.312 390.395 249.497C390.514 249.68 390.464 249.928 390.289 250.052Z" fill="#50513F"/>
<path d="M368.845 297.282L299.829 296.717L301.319 315.053C323.647 313.385 346.625 312.157 368.115 305.934L368.845 297.282Z" fill="#6D3D37"/>
<path d="M301.318 315.053L304.013 348.237C304.013 348.237 335.807 358.082 364.385 350.09L368.114 305.934C346.625 312.157 323.646 313.384 301.318 315.053Z" fill="#895147"/>
<path d="M298.295 291.57L298.33 302.826C298.33 302.826 327.506 310.152 370.011 303.678L369.973 291.615C369.973 291.615 346.612 297.703 298.295 291.57Z" fill="#895147"/>
<path d="M241.314 177.497C241.314 177.497 213.309 179.122 208.257 180.88C203.206 182.639 200.914 190.561 203.056 195.956C205.198 201.35 214.577 202.761 222.166 201.556C229.754 200.351 245.709 191.278 245.709 191.278" fill="#DD9E6E"/>
<path d="M245.123 183.988C246.079 187.576 245.258 190.927 243.288 191.471C241.319 192.016 238.946 189.548 237.989 185.96C237.033 182.372 237.854 179.021 239.823 178.476C241.794 177.932 244.166 180.399 245.123 183.988Z" fill="#C98A5F"/>
<path d="M239.331 194.958C234.006 197.669 226.649 201.093 222.203 201.799C222.07 201.819 221.947 201.727 221.927 201.593C221.906 201.459 221.994 201.339 222.128 201.311C229.587 200.129 245.433 191.155 245.59 191.062C245.594 191.06 245.597 191.058 245.6 191.057C245.715 190.998 245.856 191.041 245.919 191.157C245.985 191.275 245.943 191.426 245.826 191.491C245.761 191.53 243.039 193.07 239.331 194.958Z" fill="#C98A5F"/>
<path d="M241.422 177.717C241.393 177.732 241.361 177.74 241.327 177.741C241.047 177.757 213.298 179.385 208.334 181.111C208.208 181.156 208.071 181.087 208.027 180.959C207.985 180.831 208.055 180.69 208.178 180.647C213.203 178.897 240.154 177.317 241.299 177.251C241.432 177.243 241.546 177.346 241.554 177.483C241.562 177.584 241.506 177.674 241.422 177.717Z" fill="#C98A5F"/>
<path d="M254.399 193.188C252.974 193.188 251.558 192.928 250.199 192.403C243.758 189.913 240.746 182.243 243.196 174.56C244.251 171.248 246.706 168.391 249.931 166.72C253.176 165.039 256.769 164.714 260.047 165.803C262.956 166.771 265.331 168.949 266.735 171.937C268.416 175.516 268.544 179.812 267.087 183.725C265.772 187.252 263.307 190.1 260.145 191.744C258.297 192.704 256.34 193.188 254.399 193.188ZM256.153 167.742C254.434 167.742 252.68 168.168 251.07 169.002C248.436 170.367 246.437 172.681 245.585 175.351C243.558 181.712 245.925 188.014 251.09 190.01C253.628 190.99 256.438 190.798 259.001 189.465C261.607 188.111 263.643 185.75 264.736 182.818C265.951 179.555 265.854 175.993 264.467 173.043C263.363 170.692 261.516 168.986 259.266 168.238C258.271 167.906 257.219 167.742 256.153 167.742Z" fill="#AD7A15"/>
<path d="M260.722 164.906C260.722 164.906 278.64 166.256 291.85 172.382L288.608 176.909L261.668 170.439L260.722 164.906Z" fill="#AD7A15"/>
<path d="M260.722 164.906L250.292 195.301C250.292 195.301 265.242 206.602 287.372 204.206L291.85 172.381C291.85 172.381 275.289 171.877 260.722 164.906Z" fill="#C69524"/>
<path d="M282.239 189.997L306.917 184.809L307.745 187.226L285.249 198.787L282.239 189.997Z" fill="#C69524"/>
<path d="M308.685 190.328C306.967 190.995 304.804 189.48 303.853 186.943C302.903 184.405 303.525 181.808 305.242 181.14C306.961 180.473 309.124 181.988 310.074 184.525C311.025 187.062 310.403 189.66 308.685 190.328Z" fill="#AD7A15"/>
<path d="M309.082 190.174C307.583 190.756 305.597 189.172 304.646 186.634C303.695 184.097 304.14 181.568 305.639 180.986C307.138 180.403 309.124 181.988 310.075 184.525C311.025 187.062 310.581 189.591 309.082 190.174Z" fill="#C69524"/>
<path d="M307.031 182.821C306.824 183.081 306.449 183.12 306.194 182.909C305.938 182.698 305.9 182.316 306.107 182.056C306.315 181.796 306.689 181.756 306.945 181.968C307.2 182.18 307.238 182.561 307.031 182.821Z" fill="#AD7A15"/>
<path d="M306.072 184.722C305.864 184.982 305.49 185.022 305.235 184.81C304.98 184.599 304.941 184.217 305.148 183.957C305.356 183.697 305.731 183.658 305.986 183.869C306.241 184.081 306.28 184.462 306.072 184.722Z" fill="#AD7A15"/>
<path d="M309.017 184.465C308.81 184.725 308.435 184.764 308.18 184.553C307.925 184.342 307.887 183.96 308.094 183.701C308.302 183.441 308.676 183.402 308.931 183.613C309.185 183.824 309.224 184.206 309.017 184.465Z" fill="#AD7A15"/>
<path d="M307.822 185.962C307.615 186.222 307.24 186.261 306.984 186.05C306.729 185.839 306.691 185.457 306.898 185.197C307.105 184.938 307.48 184.899 307.735 185.11C307.991 185.32 308.03 185.702 307.822 185.962Z" fill="#AD7A15"/>
<path d="M306.932 187.711C306.724 187.971 306.35 188.01 306.094 187.799C305.839 187.588 305.801 187.206 306.008 186.946C306.216 186.687 306.59 186.648 306.845 186.858C307.101 187.069 307.139 187.451 306.932 187.711Z" fill="#AD7A15"/>
<path d="M309.622 186.881C309.415 187.141 309.04 187.18 308.785 186.969C308.53 186.758 308.492 186.376 308.699 186.116C308.906 185.856 309.281 185.818 309.536 186.028C309.791 186.239 309.83 186.621 309.622 186.881Z" fill="#AD7A15"/>
<path d="M308.751 188.933C308.543 189.193 308.169 189.232 307.913 189.021C307.658 188.81 307.62 188.428 307.827 188.169C308.035 187.909 308.409 187.87 308.664 188.081C308.92 188.292 308.959 188.674 308.751 188.933Z" fill="#AD7A15"/>
<path d="M331.687 189.725C338.17 195.79 344.255 206.207 347.536 223.929" stroke="#E7D7CC" stroke-width="0.9943" stroke-miterlimit="10" stroke-linecap="round" stroke-linejoin="round"/>
<path d="M306.854 182.04C306.854 182.04 318.072 179.191 329.075 187.521" stroke="#E7D7CC" stroke-width="0.9943" stroke-miterlimit="10" stroke-linecap="round" stroke-linejoin="round"/>
<path d="M308.846 183.678C308.846 183.678 335.816 183.005 341.637 226.223" stroke="#E7D7CC" stroke-width="0.9943" stroke-miterlimit="10" stroke-linecap="round" stroke-linejoin="round"/>
<path d="M309.55 186.943C309.55 186.943 333 194.636 336.995 233.394" stroke="#E7D7CC" stroke-width="0.9943" stroke-miterlimit="10" stroke-linecap="round" stroke-linejoin="round"/>
<path d="M334.973 213.578C335.68 215.641 336.342 217.85 336.948 220.214" stroke="#E7D7CC" stroke-width="0.9943" stroke-miterlimit="10" stroke-linecap="round" stroke-linejoin="round"/>
<path d="M305.529 184.417C305.529 184.417 323.354 184.157 333.711 210.167" stroke="#E7D7CC" stroke-width="0.9943" stroke-miterlimit="10" stroke-linecap="round" stroke-linejoin="round"/>
<path d="M326.177 218.07C326.729 220.64 327.113 223.375 327.278 226.276" stroke="#E7D7CC" stroke-width="0.9943" stroke-miterlimit="10" stroke-linecap="round" stroke-linejoin="round"/>
<path d="M306.399 187.402C306.399 187.402 319.878 196.201 325.223 214.321" stroke="#E7D7CC" stroke-width="0.9943" stroke-miterlimit="10" stroke-linecap="round" stroke-linejoin="round"/>
<path d="M320.218 195.957C323.974 200.779 327.582 207.677 329.509 217.406" stroke="#E7D7CC" stroke-width="0.9943" stroke-miterlimit="10" stroke-linecap="round" stroke-linejoin="round"/>
<path d="M307.283 185.65C307.283 185.65 312.393 187.388 317.864 193.207" stroke="#E7D7CC" stroke-width="0.9943" stroke-miterlimit="10" stroke-linecap="round" stroke-linejoin="round"/>
<path d="M308.596 188.146C308.596 188.146 327.418 194.493 329.567 233.421" stroke="#E7D7CC" stroke-width="0.9943" stroke-miterlimit="10" stroke-linecap="round" stroke-linejoin="round"/>
<path d="M239.63 178.083C239.62 178.091 239.609 178.097 239.6 178.105C237.946 179.4 239.531 190.758 242.982 191.228C246.434 191.698 249.451 191.319 249.635 190.4C249.98 188.689 244.945 187.24 244.945 187.24C244.945 187.24 251.514 188.309 251.741 186.627C251.967 184.945 245.025 184.24 245.025 184.24C245.025 184.24 251.933 184.276 252.235 182.712C252.648 180.035 245.534 180.993 245.534 180.993C245.534 180.993 250.484 179.216 250.265 177.238C250.13 176.02 246.932 175.996 243.993 176.548C244.708 174.733 245.229 172.595 243.896 172.269C241.999 171.803 240.257 176.261 239.63 178.083Z" fill="#E5B88B"/>
<path d="M292.861 195.866C292.869 195.876 292.879 195.885 292.886 195.894C294.224 197.523 290.254 208.26 286.784 207.955C283.314 207.649 280.451 206.612 280.466 205.674C280.495 203.929 285.719 203.629 285.719 203.629C285.719 203.629 279.078 203.218 279.216 201.526C279.354 199.835 286.281 200.682 286.281 200.682C286.281 200.682 279.529 199.189 279.57 197.595C279.738 194.891 286.476 197.4 286.476 197.4C286.476 197.4 282.025 194.57 282.66 192.687C283.051 191.529 286.178 192.213 288.929 193.401C288.618 191.472 288.565 189.27 289.936 189.246C291.888 189.213 292.637 193.95 292.861 195.866Z" fill="#E5B88B"/>
<path d="M465.501 353.217C504.122 353.217 535.43 348.661 535.43 343.04C535.43 337.419 504.122 332.862 465.501 332.862C426.881 332.862 395.573 337.419 395.573 343.04C395.573 348.661 426.881 353.217 465.501 353.217Z" fill="#EAE6DA"/>
<path d="M480.846 149.733C480.846 149.733 473.264 148.674 464.834 148.242C456.922 147.836 445.779 149.222 445.333 149.254C445.333 149.254 453.413 167.18 466.281 163.326C479.149 159.472 480.846 149.733 480.846 149.733Z" fill="#404042"/>
<path d="M456.398 336.368L465.394 242.599L435.098 238.182C435.098 238.182 440.803 307.648 443.955 332.989C443.955 332.989 424.412 339.703 424.412 343.419C424.412 347.136 446.775 344.815 446.775 344.815C446.775 344.815 460.338 348.577 456.398 336.368Z" fill="#E7A17E"/>
<path d="M474.358 336.368C474.358 336.368 470.743 276.724 468.697 226.673C468.392 219.216 495.657 238.182 495.657 238.182C495.657 238.182 489.952 307.648 486.8 332.989C486.8 332.989 505.702 339.556 505.702 343.272C505.702 346.989 483.98 344.815 483.98 344.815C483.98 344.815 470.418 348.577 474.358 336.368Z" fill="#E7A17E"/>
<path d="M499.147 337.266C505.137 340.038 506.985 342.703 506.985 342.703C506.985 342.703 506.685 343.555 498.346 344.494C497.814 341.991 498.108 339.417 499.147 337.266Z" fill="#FBF8EC"/>
<path d="M473.997 335.12C481.808 339.394 491.112 334.391 491.112 334.391C494.383 335.287 497.024 336.283 499.148 337.266C498.109 339.416 497.815 341.99 498.347 344.494C496.198 344.736 493.524 344.983 490.174 345.223C473.821 346.394 473.141 342.069 473.141 342.069C473.01 337.853 474.057 335.347 473.997 335.12Z" fill="#404042"/>
<path d="M473.141 342.069C473.2 342.889 473.303 343.753 473.465 344.661C473.465 344.661 478.18 346.303 491.014 346.303C505.354 346.303 507.192 344.443 507.192 344.443C507.192 344.443 507.285 343.738 506.986 342.703C491.772 345.668 479.594 343.713 473.141 342.069Z" fill="#FBF8EC"/>
<path d="M495.729 335.858C495.729 335.858 493.187 337.398 493.497 340.88" stroke="#57687E" stroke-width="0.5143" stroke-miterlimit="10" stroke-linecap="round" stroke-linejoin="round"/>
<path d="M492.834 334.889C492.834 334.889 490.657 336.217 490.667 339.907" stroke="#57687E" stroke-width="0.5143" stroke-miterlimit="10" stroke-linecap="round" stroke-linejoin="round"/>
<path d="M491.75 336.009C491.75 336.009 493.539 331.795 491.75 331.731C489.961 331.668 491.75 336.009 491.75 336.009Z" stroke="#57687E" stroke-width="0.5143" stroke-miterlimit="10" stroke-linecap="round" stroke-linejoin="round"/>
<path d="M491.75 336.055C491.75 336.055 488.85 332.54 487.994 334.141C487.137 335.742 491.75 336.055 491.75 336.055Z" stroke="#57687E" stroke-width="0.5143" stroke-miterlimit="10" stroke-linecap="round" stroke-linejoin="round"/>
<path d="M433.615 225.337L435.904 293.21C435.904 293.21 451.784 294.895 463.034 293.21L464.805 249.339L469.605 294.678C469.605 294.678 491.252 296.416 495.884 293.384C495.884 293.384 496.854 266.545 495.718 224.648L433.615 225.337Z" fill="#C69524"/>
<path d="M476.135 251.581C476.239 251.581 476.326 251.499 476.332 251.392C476.337 251.281 476.255 251.187 476.146 251.181C467.004 250.683 454.055 247.679 453.925 247.648C453.821 247.628 453.715 247.691 453.69 247.799C453.666 247.907 453.732 248.014 453.838 248.04C453.968 248.069 466.95 251.082 476.125 251.583C476.129 251.581 476.132 251.581 476.135 251.581Z" fill="#AD7A15"/>
<path d="M490.687 292.467C490.793 292.467 490.879 292.383 490.883 292.274L492.819 232.837C492.823 232.726 492.738 232.634 492.629 232.631C492.627 232.631 492.625 232.631 492.623 232.631C492.517 232.631 492.43 232.715 492.426 232.824L490.49 292.261C490.486 292.372 490.572 292.463 490.68 292.467C490.682 292.467 490.684 292.467 490.687 292.467Z" fill="#AD7A15"/>
<path d="M458.957 293.785C459.062 293.785 459.149 293.7 459.153 293.592L460.736 249.62C460.739 249.509 460.655 249.417 460.546 249.413C460.432 249.414 460.347 249.495 460.343 249.606L458.761 293.578C458.757 293.689 458.841 293.781 458.95 293.785C458.952 293.785 458.955 293.785 458.957 293.785Z" fill="#AD7A15"/>
<path d="M463.034 245.769C463.143 245.769 463.231 245.678 463.231 245.569V230.751C463.231 230.64 463.143 230.551 463.034 230.551C462.926 230.551 462.838 230.641 462.838 230.751V245.569C462.838 245.679 462.926 245.769 463.034 245.769Z" fill="#AD7A15"/>
<path d="M491.796 246.199C491.845 246.199 491.895 246.18 491.933 246.143C492.011 246.066 492.012 245.939 491.937 245.86C486.6 240.257 483.775 232.266 484.381 224.485C484.39 224.374 484.309 224.279 484.201 224.27C484.089 224.26 483.998 224.344 483.99 224.454C483.374 232.347 486.24 240.454 491.655 246.138C491.694 246.179 491.745 246.199 491.796 246.199Z" fill="#AD7A15"/>
<path d="M435.485 244.203C435.504 244.203 435.523 244.199 435.543 244.194C438.638 243.219 441.292 240.32 442.47 236.624C443.667 232.862 443.32 228.802 442.955 226.074C442.94 225.965 442.846 225.893 442.733 225.903C442.626 225.918 442.551 226.02 442.565 226.129C442.926 228.816 443.269 232.816 442.095 236.5C440.958 240.074 438.402 242.875 435.427 243.81C435.323 243.843 435.265 243.955 435.297 244.061C435.323 244.147 435.401 244.203 435.485 244.203Z" fill="#AD7A15"/>
<path d="M463.034 245.011C463.144 245.011 465.727 244.95 466.361 239.654C466.975 234.523 467.105 227.573 467.107 227.504C467.11 227.392 467.022 227.302 466.915 227.3C466.913 227.3 466.911 227.3 466.911 227.3C466.804 227.3 466.717 227.388 466.715 227.496C466.713 227.565 466.583 234.495 465.972 239.606C465.383 244.52 463.057 244.611 463.034 244.611C462.926 244.613 462.839 244.703 462.84 244.812C462.84 244.921 462.926 245.011 463.034 245.011Z" fill="#AD7A15"/>
<path d="M431.356 337.266C425.366 340.038 423.518 342.703 423.518 342.703C423.518 342.703 423.818 343.555 432.157 344.494C432.689 341.99 432.395 339.417 431.356 337.266Z" fill="#FBF8EC"/>
<path d="M456.507 335.12C448.696 339.394 439.392 334.391 439.392 334.391C436.121 335.287 433.48 336.283 431.356 337.266C432.395 339.416 432.69 341.99 432.157 344.494C434.306 344.736 436.98 344.983 440.331 345.223C456.684 346.394 457.364 342.069 457.364 342.069C457.494 337.853 456.447 335.347 456.507 335.12Z" fill="#404042"/>
<path d="M457.363 342.069C457.304 342.889 457.201 343.753 457.039 344.661C457.039 344.661 452.324 346.303 439.49 346.303C425.15 346.303 423.312 344.443 423.312 344.443C423.312 344.443 423.219 343.738 423.518 342.703C438.732 345.668 450.91 343.713 457.363 342.069Z" fill="#FBF8EC"/>
<path d="M434.775 335.858C434.775 335.858 437.317 337.398 437.006 340.88" stroke="#57687E" stroke-width="0.5143" stroke-miterlimit="10" stroke-linecap="round" stroke-linejoin="round"/>
<path d="M437.67 334.889C437.67 334.889 439.847 336.217 439.837 339.907" stroke="#57687E" stroke-width="0.5143" stroke-miterlimit="10" stroke-linecap="round" stroke-linejoin="round"/>
<path d="M438.754 336.009C438.754 336.009 436.964 331.795 438.754 331.731C440.543 331.668 438.754 336.009 438.754 336.009Z" stroke="#57687E" stroke-width="0.5143" stroke-miterlimit="10" stroke-linecap="round" stroke-linejoin="round"/>
<path d="M438.754 336.055C438.754 336.055 441.654 332.54 442.51 334.141C443.366 335.743 438.754 336.055 438.754 336.055Z" stroke="#57687E" stroke-width="0.5143" stroke-miterlimit="10" stroke-linecap="round" stroke-linejoin="round"/>
<path d="M437.423 195.466C440.576 181.891 443.121 167.164 441.923 153.138C443.636 152.46 444.807 152.106 444.807 152.106L452.604 150.744L451.559 140.181L469.709 139.576L471.012 149.164C471.012 149.164 478.602 151.463 480.648 150.991C483.69 160.182 482.728 165.941 489.99 172.164C489.638 172.336 489.294 172.512 488.936 172.679L492.153 228.643C492.153 228.643 473.342 241.972 438.508 230.065L437.423 195.466Z" fill="#E7A17E"/>
<path d="M517.609 243.121C517.609 243.121 518.924 217.19 515.035 198.952C509.357 172.32 502.788 164.2 499.447 160.61C496.369 157.301 490.918 155.133 487.549 154.038C487.197 168.113 483.199 169.053 487.163 182.406C487.163 182.406 502.151 212.33 505.828 242.666C505.711 243.049 501.508 250.443 502.762 252.459C504.015 254.476 506.334 249.849 506.334 249.849C506.334 249.849 504.468 261.214 506.392 261.237C508.316 261.259 509.57 252.463 509.57 252.463C509.57 252.463 509.286 263.463 511.83 262.744C513.312 262.259 512.589 252.909 512.589 252.909C512.589 252.909 513.959 262.224 515.559 261.807C517.161 261.389 515.472 252.507 515.472 252.507C515.472 252.507 517.398 259.724 519.017 259.179C520.636 258.632 518.771 248.051 517.609 243.121Z" fill="#E7A17E"/>
<path d="M419.117 209.217C419.117 209.217 427.736 206.092 439.294 186.792L418.259 169.881L406.265 194.435L419.117 209.217Z" fill="#E7A17E"/>
<path d="M514.225 179.448C512.743 175.537 510.656 172.074 508.31 168.929C507.807 168.256 507.291 167.599 506.77 166.953C464.253 187.318 430.542 173.592 419.63 167.884C417.92 170.466 416.264 173.202 413.649 177.55C422.553 184.256 458.486 206.519 514.225 179.448Z" fill="#AFA178"/>
<path d="M498.145 157.55C494.176 153.902 489.619 151.283 480.846 149.733C480.846 149.733 474.385 153.001 465.461 152.897C460.923 152.845 455.75 151.922 450.464 149.254C450.464 149.254 450.464 149.254 450.462 149.254C444.289 148.395 435.299 151.856 429.185 156.486C441.626 161.335 470.294 169.672 498.145 157.55Z" fill="#AFA178"/>
<path d="M429.311 226.971C429.34 231.846 429.692 235.4 430.533 236.027C446.644 248.014 496.176 245.175 500.904 232.872C500.933 232.797 500.718 230.477 500.386 227.091C500.354 226.762 500.318 226.411 500.284 226.063C468.854 236.724 443.168 231.664 429.311 226.971Z" fill="#AFA178"/>
<path d="M506.77 166.952C505.407 165.263 503.993 163.658 502.588 162.119C501.849 161.309 501.136 160.536 500.427 159.795C499.671 159.006 498.919 158.26 498.145 157.549C470.294 169.671 441.626 161.334 429.185 156.485C427.282 157.925 425.655 159.478 424.481 161.051C422.454 163.77 421.021 165.78 419.63 167.883C430.543 173.591 464.254 187.317 506.77 166.952Z" fill="#404042"/>
<path d="M429.65 215.684C429.459 219.047 429.337 222.332 429.312 225.25C429.308 225.841 429.308 226.412 429.311 226.971C443.169 231.663 468.854 236.724 500.284 226.062C499.968 222.871 499.57 218.93 499.172 215.035C468.501 225.124 443.419 220.288 429.65 215.684Z" fill="#404042"/>
<path d="M514.225 179.448C458.486 206.52 422.553 184.257 413.649 177.55C413.425 177.923 413.202 178.294 412.963 178.692C412.963 178.692 422.704 193.765 431.481 196.194C432.366 196.438 431.217 198.127 431.088 199.184C431.025 199.699 430.963 200.228 430.902 200.769C444.007 205.047 468.148 209.676 497.667 200.407C497.565 199.426 497.506 198.861 497.506 198.861C498.55 198.704 499.718 198.239 500.949 197.565C506.079 194.757 512.341 188.225 515.672 184.237C515.552 183.691 515.417 183.157 515.273 182.628C514.973 181.532 514.616 180.478 514.225 179.448Z" fill="#404042"/>
<path d="M430.901 200.769C430.509 204.226 430.15 208.173 429.873 212.161C429.791 213.338 429.717 214.516 429.651 215.685C443.419 220.288 468.502 225.124 499.172 215.036C499.129 214.61 499.085 214.184 499.042 213.761C498.751 210.913 498.466 208.149 498.222 205.787C497.989 203.526 497.793 201.638 497.665 200.407C468.147 209.675 444.006 205.047 430.901 200.769Z" fill="#AFA178"/>
<path d="M483.195 150.854C483.142 150.77 483.033 150.744 482.95 150.798C482.887 150.839 476.549 154.846 467.085 155.844C457.961 156.81 451.802 153.035 448.635 150.312C448.541 150.417 448.45 150.517 448.395 150.576C451.262 153.044 456.54 156.36 464.21 156.36C465.145 156.36 466.115 156.311 467.122 156.205C476.673 155.198 483.076 151.145 483.139 151.105C483.222 151.051 483.248 150.939 483.195 150.854Z" fill="#323233"/>
<path d="M497.35 197.643C497.364 197.643 497.378 197.642 497.392 197.638C507.573 195.133 515.245 182.141 515.297 182.035C515.342 181.946 515.307 181.837 515.219 181.792C515.131 181.747 515.025 181.783 514.981 181.872C514.928 181.977 507.327 194.822 497.31 197.287C497.214 197.311 497.155 197.409 497.178 197.505C497.198 197.588 497.27 197.643 497.35 197.643Z" fill="#404042"/>
<path d="M495.458 183.423C495.468 183.423 495.479 183.422 495.49 183.421C495.587 183.403 495.65 183.308 495.633 183.21C492.521 165.902 491.901 155 491.895 154.892C491.889 154.796 491.811 154.721 491.717 154.721C491.714 154.721 491.71 154.721 491.707 154.722C491.609 154.727 491.533 154.813 491.539 154.912C491.545 155.02 492.167 165.942 495.283 183.276C495.299 183.362 495.373 183.423 495.458 183.423Z" fill="#323233"/>
<path d="M431.48 196.394C431.474 196.394 431.467 196.394 431.461 196.394C431.353 196.383 431.273 196.284 431.284 196.173C431.308 195.935 433.679 172.123 437.264 155.974C437.288 155.866 437.39 155.795 437.499 155.823C437.605 155.847 437.673 155.955 437.648 156.063C434.068 172.188 431.7 195.975 431.676 196.215C431.665 196.317 431.581 196.394 431.48 196.394Z" fill="#323233"/>
<path d="M455.196 218.109C455.258 218.109 455.317 218.076 455.35 218.018C455.398 217.931 455.368 217.821 455.284 217.771C447.878 213.466 441.385 207.877 435.983 201.157C435.922 201.079 435.81 201.066 435.734 201.131C435.657 201.194 435.646 201.308 435.709 201.385C441.137 208.14 447.664 213.759 455.107 218.085C455.135 218.101 455.165 218.109 455.196 218.109Z" fill="#323233"/>
<path d="M446.055 223.298C446.099 223.298 446.143 223.281 446.177 223.248C446.248 223.179 446.25 223.064 446.183 222.992C441.78 218.292 438.566 212.494 436.889 206.226C436.863 206.13 436.764 206.072 436.67 206.099C436.576 206.126 436.52 206.225 436.546 206.322C438.239 212.648 441.482 218.498 445.925 223.242C445.961 223.278 446.007 223.298 446.055 223.298Z" fill="#323233"/>
<path d="M452.192 146.583L451.559 140.181L469.709 139.576L470.749 147.231C466.051 147.764 458.967 148.094 452.192 146.583Z" fill="#DD8865"/>
<path d="M489.511 78.5267C488.052 74.0073 484.122 70.5872 479.7 69.053C475.278 67.5187 470.424 67.6946 465.864 68.727C463.01 69.3735 460.063 70.3499 457.23 69.6186C454.066 68.8032 451.786 66.053 448.948 64.4137C445.932 62.6718 442.214 62.2384 438.889 63.2413C437.216 63.7462 435.582 64.6573 434.63 66.1463C433.221 68.3496 433.63 71.3636 434.956 73.619C436.281 75.8745 438.37 77.5386 440.411 79.1483" stroke="#A96856" stroke-width="0.5635" stroke-miterlimit="10"/>
<path d="M431.755 93.069C431.755 93.069 427.646 104.216 427.738 120.456C427.81 133.127 437.816 145.472 453.013 146.387C467.298 147.247 482.099 141.306 486.434 120.884C490.768 100.463 484.371 84.2605 466.172 79.8353C447.974 75.41 435.391 80.3946 431.755 93.069Z" fill="#E7A17E"/>
<path d="M481.386 129.713C481.386 129.713 484.637 115.591 480.924 117.464C477.89 118.994 471.712 129.501 465.416 129.836C459.119 130.17 461.111 123.686 449.721 122.754C442.66 122.176 439.891 127.669 437.709 126.988C433.414 125.648 427.728 115.196 427.728 115.196C427.728 115.196 426.373 122.779 428.486 130.878C432.086 144.682 453.938 152.986 471.131 144.09C479.625 139.694 480.587 133.033 481.386 129.713Z" fill="#895147"/>
<path d="M492.037 80.4825C495.278 82.9021 498.134 85.955 500.43 89.4529C501.208 90.637 501.933 91.9005 502.26 93.3118C502.589 94.7238 502.471 96.3187 501.677 97.4655C500.883 98.6131 499.331 99.146 498.172 98.4388C500.855 103.409 502.668 108.939 503.484 114.632C503.793 116.793 503.957 119.019 503.514 121.14C503.07 123.261 501.943 125.281 500.193 126.274C498.444 127.268 496.052 127.001 494.743 125.344" stroke="#A96856" stroke-width="0.5635" stroke-miterlimit="10"/>
<path d="M487.302 116.658C487.302 116.658 480.297 112.814 480.563 102.22C480.563 102.22 474.075 99.4899 472.265 92.666C472.265 92.666 445.306 99.167 437.217 89.7975C437.217 89.7975 423.268 93.3001 422.466 85.3979C421.665 77.4958 427.647 73.9224 435.123 73.083C435.123 73.083 431.837 67.5895 439.22 64.4207C446.602 61.2519 452.708 69.5874 463.267 69.0008C473.825 68.4134 487.699 71.8709 489.691 78.9997C489.691 78.9997 486.515 72.645 490.314 71.2142C494.112 69.7835 490.937 81.1298 490.937 81.1298C490.937 81.1298 492.73 74.8949 496.592 75.501C500.454 76.1071 492.84 81.2854 492.84 81.2854C492.84 81.2854 506.008 96.3942 499.018 99.4984C499.018 99.4984 505.365 119.922 497.572 126.703C497.572 126.703 493.504 137.007 485.18 136.386C481.62 139.523 477.153 138.693 479.676 133.285C479.676 133.285 479.968 127.795 483.12 125.456C483.12 125.456 482.534 121.615 487.302 116.658Z" fill="#895147"/>
<path d="M453.444 85.4983C453.539 85.4018 453.599 85.3497 453.599 85.3497C453.599 85.3497 453.543 85.4049 453.444 85.4983Z" fill="#332D40"/>
<path d="M479.991 129.279L483.261 117.362C483.261 117.362 493.948 113.334 494.568 124.519C495.189 135.704 483.648 136.339 479.991 129.279Z" fill="#E7A17E"/>
<path d="M472.062 108.655C472.062 108.655 474.48 105.808 469.314 102.298C464.148 98.7873 462.344 99.577 461.519 101.352C460.768 102.971 461.959 105.386 464.891 107.281C468.41 109.555 470.749 110.291 472.062 108.655Z" fill="#895147"/>
<path d="M430.917 105.157C430.917 105.157 429.052 101.908 434.761 99.4183C440.47 96.9287 442.102 98.0412 442.594 99.9403C443.042 101.673 441.436 103.824 438.214 105.141C434.345 106.722 431.913 107.009 430.917 105.157Z" fill="#895147"/>
<path d="M460.705 117.995C460.714 119.634 461.792 120.956 463.112 120.948C464.433 120.94 465.495 119.606 465.486 117.967C465.477 116.328 464.399 115.006 463.079 115.013C461.759 115.023 460.696 116.357 460.705 117.995Z" fill="black"/>
<path d="M435.231 115.589C435.239 117.115 436.243 118.345 437.472 118.338C438.701 118.331 439.69 117.088 439.681 115.563C439.673 114.037 438.67 112.807 437.44 112.814C436.211 112.822 435.223 114.063 435.231 115.589Z" fill="black"/>
<path d="M483.75 129.906C483.781 129.906 483.811 129.899 483.841 129.885C483.951 129.833 484 129.7 483.949 129.588C483.924 129.533 481.545 124.169 485.216 121.645C486.505 120.758 487.78 120.443 489.009 120.707C491.128 121.163 492.413 123.213 492.426 123.234C492.491 123.339 492.626 123.37 492.73 123.304C492.833 123.239 492.864 123.101 492.8 122.996C492.744 122.905 491.407 120.766 489.104 120.269C487.754 119.979 486.363 120.315 484.97 121.274C480.987 124.012 483.523 129.719 483.549 129.777C483.587 129.858 483.667 129.906 483.75 129.906Z" fill="#634927"/>
<path d="M489.149 125.488C489.217 125.488 489.282 125.456 489.326 125.396C489.398 125.297 489.377 125.156 489.279 125.083C489.242 125.055 485.532 122.331 482.806 125.142C482.72 125.23 482.721 125.372 482.808 125.46C482.894 125.547 483.034 125.546 483.119 125.458C485.579 122.921 488.983 125.42 489.017 125.445C489.058 125.474 489.104 125.488 489.149 125.488Z" fill="#634927"/>
<path d="M447.354 121.661C447.437 121.661 447.518 121.612 447.554 121.528C447.603 121.415 447.554 121.282 447.443 121.232C447.425 121.223 445.658 120.403 444.869 118.803C444.248 117.546 444.429 115.651 445.245 114.827C445.737 114.333 446.405 114.287 447.184 114.696C447.208 114.709 447.247 114.732 447.299 114.762C450.018 116.348 451.237 115.621 451.78 114.732C452.777 113.098 451.833 100.253 451.723 98.7943C451.713 98.6706 451.605 98.5804 451.486 98.5882C451.364 98.5975 451.274 98.7056 451.283 98.8293C451.582 102.754 452.185 113.218 451.406 114.495C450.765 115.545 449.457 115.507 447.518 114.374C447.458 114.34 447.413 114.313 447.385 114.298C446.436 113.801 445.565 113.875 444.935 114.509C443.983 115.47 443.767 117.571 444.475 119.004C445.336 120.75 447.184 121.606 447.263 121.642C447.292 121.655 447.323 121.661 447.354 121.661Z" fill="#634927"/>
<path d="M445.363 130.411C444.698 129.579 444.421 128.738 444.421 128.738C448.1 126.069 452.869 124.795 452.869 124.795C452.869 124.795 453.206 125.713 453.288 126.895C451.295 127.348 448.268 128.333 445.363 130.411Z" fill="black"/>
<path d="M453.288 126.895C453.398 128.484 453.046 130.55 450.78 131.523C447.985 132.724 446.294 131.576 445.364 130.411C448.268 128.333 451.295 127.348 453.288 126.895Z" fill="#9B4964"/>
<path d="M385.622 149.972C384.255 146.061 383.886 141.794 384.561 137.701" stroke="#747761" stroke-miterlimit="10"/>
<path d="M385.508 136.614C385.508 136.614 402.821 132.86 427.952 131.485L427.726 136.446L386.773 139.551L385.508 136.614Z" fill="#C4B4AB"/>
<path d="M402.362 123.953C403.505 122.193 405.598 121.551 407.037 122.52C408.476 123.489 408.716 125.701 407.574 127.461C406.431 129.221 403.273 130.842 401.833 129.873C400.394 128.904 401.22 125.712 402.362 123.953Z" fill="#666853"/>
<path d="M406.896 147.341C404.757 147.225 402.934 145.545 402.029 143.567C401.124 141.591 400.972 139.351 400.917 137.17C400.742 130.28 401.374 123.369 402.798 116.631" stroke="#747761" stroke-miterlimit="10"/>
<path d="M398.104 118.753C398.125 116.234 399.812 114.207 401.872 114.225C403.931 114.243 405.583 116.3 405.562 118.819C405.54 121.338 403.41 125.051 401.351 125.032C399.292 125.014 398.082 121.272 398.104 118.753Z" fill="#747761"/>
<path d="M392.047 130.18C390.434 128.271 390.392 125.614 391.953 124.246C393.514 122.878 396.087 123.317 397.701 125.226C399.315 127.135 400.114 131.358 398.553 132.725C396.992 134.094 393.661 132.09 392.047 130.18Z" fill="#747761"/>
<path d="M401.29 134.291C399.915 133.695 398.553 133.039 397.347 132.139C396.142 131.238 395.092 130.078 394.503 128.679" stroke="#747761" stroke-miterlimit="10"/>
<path d="M427.677 134.922L386.773 139.551L388.926 150.301C402.031 147.706 415.551 145.327 427.844 140.096L427.677 134.922Z" fill="#C4B4AB"/>
<path d="M388.926 150.301L389.833 154.826C391.746 164.375 399.964 167.781 409.519 167.218C409.673 167.209 409.828 167.199 409.984 167.189C420.338 166.515 428.515 160.8 428.172 150.241L427.844 140.097C415.551 145.327 402.031 147.707 388.926 150.301Z" fill="#E7D7CC"/>
<path d="M396.644 136.396C395.36 135.198 392.916 133.667 389.587 134.922C384.52 136.833 383.796 141.566 382.59 148.167" stroke="#747761" stroke-miterlimit="10"/>
<path d="M385.508 136.614L386.309 143.276C386.309 143.276 404.093 145.515 428.81 138.624L427.951 131.485C427.951 131.485 414.541 136.77 385.508 136.614Z" fill="#E7D7CC"/>
<path d="M382.189 143.347C379.373 144.907 376.055 144.236 374.779 141.847C373.503 139.459 374.753 136.257 377.57 134.697C380.386 133.138 385.859 133.26 387.135 135.648C388.411 138.037 385.007 141.787 382.189 143.347Z" fill="#747761"/>
<path d="M396.306 142.378C397.557 145.385 396.578 148.682 394.119 149.742C391.661 150.803 388.654 149.225 387.403 146.218C386.152 143.211 386.804 137.676 389.263 136.616C391.72 135.556 395.055 139.372 396.306 142.378Z" fill="#747761"/>
<path d="M408.369 143.01C407.87 145.956 405.511 148 403.102 147.576C400.694 147.152 399.146 144.421 399.646 141.475C400.146 138.528 403.341 134.596 405.75 135.02C408.159 135.444 408.869 140.063 408.369 143.01Z" fill="#747761"/>
<path d="M390.022 152.615C391.063 155.139 390.232 157.901 388.168 158.784C386.103 159.666 383.587 158.334 382.546 155.809C381.506 153.285 382.068 148.646 384.132 147.764C386.197 146.882 388.981 150.09 390.022 152.615Z" fill="#666853"/>
<path d="M384.56 152.318C383.812 155.154 381.326 156.94 379.007 156.306C376.687 155.672 375.413 152.858 376.161 150.022C376.909 147.185 380.379 143.629 382.698 144.263C385.018 144.897 385.308 149.481 384.56 152.318Z" fill="#747761"/>
<path d="M388.12 135.501C389.266 136.671 390.089 138.166 390.471 139.772" stroke="#747761" stroke-miterlimit="10"/>
<path d="M387.411 131.294C388.166 131.09 388.938 131.483 389.623 131.863C390.946 132.599 392.319 133.378 393.18 134.639" stroke="#747761" stroke-miterlimit="10"/>
<path d="M383.656 134.159C381.05 133.504 379.371 131.181 379.907 128.971C380.442 126.762 382.989 125.502 385.596 126.157C388.202 126.812 391.517 130.034 390.982 132.244C390.446 134.454 386.262 134.815 383.656 134.159Z" fill="#666853"/>
<path d="M416.967 133.995C419.478 134.963 420.872 137.473 420.081 139.602C419.289 141.731 416.612 142.672 414.102 141.704C411.591 140.736 408.678 137.133 409.47 135.005C410.261 132.876 414.457 133.027 416.967 133.995Z" fill="#666853"/>
<path d="M419.088 154.883C418.738 156.962 417.076 158.408 415.375 158.111C413.675 157.813 412.58 155.887 412.931 153.807C413.28 151.728 415.532 148.95 417.232 149.246C418.933 149.543 419.438 152.803 419.088 154.883Z" fill="#666853"/>
<path d="M405.691 135.332C407.695 134.561 410.027 135.352 411.638 136.79C413.248 138.229 414.272 140.217 415.185 142.19C418.07 148.425 420.223 155.011 421.585 161.763" stroke="#747761" stroke-miterlimit="10"/>
<path d="M416.008 145.292C415.826 147.804 414.014 149.716 411.96 149.563C409.906 149.409 408.388 147.247 408.57 144.735C408.751 142.223 411.112 138.658 413.167 138.812C415.22 138.966 416.189 142.78 416.008 145.292Z" fill="#747761"/>
<path d="M425.042 157.895C426.019 160.21 425.276 162.757 423.384 163.585C421.491 164.412 419.166 163.207 418.189 160.893C417.213 158.578 417.695 154.306 419.587 153.478C421.48 152.651 424.066 155.581 425.042 157.895Z" fill="#747761"/>
<path d="M426.068 144.953C428.3 146.039 429.389 148.454 428.502 150.346C427.613 152.238 425.084 152.892 422.852 151.806C420.62 150.72 418.219 147.183 419.107 145.29C419.995 143.398 423.836 143.866 426.068 144.953Z" fill="#747761"/>
<path d="M415.982 144.979C417.476 144.96 418.984 145.003 420.443 145.333C421.902 145.663 423.323 146.294 424.415 147.334" stroke="#747761" stroke-miterlimit="10"/>
<path d="M403.665 131.641C402.65 129.608 403.176 127.261 404.838 126.4C406.501 125.54 408.673 126.49 409.687 128.524C410.703 130.558 410.512 134.448 408.849 135.308C407.187 136.169 404.681 133.675 403.665 131.641Z" fill="#747761"/>
<path d="M420.096 122.708C422.762 122.387 425.136 123.96 425.398 126.22C425.661 128.48 423.712 130.573 421.046 130.895C418.38 131.216 414.164 129.388 413.902 127.128C413.639 124.867 417.431 123.029 420.096 122.708Z" fill="#666853"/>
<path d="M430.282 139.502C430.914 141.512 430.094 143.575 428.45 144.111C426.807 144.647 424.964 143.452 424.332 141.443C423.7 139.433 424.438 135.91 426.081 135.375C427.724 134.839 429.65 137.493 430.282 139.502Z" fill="#666853"/>
<path d="M410.698 129.193C412.127 127.567 414.554 127.173 416.634 127.692C418.715 128.211 420.524 129.495 422.228 130.817C427.613 134.993 432.507 139.823 436.775 145.173" stroke="#747761" stroke-miterlimit="10"/>
<path d="M424.364 133.182C425.341 135.496 424.6 138.044 422.707 138.872C420.815 139.701 418.489 138.496 417.512 136.183C416.534 133.869 417.014 129.597 418.906 128.768C420.798 127.939 423.387 130.867 424.364 133.182Z" fill="#747761"/>
<path d="M438.091 140.118C440.005 141.713 440.501 144.321 439.197 145.945C437.893 147.569 435.284 147.592 433.368 145.998C431.454 144.403 429.945 140.387 431.249 138.763C432.553 137.139 436.175 138.523 438.091 140.118Z" fill="#747761"/>
<path d="M433.135 128.153C435.608 128.068 437.668 129.698 437.738 131.794C437.807 133.89 435.86 135.658 433.387 135.744C430.914 135.829 427.181 133.819 427.112 131.723C427.042 129.627 430.663 128.239 433.135 128.153Z" fill="#747761"/>
<path d="M424.2 132.916C425.517 132.197 426.874 131.527 428.317 131.134C429.761 130.741 431.308 130.635 432.748 131.043" stroke="#747761" stroke-miterlimit="10"/>
<path d="M424.481 195.421C422.244 185.552 418.211 172.609 416.508 167.277L416.507 167.275C416.012 165.727 416.012 165.727 416.012 165.727L415.045 164.917C411.684 161.816 404.6 163.193 404.6 163.193C404.6 163.193 401.579 156.863 400.661 157.045C399.229 157.329 399.991 160.018 400.727 161.924C399.733 159.73 398.111 156.516 397.426 157.242C396.405 158.324 398.7 163.368 398.7 163.368C398.7 163.368 396.137 157.992 394.981 157.829C393.886 157.675 393.384 158.202 395.692 162.87C394.48 161.183 393.836 159.24 393.359 158.907C392.534 158.328 390.543 159.713 394.106 164.473C396.094 167.13 399.762 168.361 402.618 168.931C402.64 175.994 403.144 198.568 408.552 206.091C413.789 213.376 427.793 210.027 424.481 195.421Z" fill="#E7A17E"/>
<path d="M424.481 195.421C422.245 185.552 418.211 172.609 416.508 167.277L416.507 167.275C415.401 163.82 410.832 163.091 410.832 163.091" stroke="#DD8865" stroke-width="0.516" stroke-miterlimit="10" stroke-linecap="round" stroke-linejoin="round"/>
</svg>
