<svg width="160" height="113" viewBox="0 0 160 113" fill="none" xmlns="http://www.w3.org/2000/svg">
<path d="M40.905 20.5981C40.905 42.9481 40.905 43.1604 41.9185 47.2482C43.638 54.3443 47.1674 60.4847 52.4706 65.652C59.8009 72.7834 69.5927 76.8004 79.7104 76.8004C84.6335 76.8004 88.6516 76.1811 92.905 74.7477C107.095 69.9875 117.249 57.8127 119.186 43.302C119.421 41.5324 119.457 38.064 119.457 20.5981V-4.41613e-06H80.181H40.905V20.5981ZM78.914 19.8195V37.1615H61.1765H43.4389V19.8195V2.47743H61.1765H78.914V19.8195ZM84.3439 19.8195V37.1615H82.8959H81.448V19.8195V2.47743H82.8959H84.3439V19.8195ZM89.7737 19.8195V37.1615H88.3258H86.8778V19.8195V2.47743H88.3258H89.7737V19.8195ZM95.2036 19.8195V37.1615H93.7556H92.3077V19.8195V2.47743H93.7556H95.2036V19.8195ZM100.633 19.8195V37.1615H99.1855H97.7375V19.8195V2.47743H99.1855H100.633V19.8195ZM106.063 19.8195V37.1615H104.615H103.167V19.8195V2.47743H104.615H106.063V19.8195ZM111.493 19.8195V37.1615H110.045H108.597V19.8195V2.47743H110.045H111.493V19.8195ZM116.923 19.8195V37.1615H115.475H114.027V19.8195V2.47743H115.475H116.923V19.8195ZM78.733 56.981V74.146H78.2081C77.9004 74.146 76.724 74.0222 75.5656 73.8806C67.3303 72.8188 60.0362 69.315 54.2805 63.6523C48.5249 58.0073 44.9593 50.8935 43.8914 42.9304C43.7466 41.7978 43.6199 40.6299 43.6199 40.3291V39.8159H61.1765H78.733V56.981ZM116.742 40.3291C116.742 41.4439 116.163 45.107 115.728 46.8943C114.462 51.9022 111.928 56.9102 108.633 60.8918C107.041 62.8206 103.511 66.0767 101.575 67.4216C96.0543 71.2262 89.7194 73.4913 83.0407 74.0752L81.629 74.1814V56.9986V39.8159H99.1855H116.742V40.3291Z" fill="#476268"/>
<path d="M116.742 40.3291C116.742 41.4439 116.163 45.107 115.728 46.8943C114.462 51.9022 111.928 56.9102 108.633 60.8918C107.041 62.8206 103.511 66.0767 101.575 67.4216C96.0543 71.2262 89.7194 73.4913 83.0407 74.0752L81.629 74.1814V56.9986V39.8159H99.1855H116.742V40.3291Z" fill="#40A798"/>
<path d="M78.733 56.981V74.146H78.2081C77.9004 74.146 76.724 74.0222 75.5656 73.8806C67.3303 72.8188 60.0362 69.315 54.2805 63.6523C48.5249 58.0073 44.9593 50.8935 43.8914 42.9304C43.7466 41.7978 43.6199 40.6299 43.6199 40.3291V39.8159H61.1765H78.733V56.981Z" fill="#40A798"/>
<path d="M52.4886 6.45902V7.60925H53.6651H54.8416V6.45902V5.30878H53.6651H52.4886V6.45902Z" fill="#476268"/>
<path d="M57.5565 6.45902V7.60925H58.733H59.9095V6.45902V5.30878H58.733H57.5565V6.45902Z" fill="#476268"/>
<path d="M62.4435 6.45902V7.60925H63.62H64.7964V6.45902V5.30878H63.62H62.4435V6.45902Z" fill="#476268"/>
<path d="M67.5114 6.45902V7.60925H68.6878H69.8643V6.45902V5.30878H68.6878H67.5114V6.45902Z" fill="#476268"/>
<path d="M50.1357 19.9079V30.7909H61.267H72.3982V19.9079V9.02488H61.267H50.1357V19.9079ZM55.5475 11.7854C56.5973 12.6349 56.3982 14.1744 55.1855 14.7938C53.9366 15.4131 52.4887 14.4752 52.4887 13.0596C52.4887 11.52 54.2986 10.7591 55.5475 11.7854ZM69.3756 25.3051C70.0814 26.0661 70.0633 27.0924 69.3394 27.8003C67.8733 29.2337 65.3756 27.4818 66.3167 25.6768C66.9502 24.4911 68.4525 24.3142 69.3756 25.3051Z" fill="#476268"/>
<path d="M46.3349 12.4757V13.626H47.5114H48.6878V12.4757V11.3255H47.5114H46.3349V12.4757Z" fill="#476268"/>
<path d="M73.6652 12.4757V13.626H74.8416H76.0181V12.4757V11.3255H74.8416H73.6652V12.4757Z" fill="#476268"/>
<path d="M46.3349 17.4306V18.5808H47.5114H48.6878V17.4306V16.2803H47.5114H46.3349V17.4306Z" fill="#476268"/>
<path d="M73.6652 17.4306V18.5808H74.8416H76.0181V17.4306V16.2803H74.8416H73.6652V17.4306Z" fill="#476268"/>
<path d="M46.3349 22.2084V23.3586H47.5114H48.6878V22.2084V21.0582H47.5114H46.3349V22.2084Z" fill="#476268"/>
<path d="M73.6652 22.2084V23.3586H74.8416H76.0181V22.2084V21.0582H74.8416H73.6652V22.2084Z" fill="#476268"/>
<path d="M46.3349 27.1632V28.3135H47.5114H48.6878V27.1632V26.013H47.5114H46.3349V27.1632Z" fill="#476268"/>
<path d="M73.6652 27.1632V28.3135H74.8416H76.0181V27.1632V26.013H74.8416H73.6652V27.1632Z" fill="#476268"/>
<path d="M52.4886 33.1798V34.3301H53.6651H54.8416V33.1798V32.0296H53.6651H52.4886V33.1798Z" fill="#476268"/>
<path d="M57.5565 33.1798V34.3301H58.733H59.9095V33.1798V32.0296H58.733H57.5565V33.1798Z" fill="#476268"/>
<path d="M62.4435 33.1798V34.3301H63.62H64.7964V33.1798V32.0296H63.62H62.4435V33.1798Z" fill="#476268"/>
<path d="M67.5114 33.1798V34.3301H68.6878H69.8643V33.1798V32.0296H68.6878H67.5114V33.1798Z" fill="#476268"/>
<path d="M113.376 95.0449C112.652 95.2395 112.217 95.7173 112.109 96.4605C111.91 97.6992 112.706 98.6017 114.009 98.6371C115.294 98.6548 116.091 97.9293 116.054 96.7614C116.018 95.3988 114.824 94.6202 113.376 95.0449Z" fill="#476268"/>
<path d="M67.3846 97.3276V98.5663H69.1765H70.9502V104.017C70.9502 108.352 71.0045 109.662 71.2217 110.37C71.7828 112.192 72.9231 112.953 75.1131 112.953C76.4163 112.953 77.629 112.723 78.1719 112.387C78.371 112.263 78.3529 112.068 78.0633 111.201L77.7014 110.157L76.4344 110.21C75.3122 110.263 75.095 110.228 74.7692 109.909C74.3891 109.538 74.3891 109.414 74.3891 102.813V96.0889H70.8778H67.3665L67.3846 97.3276Z" fill="#476268"/>
<path d="M45.1584 97.1507C42.009 97.5931 40.1629 99.8051 40.724 102.389C41.1041 104.105 42.2443 105.008 45.5384 106.176C48.2896 107.149 48.9774 107.963 48.2172 109.379C47.4932 110.777 44.3982 110.794 42.2805 109.414L41.5746 108.972L40.7059 109.91C39.9095 110.794 39.8733 110.883 40.1448 111.184C40.3077 111.361 41.0136 111.768 41.7013 112.104C44.6697 113.502 48.7059 113.236 50.7149 111.502C51.7104 110.653 52.1267 109.662 52.1267 108.175C52.1267 106.724 51.8371 105.91 51.0045 105.096C50.4615 104.583 48.0905 103.344 47.6018 103.344C47.1855 103.344 45.1584 102.442 44.7602 102.07C44.181 101.539 44.1991 100.708 44.7964 100.159C45.6832 99.345 48.2534 99.4866 49.647 100.407L50.2986 100.849L51.1312 99.8936L51.9457 98.938L51.3484 98.4956C50.4434 97.8055 49.2308 97.3454 47.8552 97.1507C46.4796 96.9561 46.4434 96.9561 45.1584 97.1507Z" fill="#476268"/>
<path d="M0 105.025V112.776L3.04072 112.67C5.10407 112.617 6.37104 112.493 7.04072 112.281C10.1538 111.343 11.5837 109.007 11.5837 104.919C11.5837 101.84 10.7692 99.8404 9.08597 98.7432C7.60181 97.7877 6.22624 97.4868 2.95023 97.3806L0 97.2745V105.025ZM5.52036 99.9996C6.42534 100.247 7.33032 101.132 7.58371 102.017C7.9276 103.185 8.0362 105.485 7.80091 106.795C7.38462 109.078 6.53394 109.998 4.61538 110.193L3.61991 110.299V105.043V99.805H4.21719C4.52489 99.805 5.12217 99.8935 5.52036 99.9996Z" fill="#476268"/>
<path d="M99.5475 98.1417C99.4027 98.1594 98.8959 98.2478 98.4253 98.3009L97.5566 98.4071V99.6458V100.867H96.3801H95.2036V102.106V103.344H96.362H97.5023L97.5928 106.689C97.6652 109.821 97.7014 110.086 98.1176 110.9C98.6968 111.98 99.6923 112.67 101.05 112.918C102.317 113.13 104 112.918 105.249 112.387L106.081 112.033L105.52 110.954C105.068 110.086 104.887 109.892 104.652 109.998C104.09 110.228 102.136 110.299 101.756 110.086C101.176 109.786 100.995 108.812 100.995 105.946V103.344H102.787H104.579L104.706 102.406C104.76 101.911 104.869 101.345 104.905 101.168C104.995 100.902 104.814 100.867 103.005 100.867H100.995V99.4512V98.0355L100.416 98.0532C100.09 98.0709 99.6923 98.1063 99.5475 98.1417Z" fill="#476268"/>
<path d="M17.9729 100.69C15.0046 101.292 13.1403 104.105 13.448 107.521C13.6652 109.733 14.7693 111.52 16.4525 112.352C18.4978 113.378 21.8462 113.13 23.7285 111.838L24.2534 111.467L23.6018 110.529L22.9322 109.609L22.0996 110.016C20.1448 110.971 18.1177 110.617 17.3937 109.202C17.1765 108.812 17.0136 108.335 17.0136 108.14C17.0136 107.786 17.1403 107.768 20.8688 107.733L24.7059 107.68L24.6697 106.264C24.6154 102.884 22.8417 100.92 19.638 100.619C19.1494 100.566 18.3892 100.601 17.9729 100.69ZM20.4344 103.097C20.9412 103.45 21.3575 104.371 21.3575 105.114V105.645H19.077H16.7964L16.9231 105.061C17.1403 104.105 17.5747 103.344 18.0815 103.079C18.715 102.743 19.9095 102.743 20.4344 103.097Z" fill="#476268"/>
<path d="M58.5159 100.69C56.8326 101.026 55.3666 102.194 54.6245 103.787C54.2625 104.565 54.2082 104.954 54.2082 106.883C54.2082 108.936 54.2444 109.166 54.715 110.104C55.6924 112.033 57.4118 112.988 59.9095 112.953C62.3711 112.935 63.8553 112.068 64.8326 110.104C65.4118 108.971 65.4299 108.848 65.4299 106.795C65.4299 104.866 65.3937 104.583 64.9593 103.698C64.362 102.477 63.5114 101.628 62.353 101.114C61.3213 100.654 59.62 100.477 58.5159 100.69ZM61.1041 103.539C61.3394 103.751 61.629 104.211 61.7376 104.565C61.991 105.291 62.0453 107.715 61.8462 108.688C61.3756 110.883 58.7693 111.237 57.9729 109.219C57.5204 108.051 57.5204 105.291 57.991 104.282C58.5702 103.008 60.1267 102.636 61.1041 103.539Z" fill="#476268"/>
<path d="M126.389 100.69C124.706 101.026 123.24 102.194 122.498 103.787C122.136 104.565 122.081 104.954 122.081 106.883C122.081 108.936 122.118 109.166 122.588 110.104C123.566 112.033 125.285 112.988 127.783 112.953C130.244 112.935 131.729 112.068 132.706 110.104C133.285 108.971 133.303 108.848 133.303 106.795C133.303 104.866 133.267 104.583 132.833 103.698C132.235 102.477 131.385 101.628 130.226 101.114C129.195 100.654 127.493 100.477 126.389 100.69ZM128.977 103.539C129.213 103.751 129.502 104.211 129.611 104.565C129.864 105.291 129.919 107.715 129.719 108.688C129.249 110.883 126.643 111.237 125.846 109.219C125.394 108.051 125.394 105.291 125.864 104.282C126.443 103.008 128 102.636 128.977 103.539Z" fill="#476268"/>
<path d="M142.027 100.708C141.267 100.885 140.597 101.256 139.873 101.893L139.385 102.336L139.258 101.61L139.131 100.867H137.629H136.109V106.795V112.723H137.828H139.547V108.565V104.424L140.163 103.805C141.303 102.707 142.624 102.831 142.878 104.07C142.932 104.371 142.986 106.441 142.986 108.671V112.723H144.706H146.425V108.158C146.425 102.46 146.244 101.681 144.706 100.902C144.145 100.619 142.787 100.513 142.027 100.708Z" fill="#476268"/>
<path d="M152.615 100.831C151.584 101.203 150.715 101.893 150.281 102.689C149.937 103.362 149.937 104.937 150.317 105.645C150.697 106.37 152 107.167 153.575 107.609C155.62 108.211 156.217 108.494 156.398 108.936C156.995 110.511 154.48 111.095 152.054 109.945C151.493 109.679 150.986 109.467 150.932 109.467C150.805 109.449 149.321 111.113 149.321 111.272C149.321 111.502 150.842 112.316 151.855 112.652C153.104 113.042 155.747 113.059 156.977 112.67C158.986 112.051 160 110.83 160 109.078C160 107.167 159.113 106.353 156.127 105.45C155.113 105.149 154.118 104.795 153.9 104.654C153.339 104.317 153.339 103.433 153.882 103.15C154.498 102.831 156.688 103.043 157.629 103.521L158.443 103.91L158.824 103.45C159.023 103.203 159.33 102.76 159.511 102.477C159.819 101.964 159.819 101.946 159.33 101.61C158.299 100.92 157.231 100.637 155.385 100.566C153.937 100.513 153.376 100.566 152.615 100.831Z" fill="#476268"/>
<path d="M81.8099 105.432C81.8099 111.201 81.9909 111.891 83.6199 112.741C84.7783 113.325 87.3484 112.812 88.3982 111.785C88.9231 111.272 89.0498 111.343 89.0498 112.139V112.723H90.5882H92.1267V106.795V100.867H90.4072H88.6878V105.078V109.29L88.1991 109.75C87.6923 110.228 86.8959 110.6 86.4072 110.6C86.2624 110.6 85.9366 110.405 85.7013 110.157L85.2489 109.733V105.291V100.867H83.5294H81.8099V105.432Z" fill="#476268"/>
<path d="M109.502 102.106V103.344H111.131H112.76V106.795V110.246H111.041H109.321V111.485V112.723H114.299H119.276V111.485V110.246H117.738H116.199V105.556V100.867H112.851H109.502V102.106Z" fill="#476268"/>
<path d="M28.6335 106.884L30.6244 112.723H32.6697H34.7149L36.7059 106.884L38.6968 101.044H36.9412H35.2036L34.0452 105.415C33.4117 107.839 32.8326 109.857 32.7783 109.927C32.7059 109.998 32.1448 108.034 31.5113 105.556L30.371 101.044H28.5068H26.6425L28.6335 106.884Z" fill="#476268"/>
</svg>
