<svg width="500" height="500" viewBox="0 0 500 500" fill="none" xmlns="http://www.w3.org/2000/svg">
<path d="M122.756 157.857C123.385 153.29 116.939 149.533 112.096 149.142C109.786 148.956 107.387 149.309 105.199 148.546C100.458 146.894 98.5649 140.769 93.9389 138.818C90.4809 137.359 86.4989 138.658 83.1459 140.345C79.7929 142.032 76.4799 144.156 72.7339 144.396C69.4759 144.604 65.9379 143.396 63.0869 144.988C60.9629 146.174 59.8499 148.622 57.8919 150.066C55.9769 151.479 53.4779 151.778 51.1019 151.907C48.7249 152.036 46.2649 152.06 44.1009 153.051C41.9369 154.042 40.1469 156.33 40.5959 158.667L122.756 157.857Z" fill="#EBEBEB"/>
<path d="M456.289 108.064C456.974 103.084 449.946 98.987 444.665 98.562C442.147 98.359 439.531 98.744 437.145 97.913C431.976 96.111 429.911 89.433 424.867 87.305C421.096 85.715 416.755 87.13 413.099 88.97C409.443 90.81 405.83 93.125 401.746 93.387C398.193 93.614 394.335 92.297 391.227 94.032C388.911 95.325 387.697 97.994 385.563 99.569C383.474 101.109 380.75 101.436 378.159 101.577C375.568 101.718 372.885 101.744 370.525 102.825C368.165 103.905 366.213 106.401 366.703 108.949L456.289 108.064Z" fill="#F5F5F5"/>
<path d="M363.37 162.604C364.055 157.624 357.027 153.527 351.746 153.102C349.228 152.899 346.612 153.284 344.226 152.452C339.057 150.65 336.992 143.972 331.948 141.845C328.177 140.255 323.836 141.67 320.18 143.51C316.524 145.35 312.911 147.665 308.827 147.927C305.274 148.154 301.416 146.837 298.308 148.572C295.992 149.865 294.779 152.534 292.644 154.109C290.555 155.649 287.831 155.976 285.24 156.117C282.649 156.258 279.966 156.284 277.606 157.364C275.246 158.444 273.294 160.94 273.784 163.488L363.37 162.604Z" fill="#F5F5F5"/>
<path d="M305.315 78.063C306.27 71.129 296.483 65.424 289.129 64.832C285.622 64.549 281.98 65.085 278.657 63.928C271.459 61.419 268.584 52.12 261.56 49.157C256.309 46.942 250.264 48.914 245.173 51.476C240.082 54.038 235.052 57.262 229.364 57.626C224.417 57.943 219.045 56.108 214.717 58.525C211.492 60.326 209.802 64.042 206.83 66.235C203.922 68.38 200.128 68.834 196.52 69.031C192.912 69.227 189.176 69.264 185.89 70.768C182.604 72.272 179.886 75.747 180.568 79.295L305.315 78.063Z" fill="#EBEBEB"/>
<path d="M86.3129 326.084C88.9399 324.339 89.9149 320.922 90.0129 317.77C90.1109 314.618 89.5369 311.447 89.9479 308.32C90.2779 305.808 89.8159 303.169 89.6199 300.644C89.2339 295.676 86.3019 294.936 84.1949 290.42C82.1499 286.039 85.2429 284.774 84.1149 282.876C83.5639 281.947 82.0139 282.269 81.0479 282.752C80.0819 283.235 79.3429 284.068 78.6529 284.899C75.2539 288.993 72.3039 293.996 72.7849 299.295C73.0239 301.927 74.0959 304.406 74.6629 306.988C75.5529 311.044 75.2349 315.482 77.3039 319.082C79.2289 322.434 82.8429 324.385 86.2739 326.166" fill="#EBEBEB"/>
<path d="M90.6109 342.026C89.5599 335.122 92.9149 326.677 97.9269 321.814C100.051 319.753 102.638 318.063 104.1 315.489C105.783 312.527 105.727 308.802 107.491 305.888C110.129 301.528 115.864 300.345 120.951 300.048C126.038 299.751 136.75 293.774 135.591 296.645C131.823 307.528 132.631 306.912 119.144 316.896C113.607 320.995 118.675 333.211 103.339 337.952C99.1289 339.254 93.9509 339.159 90.7119 342.147" fill="#EBEBEB"/>
<path d="M93.2139 412.311C93.2699 412.392 93.3219 412.477 93.3669 412.569L93.2139 412.311Z" fill="#455A64"/>
<path d="M72.6359 393.319C80.4909 396.165 87.1569 402.104 91.4199 409.29L93.2139 412.311C92.4489 411.205 90.7559 411.118 89.3589 410.95C86.7649 410.639 84.2829 409.459 82.4039 407.644C81.2199 406.5 80.2609 405.107 78.9049 404.172C77.6919 403.335 76.2439 402.924 74.8979 402.322C71.8529 400.96 69.3359 398.621 66.3339 397.166C63.2569 395.675 59.8129 395.176 56.4979 394.339C53.1829 393.502 49.7979 392.205 47.6079 389.579C55.1089 389.877 64.2009 390.264 72.6359 393.319Z" fill="#EBEBEB"/>
<path d="M60.6219 350.933C63.4799 352.257 65.4589 355.012 68.2699 356.433C70.8049 357.715 73.7569 357.79 76.5169 358.46C83.1319 360.067 91.3209 372.336 95.7729 378.472C93.9819 378.382 90.4239 376.884 87.1279 376.932C83.8319 376.98 79.5049 376.049 76.2259 375.707C65.4789 374.586 60.3179 369.358 52.1809 362.432C47.2849 358.265 41.3999 356.591 38.2999 350.959C45.2319 354.02 53.7479 347.747 60.6219 350.933Z" fill="#EBEBEB"/>
<path d="M90.649 347.931C86.884 336.951 77.003 328.521 66.569 323.437C56.135 318.353 43.667 317.605 32.7 321.406C38.945 329.619 45.285 330.651 55.325 333.028C57.059 333.438 61.3819 332.152 64.5189 334.405C65.7809 335.311 66.068 338.94 73.346 340.287C80.496 341.609 86.594 343.063 90.649 347.931Z" fill="#EBEBEB"/>
<path d="M82.7109 303.035C82.7199 303.035 82.7309 303.156 82.7439 303.392C82.7549 303.654 82.7699 304 82.7879 304.438C82.8029 304.908 82.8209 305.475 82.8429 306.138C82.8919 306.814 82.9469 307.586 83.0089 308.453C83.2939 311.93 83.9379 316.956 85.4049 323.027C86.8159 329.111 89.0399 336.214 91.5049 344.104C93.9809 351.988 96.4509 360.767 98.2419 370.15C101.954 388.915 102.571 406.314 102.124 418.802C101.688 431.316 100.396 438.966 100.396 438.966C100.387 438.965 100.392 438.844 100.409 438.608C100.432 438.346 100.462 438.001 100.5 437.565C100.594 436.618 100.728 435.275 100.898 433.56C101.168 430.077 101.618 425.037 101.756 418.791C102.108 406.319 101.434 388.969 97.7309 370.249C95.9439 360.887 93.4959 352.134 91.0459 344.245C88.6079 336.351 86.4149 329.222 85.0459 323.11C83.6199 317.011 83.0289 311.958 82.8059 308.467C82.7609 307.597 82.7219 306.822 82.6869 306.144C82.6849 305.479 82.6839 304.911 82.6819 304.439C82.6849 304 82.6879 303.654 82.6899 303.391C82.6949 303.155 82.7019 303.034 82.7109 303.035Z" fill="#E0E0E0"/>
<path d="M43.6139 322.785C43.6139 322.767 43.8289 322.756 44.2389 322.753C44.6479 322.756 45.2539 322.736 46.0309 322.778C47.5859 322.827 49.8359 323.001 52.5899 323.421C55.3389 323.853 58.6019 324.522 62.1059 325.679C65.6079 326.82 69.3769 328.406 72.9849 330.69C80.1669 335.308 85.5719 340.95 88.9549 345.359C90.6499 347.57 91.8889 349.455 92.6879 350.79C93.1019 351.449 93.3839 351.984 93.5859 352.34C93.7829 352.699 93.8789 352.892 93.8629 352.901C93.8479 352.91 93.7209 352.735 93.4959 352.394C93.2649 352.056 92.9559 351.539 92.5169 350.899C91.6679 349.601 90.3879 347.756 88.6649 345.586C85.2289 341.261 79.8209 335.705 72.7059 331.13C69.1459 328.876 65.4199 327.291 61.9549 326.135C58.4889 324.963 55.2559 324.261 52.5299 323.785C49.7989 323.321 47.5649 323.092 46.0189 322.981C45.2459 322.909 44.6439 322.896 44.2359 322.859C43.8279 322.827 43.6129 322.803 43.6139 322.785Z" fill="#E0E0E0"/>
<path d="M124.486 305.498C124.491 305.515 124.324 305.585 124.005 305.712C123.632 305.861 123.171 306.046 122.612 306.269C121.415 306.774 119.665 307.501 117.699 308.724C116.731 309.342 115.68 310.089 114.865 311.135C114.063 312.212 113.366 313.509 112.681 314.875C112.009 316.253 111.368 317.735 110.793 319.301C110.186 320.834 109.898 322.593 109.05 324.223C108.212 325.844 107.027 327.205 105.754 328.324C104.481 329.449 103.15 330.392 101.905 331.296C99.393 333.084 97.265 334.85 95.603 336.476C93.97 338.127 92.738 339.556 91.937 340.581C91.562 341.053 91.254 341.442 91.004 341.757C90.786 342.023 90.664 342.158 90.649 342.147C90.634 342.137 90.727 341.982 90.918 341.696C91.148 341.364 91.431 340.955 91.775 340.458C92.53 339.39 93.726 337.915 95.341 336.216C96.982 334.542 99.118 332.722 101.62 330.909C104.07 329.079 106.972 327.132 108.586 323.985C109.397 322.438 109.682 320.714 110.314 319.124C110.903 317.541 111.559 316.05 112.251 314.661C112.959 313.279 113.67 311.985 114.521 310.872C115.415 309.76 116.505 309.022 117.505 308.409C119.532 307.205 121.313 306.529 122.539 306.078C123.156 305.86 123.639 305.704 123.971 305.611C124.302 305.517 124.481 305.481 124.486 305.498Z" fill="#E0E0E0"/>
<path d="M53.0079 356.31C53.0179 356.295 53.1829 356.388 53.4889 356.578C53.8399 356.804 54.2769 357.085 54.8109 357.427C55.9549 358.169 57.5979 359.263 59.6769 360.527C61.7579 361.785 64.2889 363.208 67.2629 364.408C70.2369 365.616 73.6509 366.565 77.1899 367.749C84.3539 370.034 90.0169 373.981 93.8699 376.932C95.8089 378.418 97.3299 379.678 98.3759 380.554C98.8579 380.967 99.2519 381.304 99.5699 381.576C99.8389 381.814 99.9749 381.946 99.9639 381.96C99.9529 381.974 99.7949 381.869 99.5049 381.657C99.1719 381.406 98.7569 381.093 98.2509 380.711C97.1659 379.884 95.6119 378.669 93.6509 377.225C89.7449 374.353 84.1189 370.503 77.0249 368.241C73.5079 367.064 70.0809 366.096 67.0839 364.851C64.0829 363.611 61.5499 362.142 59.4849 360.838C57.4209 359.528 55.8079 358.386 54.6979 357.592C54.1869 357.217 53.7679 356.909 53.4309 356.662C53.1429 356.446 52.9979 356.325 53.0079 356.31Z" fill="#E0E0E0"/>
<path d="M101.669 375.533C106.649 370.211 105.386 360.897 110.726 355.937C114.049 352.85 119.11 352.31 122.575 349.384C124.838 347.474 126.222 344.709 128.376 342.678C132.436 338.852 138.465 338.223 144.026 337.791C143.136 348.514 136.077 358.506 126.267 362.927C123.91 363.989 121.331 364.806 119.532 366.663C118.279 367.956 117.52 369.648 116.375 371.038C114.614 373.177 112.016 374.495 109.335 375.192C106.654 375.889 103.863 376.019 101.095 376.144" fill="#EBEBEB"/>
<path d="M133.905 344.534C133.922 344.541 133.864 344.7 133.739 344.998C133.613 345.295 133.435 345.739 133.122 346.269C132.537 347.347 131.506 348.824 129.942 350.372C128.395 351.938 126.31 353.534 123.943 355.188C121.57 356.84 118.95 358.611 116.39 360.728C111.249 364.942 107.132 369.366 104.214 372.6C102.813 374.191 101.659 375.501 100.8 376.478C100.429 376.898 100.122 377.245 99.8689 377.532C99.6519 377.769 99.5309 377.889 99.5169 377.877C99.5029 377.865 99.5969 377.724 99.7879 377.465C100.021 377.162 100.303 376.793 100.644 376.348C101.402 375.39 102.514 374.015 103.938 372.357C106.792 369.054 110.884 364.569 116.061 360.326C118.638 358.194 121.292 356.418 123.67 354.795C126.046 353.167 128.128 351.619 129.686 350.109C131.26 348.616 132.316 347.2 132.948 346.166C133.592 345.137 133.852 344.509 133.905 344.534Z" fill="#E0E0E0"/>
<path d="M107.428 403.118C107.578 399.171 108.826 395.018 112.108 392.895C113.517 391.984 115.166 391.431 116.417 390.313C117.637 389.223 118.361 387.701 119.277 386.346C121.924 382.425 126.148 379.912 130.233 377.526C131.845 376.585 133.457 375.643 135.069 374.702C135.56 374.415 136.112 374.118 136.667 374.242C137.202 374.362 137.587 374.862 137.729 375.391C137.871 375.921 137.814 376.481 137.749 377.026C137.359 380.304 136.725 383.553 135.853 386.736C135.099 389.49 134.104 392.3 132.081 394.314C129.824 396.561 126.617 397.507 123.872 399.122C121.544 400.493 119.491 402.382 116.95 403.301C114 404.367 110.536 403.546 107.428 403.118Z" fill="#EBEBEB"/>
<path d="M131.421 382.952C131.449 382.973 131.157 383.424 130.6 384.22C130.043 385.015 129.222 386.156 128.164 387.535C126.035 390.258 122.985 394.079 118.568 397.136C116.319 398.6 114.025 399.663 111.98 400.7C109.927 401.719 108.096 402.665 106.607 403.539C105.119 404.414 103.961 405.201 103.22 405.817C102.468 406.419 102.089 406.801 102.053 406.767C102.04 406.755 102.123 406.649 102.295 406.458C102.472 406.273 102.714 405.976 103.088 405.662C103.799 404.99 104.939 404.146 106.416 403.223C107.894 402.3 109.72 401.314 111.763 400.271C113.795 399.212 116.086 398.131 118.278 396.702C122.603 393.711 125.682 389.961 127.875 387.305C128.911 386.008 129.773 384.929 130.437 384.097C131.044 383.341 131.392 382.931 131.421 382.952Z" fill="#E0E0E0"/>
<path d="M73.6879 396.842C73.7049 396.81 74.2149 397.048 75.1269 397.507C76.0429 397.955 77.3309 398.681 78.8819 399.644C80.4379 400.6 82.2229 401.846 84.1299 403.328C86.0199 404.832 88.0209 406.583 89.9839 408.565C91.9329 410.562 93.6499 412.594 95.1209 414.509C96.5699 416.442 97.7859 418.248 98.7139 419.82C99.6499 421.387 100.353 422.687 100.785 423.611C101.228 424.53 101.457 425.045 101.424 425.061C101.392 425.077 101.101 424.593 100.605 423.706C100.119 422.814 99.3699 421.547 98.3999 420.014C97.4369 418.476 96.1979 416.704 94.7389 414.801C93.2579 412.916 91.5439 410.91 89.6109 408.929C87.6649 406.963 85.6889 405.215 83.8299 403.702C81.9529 402.211 80.2029 400.942 78.6819 399.952C77.1659 398.955 75.9119 398.185 75.0289 397.683C74.1509 397.173 73.6719 396.874 73.6879 396.842Z" fill="#E0E0E0"/>
<path d="M381.358 365.047C379.645 363.858 379.009 361.53 378.945 359.382C378.881 357.234 379.255 355.073 378.987 352.942C378.772 351.231 379.073 349.432 379.201 347.712C379.453 344.327 381.365 343.823 382.739 340.746C384.072 337.761 382.056 336.899 382.791 335.605C383.151 334.972 384.161 335.191 384.791 335.521C385.421 335.85 385.903 336.417 386.353 336.984C388.569 339.773 390.493 343.183 390.18 346.793C390.024 348.587 389.325 350.275 388.955 352.035C388.375 354.799 388.582 357.823 387.233 360.276C385.978 362.56 383.621 363.889 381.384 365.103" fill="#EBEBEB"/>
<path d="M378.555 375.91C379.24 371.206 377.052 365.451 373.784 362.138C372.399 360.734 370.712 359.582 369.759 357.828C368.662 355.81 368.698 353.272 367.548 351.286C365.828 348.315 362.088 347.509 358.771 347.306C355.454 347.104 348.468 343.031 349.224 344.988C351.682 352.403 351.154 351.984 359.949 358.787C363.56 361.58 360.255 369.904 370.256 373.135C373.002 374.022 376.378 373.957 378.49 375.994" fill="#EBEBEB"/>
<path d="M376.857 423.802C376.821 423.857 376.787 423.915 376.757 423.978L376.857 423.802Z" fill="#455A64"/>
<path d="M390.276 410.861C385.154 412.8 380.806 416.847 378.027 421.744L376.857 423.802C377.356 423.048 378.46 422.989 379.371 422.875C381.062 422.663 382.681 421.859 383.906 420.622C384.678 419.842 385.304 418.893 386.187 418.256C386.978 417.686 387.922 417.406 388.8 416.995C390.786 416.067 392.427 414.473 394.385 413.482C396.391 412.466 398.637 412.126 400.799 411.556C402.961 410.986 405.168 410.102 406.596 408.313C401.706 408.515 395.777 408.779 390.276 410.861Z" fill="#EBEBEB"/>
<path d="M398.111 381.979C396.248 382.881 394.957 384.758 393.124 385.727C391.471 386.6 389.546 386.652 387.746 387.109C383.432 388.204 378.092 396.564 375.189 400.745C376.357 400.684 378.677 399.663 380.827 399.696C382.976 399.729 385.798 399.094 387.936 398.861C394.944 398.097 398.31 394.535 403.616 389.816C406.808 386.977 410.647 385.836 412.668 381.998C408.147 384.083 402.594 379.808 398.111 381.979Z" fill="#EBEBEB"/>
<path d="M378.53 379.934C380.985 372.452 387.429 366.708 394.233 363.244C401.038 359.779 409.168 359.27 416.32 361.86C412.248 367.457 408.113 368.159 401.566 369.779C400.436 370.059 397.616 369.182 395.571 370.717C394.748 371.334 394.561 373.808 389.815 374.725C385.151 375.626 381.174 376.617 378.53 379.934Z" fill="#EBEBEB"/>
<path d="M383.707 349.341C383.716 349.341 383.723 349.423 383.73 349.584C383.734 349.776 383.738 350.01 383.744 350.297C383.76 350.925 383.752 351.85 383.681 353.04C383.547 355.418 383.172 358.862 382.249 363.025C380.55 371.393 376.285 382.427 373.994 395.198C371.583 407.949 371.14 419.744 371.353 428.229C371.435 432.478 371.718 435.908 371.883 438.28C371.985 439.431 372.066 440.341 372.125 441.008C372.145 441.294 372.162 441.528 372.175 441.719C372.183 441.88 372.183 441.962 372.174 441.963C372.165 441.964 372.147 441.883 372.122 441.725C372.095 441.535 372.061 441.304 372.021 441.019C371.938 440.354 371.824 439.446 371.681 438.299C371.454 435.93 371.114 432.498 370.985 428.24C370.678 419.738 371.063 407.898 373.483 395.102C375.786 382.274 380.112 371.246 381.89 362.944C382.855 358.807 383.283 355.39 383.479 353.025C383.581 351.841 383.622 350.92 383.64 350.294C383.655 350.007 383.668 349.774 383.678 349.582C383.687 349.424 383.698 349.341 383.707 349.341Z" fill="#E0E0E0"/>
<path d="M409.202 362.799C409.203 362.84 408.635 362.877 407.614 362.966C406.593 363.052 405.12 363.221 403.321 363.551C399.753 364.221 394.765 365.576 390.123 368.66C385.506 371.795 382.03 375.549 379.818 378.449C378.709 379.903 377.879 381.133 377.327 381.997C376.771 382.858 376.469 383.34 376.434 383.32C376.418 383.311 376.474 383.18 376.595 382.937C376.719 382.696 376.893 382.335 377.154 381.892C377.655 380.992 378.442 379.724 379.523 378.229C381.679 375.248 385.151 371.407 389.832 368.229C394.572 365.082 399.642 363.774 403.258 363.189C405.081 362.903 406.571 362.788 407.601 362.765C408.115 362.74 408.516 362.76 408.787 362.762C409.06 362.768 409.202 362.781 409.202 362.799Z" fill="#E0E0E0"/>
<path d="M356.464 351.02C356.475 350.987 356.947 351.099 357.771 351.396C358.59 351.702 359.779 352.164 361.122 353.001C361.784 353.428 362.505 353.944 363.085 354.723C363.623 355.491 364.096 356.36 364.548 357.296C364.996 358.234 365.419 359.238 365.799 360.303C366.209 361.379 366.388 362.526 366.905 363.557C367.922 365.66 369.801 367.007 371.415 368.265C373.059 369.514 374.459 370.771 375.526 371.921C376.577 373.088 377.347 374.098 377.828 374.828C378.309 375.56 378.559 375.972 378.529 375.992C378.441 376.056 377.403 374.413 375.259 372.175C374.17 371.072 372.777 369.87 371.122 368.646C369.51 367.419 367.527 366.034 366.436 363.785C365.884 362.675 365.703 361.494 365.317 360.472C364.95 359.423 364.542 358.427 364.114 357.5C363.683 356.576 363.23 355.711 362.731 354.969C362.227 354.261 361.55 353.739 360.92 353.309C359.64 352.456 358.483 351.943 357.695 351.584C356.901 351.232 356.453 351.056 356.464 351.02Z" fill="#E0E0E0"/>
<path d="M403.076 385.643C403.097 385.672 402.714 385.991 402.001 386.541C401.286 387.088 400.244 387.871 398.904 388.77C397.563 389.663 395.913 390.674 393.942 391.53C391.975 392.39 389.721 393.056 387.417 393.863C382.776 395.419 379.13 398.028 376.588 399.962C375.383 400.903 374.376 401.688 373.589 402.302C372.88 402.855 372.478 403.15 372.455 403.122C372.432 403.095 372.789 402.748 373.459 402.146C374.129 401.546 375.108 400.686 376.361 399.672C378.848 397.66 382.529 394.953 387.244 393.371C389.57 392.557 391.811 391.909 393.754 391.088C395.697 390.273 397.346 389.308 398.704 388.46C400.06 387.607 401.133 386.871 401.883 386.376C402.632 385.878 403.055 385.613 403.076 385.643Z" fill="#E0E0E0"/>
<path d="M371.343 398.741C368.096 395.115 368.919 388.768 365.437 385.388C363.27 383.284 359.97 382.917 357.71 380.923C356.235 379.621 355.332 377.737 353.927 376.354C351.28 373.747 347.348 373.318 343.721 373.024C344.301 380.331 348.905 387.139 355.302 390.151C356.839 390.875 358.521 391.431 359.694 392.697C360.511 393.578 361.006 394.731 361.753 395.678C362.901 397.135 364.595 398.033 366.344 398.509C368.092 398.984 369.913 399.072 371.717 399.158" fill="#EBEBEB"/>
<path d="M350.322 377.619C350.423 377.56 351.024 379.326 353.097 381.353C354.113 382.374 355.476 383.43 357.038 384.543C358.6 385.652 360.351 386.873 362.039 388.335C365.432 391.244 368.086 394.305 369.928 396.558C370.847 397.69 371.561 398.628 372.044 399.284C372.524 399.942 372.774 400.318 372.746 400.339C372.717 400.361 372.413 400.028 371.885 399.41C371.287 398.712 370.538 397.837 369.646 396.795C367.737 394.61 365.057 391.609 361.7 388.731C360.029 387.285 358.314 386.07 356.756 384.932C355.203 383.793 353.838 382.689 352.834 381.612C351.818 380.546 351.16 379.536 350.793 378.802C350.595 378.442 350.488 378.14 350.411 377.938C350.336 377.735 350.305 377.626 350.322 377.619Z" fill="#E0E0E0"/>
<path d="M367.588 417.538C367.49 414.849 366.676 412.019 364.536 410.572C363.617 409.951 362.542 409.575 361.726 408.812C360.931 408.069 360.458 407.032 359.861 406.109C358.135 403.437 355.38 401.725 352.716 400.099C351.665 399.457 350.613 398.816 349.562 398.174C349.242 397.979 348.882 397.776 348.52 397.861C348.171 397.943 347.92 398.283 347.828 398.644C347.736 399.005 347.773 399.387 347.815 399.758C348.069 401.991 348.483 404.205 349.052 406.375C349.544 408.251 350.192 410.166 351.512 411.539C352.984 413.07 355.075 413.715 356.865 414.815C358.383 415.749 359.722 417.036 361.379 417.662C363.302 418.389 365.562 417.83 367.588 417.538Z" fill="#EBEBEB"/>
<path d="M351.942 403.797C352.006 403.751 352.868 404.889 354.284 406.7C355.713 408.483 357.701 411.011 360.507 413.058C361.926 414.038 363.435 414.783 364.769 415.514C366.112 416.235 367.311 416.918 368.279 417.558C369.246 418.198 369.988 418.784 370.445 419.25C370.909 419.707 371.114 420.007 371.093 420.024C371.03 420.083 370.066 419.027 368.083 417.869C367.103 417.277 365.899 416.634 364.545 415.938C363.199 415.228 361.684 414.501 360.206 413.482C357.31 411.368 355.353 408.77 353.99 406.921C353.313 405.985 352.792 405.211 352.442 404.669C352.091 404.128 351.913 403.818 351.942 403.797Z" fill="#E0E0E0"/>
<path d="M389.59 413.262C389.633 413.341 388.318 414.071 386.335 415.454C384.35 416.832 381.736 418.93 379.215 421.619C376.695 424.311 374.772 427.056 373.509 429.117C372.245 431.179 371.583 432.529 371.503 432.491C371.47 432.476 371.607 432.125 371.882 431.501C372.15 430.874 372.596 429.993 373.192 428.93C374.383 426.805 376.284 423.989 378.835 421.263C381.387 418.54 384.074 416.459 386.129 415.148C387.155 414.488 388.011 413.996 388.622 413.693C389.23 413.385 389.573 413.23 389.59 413.262Z" fill="#E0E0E0"/>
<path d="M412.523 87.464L410.279 83.767C391.365 52.598 357.167 33.809 321.112 36.089C316.477 36.382 311.862 37.01 307.309 37.984C274.527 45 246.003 69.79 234.18 101.539C227.227 120.211 225.284 141.709 212.088 156.53C194.915 175.819 165.759 176.424 140.126 175.625C114.492 174.826 85.318 175.507 68.228 194.872C57.526 207 54.125 224.247 54.988 240.488C57.273 283.488 87.236 321.937 125.342 341.048C163.448 360.159 208.313 361.871 250.017 353.464C308.44 341.687 364 309.344 397.395 259.39C430.791 209.436 439.243 141.38 412.523 87.464Z" fill="#F5F5F5"/>
<path d="M469.089 439.098C469.089 439.242 370.992 439.358 250.011 439.358C128.988 439.358 30.912 439.241 30.912 439.098C30.912 438.955 128.988 438.838 250.011 438.838C370.991 438.837 469.089 438.954 469.089 439.098Z" fill="#263238"/>
<path d="M420.495 387.372C422.901 388.416 424.671 390.641 425.559 393.109C426.447 395.577 426.527 398.274 426.232 400.88C425.66 405.923 422.795 411.014 419.709 415.044C415.462 411.338 414.485 404.872 414.196 401.561C413.738 396.328 416.089 386.592 420.495 387.372Z" fill="#FF725E"/>
<path d="M424.646 423.368C423.966 420.518 425.152 417.391 427.34 415.442C429.528 413.493 432.585 412.668 435.506 412.891C436.857 412.994 438.317 413.388 439.091 414.501C439.814 415.541 439.733 416.992 439.146 418.115C438.559 419.237 437.544 420.077 436.471 420.75C432.792 423.058 428.807 424.617 424.646 423.368Z" fill="#FF725E"/>
<path d="M419.2 438.831C419.174 438.825 419.233 438.457 419.351 437.796C419.485 437.068 419.657 436.126 419.864 434.996C420.333 432.656 420.936 429.303 422.755 426.049C424.549 422.803 427.061 420.412 429.176 419.226C430.226 418.618 431.145 418.256 431.794 418.068C432.114 417.96 432.376 417.919 432.548 417.877C432.722 417.84 432.814 417.827 432.817 417.839C432.847 417.921 431.346 418.192 429.31 419.449C427.268 420.67 424.841 423.037 423.077 426.228C421.294 429.415 420.653 432.721 420.12 435.048C419.863 436.221 419.654 437.173 419.492 437.826C419.33 438.479 419.224 438.836 419.2 438.831Z" fill="#263238"/>
<path d="M419.36 394.945C419.373 394.945 419.39 395.1 419.412 395.397C419.432 395.733 419.458 396.164 419.489 396.697C419.549 397.826 419.616 399.461 419.681 401.481C419.812 405.522 419.914 411.107 419.889 417.277C419.861 423.448 419.71 429.033 419.544 433.073C419.462 435.093 419.381 436.727 419.311 437.855C419.275 438.388 419.246 438.818 419.223 439.154C419.199 439.451 419.18 439.606 419.167 439.606C419.154 439.605 419.149 439.449 419.149 439.151C419.154 438.815 419.16 438.383 419.168 437.849C419.196 436.673 419.236 435.05 419.284 433.064C419.383 429.024 419.493 423.442 419.521 417.275C419.547 411.11 419.486 405.528 419.421 401.487C419.39 399.501 419.365 397.877 419.346 396.701C419.343 396.167 419.34 395.735 419.338 395.399C419.34 395.102 419.347 394.945 419.36 394.945Z" fill="#263238"/>
<path d="M417.299 426.438C416.333 420.336 412.22 414.82 406.649 412.15C405.23 411.47 403.377 411.026 402.21 412.082C401.042 413.139 401.303 415.037 401.875 416.506C404.254 422.616 410.642 426.93 417.199 426.853" fill="#FF725E"/>
<path d="M407.336 416.934C407.347 416.911 407.666 417.052 408.237 417.327C408.523 417.463 408.873 417.63 409.255 417.87C409.637 418.108 410.098 418.341 410.551 418.683C411.014 419.01 411.531 419.358 412.034 419.799C412.562 420.21 413.075 420.707 413.612 421.233C414.658 422.311 415.711 423.598 416.611 425.086C417.497 426.583 418.138 428.118 418.587 429.553C418.789 430.278 418.983 430.966 419.086 431.628C419.23 432.282 419.283 432.903 419.341 433.468C419.419 434.031 419.393 434.547 419.412 434.997C419.433 435.447 419.404 435.835 419.378 436.151C419.332 436.783 419.294 437.13 419.269 437.128C419.186 437.125 419.33 435.725 419.083 433.495C419.01 432.939 418.942 432.329 418.788 431.688C418.674 431.039 418.472 430.365 418.265 429.655C417.806 428.25 417.167 426.747 416.297 425.277C415.413 423.815 414.387 422.545 413.371 421.471C412.849 420.947 412.351 420.449 411.839 420.034C411.352 419.589 410.851 419.234 410.402 418.897C408.578 417.587 407.299 417.005 407.336 416.934Z" fill="#263238"/>
<path d="M287.283 251.885C287.247 251.138 286.933 250.421 286.473 249.832C286.022 249.255 285.415 248.783 284.711 248.581C283.963 248.366 283.129 248.474 282.46 248.871C282.062 249.107 281.726 249.444 281.484 249.838C281.296 249.462 281.028 249.126 280.698 248.866C280.087 248.385 279.274 248.169 278.504 248.284C277.78 248.393 277.116 248.781 276.593 249.294C276.059 249.818 275.655 250.488 275.521 251.224C275.354 252.145 275.466 253.173 275.895 254.006C276.348 254.885 277.125 255.622 277.936 256.187C279.301 257.136 281.102 258.332 281.102 258.332C281.102 258.332 282.761 257.253 284.239 256.49C285.118 256.036 285.984 255.407 286.548 254.595C287.081 253.825 287.328 252.82 287.283 251.885Z" fill="#FF725E"/>
<path d="M409.237 199.81C409.201 199.063 408.887 198.346 408.427 197.757C407.976 197.18 407.369 196.708 406.665 196.506C405.917 196.291 405.083 196.398 404.414 196.796C404.016 197.032 403.681 197.369 403.438 197.763C403.25 197.387 402.982 197.051 402.652 196.791C402.041 196.309 401.228 196.094 400.458 196.209C399.734 196.318 399.07 196.706 398.547 197.219C398.013 197.743 397.609 198.413 397.475 199.149C397.308 200.07 397.42 201.098 397.849 201.931C398.302 202.81 399.078 203.547 399.89 204.112C401.255 205.061 403.056 206.257 403.056 206.257C403.056 206.257 404.715 205.178 406.193 204.415C407.072 203.961 407.938 203.332 408.502 202.52C409.036 201.75 409.283 200.745 409.237 199.81Z" fill="#FF725E"/>
<path d="M389.064 126.195L390.822 127.146C391.081 127.286 391.083 127.656 390.825 127.799L389.076 128.767C389.014 128.801 388.963 128.853 388.929 128.916L387.978 130.674C387.838 130.933 387.468 130.934 387.325 130.677L386.357 128.928C386.323 128.866 386.271 128.815 386.209 128.781L384.451 127.83C384.192 127.69 384.191 127.32 384.448 127.177L386.197 126.209C386.259 126.175 386.31 126.123 386.344 126.061L387.295 124.303C387.435 124.044 387.805 124.043 387.948 124.3L388.916 126.049C388.95 126.11 389.001 126.161 389.064 126.195Z" fill="#FF725E"/>
<path d="M282.476 199.174L284.234 200.125C284.493 200.265 284.494 200.635 284.237 200.778L282.488 201.746C282.426 201.78 282.375 201.832 282.341 201.895L281.39 203.653C281.25 203.912 280.88 203.913 280.737 203.656L279.769 201.907C279.735 201.845 279.683 201.794 279.62 201.76L277.862 200.809C277.603 200.669 277.602 200.299 277.859 200.156L279.608 199.188C279.67 199.154 279.721 199.102 279.755 199.04L280.706 197.282C280.846 197.023 281.216 197.022 281.359 197.279L282.327 199.028C282.362 199.089 282.413 199.141 282.476 199.174Z" fill="#FF725E"/>
<path d="M271.764 188.48L272.68 188.975C272.815 189.048 272.816 189.241 272.682 189.315L271.771 189.819C271.739 189.837 271.712 189.864 271.694 189.896L271.199 190.812C271.126 190.947 270.933 190.948 270.859 190.814L270.355 189.903C270.337 189.871 270.31 189.844 270.278 189.826L269.362 189.331C269.227 189.258 269.226 189.065 269.36 188.991L270.271 188.487C270.304 188.469 270.33 188.442 270.348 188.41L270.843 187.494C270.916 187.359 271.109 187.358 271.183 187.492L271.687 188.403C271.705 188.436 271.732 188.463 271.764 188.48Z" fill="#FF725E"/>
<path d="M369.501 259.361L370.417 259.856C370.552 259.929 370.553 260.122 370.419 260.196L369.508 260.7C369.476 260.718 369.449 260.745 369.431 260.777L368.936 261.693C368.863 261.828 368.67 261.829 368.596 261.695L368.092 260.784C368.074 260.752 368.047 260.725 368.015 260.707L367.099 260.212C366.964 260.139 366.963 259.946 367.097 259.872L368.008 259.368C368.04 259.35 368.067 259.323 368.085 259.291L368.58 258.375C368.653 258.24 368.846 258.239 368.92 258.373L369.424 259.284C369.441 259.317 369.468 259.344 369.501 259.361Z" fill="#FF725E"/>
<path d="M77.648 69.82C86.378 69.82 93.455 62.9315 93.455 54.434C93.455 45.9366 86.378 39.048 77.648 39.048C68.918 39.048 61.841 45.9366 61.841 54.434C61.841 62.9315 68.918 69.82 77.648 69.82Z" fill="#FF725E"/>
<path d="M75.396 88.836C75.304 88.836 75.23 85.994 75.23 82.49C75.23 78.984 75.305 76.143 75.396 76.143C75.488 76.143 75.562 78.984 75.562 82.49C75.563 85.995 75.488 88.836 75.396 88.836Z" fill="#FF725E"/>
<path d="M66.287 72.566C66.367 72.611 64.88 75.262 62.967 78.486C61.053 81.712 59.438 84.29 59.358 84.245C59.279 84.2 60.765 81.55 62.679 78.324C64.592 75.1 66.208 72.522 66.287 72.566Z" fill="#FF725E"/>
<path d="M56.939 66.901C56.996 66.971 55.343 68.342 53.247 69.964C51.151 71.586 49.405 72.844 49.348 72.774C49.291 72.704 50.943 71.333 53.04 69.711C55.136 68.089 56.882 66.831 56.939 66.901Z" fill="#FF725E"/>
<path d="M91.166 82.584C91.119 82.592 90.977 81.991 90.749 81.023C90.522 80.054 90.199 78.719 89.796 77.257C89.391 75.794 88.982 74.482 88.68 73.533C88.378 72.584 88.191 71.995 88.236 71.979C88.277 71.964 88.542 72.525 88.903 73.459C89.264 74.393 89.711 75.702 90.118 77.173C90.524 78.644 90.812 79.995 90.981 80.978C91.149 81.962 91.209 82.577 91.166 82.584Z" fill="#FF725E"/>
<path d="M107.198 71.5111C107.138 71.5781 105.046 69.895 102.526 67.751C100.006 65.606 98.012 63.8141 98.073 63.7471C98.134 63.6801 100.225 65.3631 102.746 67.5071C105.265 69.6511 107.259 71.4441 107.198 71.5111Z" fill="#FF725E"/>
<path d="M113.339 56.294C113.328 56.34 112.604 56.2171 111.433 56.0271C110.262 55.837 108.643 55.593 106.845 55.392C105.047 55.192 103.413 55.073 102.228 55C101.043 54.926 100.309 54.887 100.309 54.84C100.309 54.798 101.046 54.756 102.237 54.771C103.428 54.786 105.075 54.869 106.883 55.07C108.69 55.272 110.313 55.554 111.477 55.802C112.641 56.05 113.349 56.253 113.339 56.294Z" fill="#FF725E"/>
<path d="M113.359 41.329C113.381 41.416 109.959 42.302 105.716 43.308C101.472 44.314 98.016 45.059 97.994 44.972C97.972 44.885 101.394 43.999 105.637 42.993C109.88 41.988 113.338 41.243 113.359 41.329Z" fill="#FF725E"/>
<path d="M95.497 23.895C95.574 23.944 93.936 26.486 91.841 29.572C89.745 32.659 87.983 35.121 87.907 35.071C87.83 35.022 89.467 32.48 91.564 29.393C93.659 26.307 95.421 23.845 95.497 23.895Z" fill="#FF725E"/>
<path d="M77.771 20.252C77.818 20.254 77.813 21.061 77.794 22.364C77.775 23.667 77.748 25.466 77.75 27.452C77.753 29.439 77.783 31.238 77.805 32.541C77.827 33.844 77.834 34.651 77.787 34.653C77.743 34.655 77.652 33.852 77.57 32.55C77.487 31.247 77.42 29.445 77.417 27.452C77.415 25.46 77.479 23.658 77.558 22.355C77.638 21.053 77.727 20.25 77.771 20.252Z" fill="#FF725E"/>
<path d="M64.347 36.525C64.269 36.572 62.604 34.059 60.628 30.913C58.652 27.766 57.114 25.178 57.193 25.131C57.271 25.084 58.936 27.597 60.912 30.744C62.888 33.89 64.426 36.479 64.347 36.525Z" fill="#FF725E"/>
<path d="M56.328 43.159C56.319 43.201 55.675 43.11 54.647 42.9C53.619 42.69 52.209 42.354 50.672 41.913C49.134 41.471 47.762 41.008 46.782 40.642C45.801 40.276 45.21 40.013 45.226 39.972C45.243 39.929 45.863 40.116 46.86 40.426C47.858 40.736 49.235 41.163 50.766 41.603C52.297 42.042 53.692 42.411 54.702 42.677C55.713 42.943 56.338 43.113 56.328 43.159Z" fill="#FF725E"/>
<path d="M52.825 54.979C52.834 55.068 50.575 55.352 47.781 55.614C44.986 55.876 42.713 56.015 42.705 55.926C42.696 55.837 44.954 55.553 47.75 55.291C50.543 55.03 52.816 54.89 52.825 54.979Z" fill="#FF725E"/>
<path d="M190.61 188.173L146.223 118.58C142.904 118.026 139.597 121.493 140.307 124.783C132.875 125.141 126.525 132.456 127.214 139.865C121.518 140.404 116.161 143.781 113.218 148.687C110.275 153.593 109.818 159.909 112.025 165.188C109.959 169.008 110.104 173.928 112.392 177.619C114.68 181.31 119.022 183.629 123.362 183.478C121.432 188.805 123.419 195.295 128.001 198.629C132.583 201.963 139.369 201.857 143.844 198.382C145.631 201.928 149.087 204.588 152.973 205.407C156.859 206.226 161.094 205.188 164.161 202.665C168.181 205.832 174.558 205.448 178.169 201.822C179.467 200.519 180.453 198.853 182.042 197.926C183.558 197.041 185.415 196.956 187.013 196.229C189.939 194.898 191.572 191.24 190.61 188.173Z" fill="#263238"/>
<path d="M178.567 181.834C178.567 185.462 175.626 188.404 171.997 188.404C168.368 188.404 165.427 185.463 165.427 181.834C165.427 178.206 168.368 175.264 171.997 175.264C175.626 175.264 178.567 178.206 178.567 181.834Z" fill="#FF725E"/>
<path d="M169.639 184.662C164.059 192.99 163.71 204.524 168.775 213.174C170.08 208.802 171.392 204.394 171.796 199.849C172.2 195.305 171.888 188.631 169.639 184.662Z" fill="#FF725E"/>
<path d="M155.353 146.218C152.049 142.226 152.27 135.766 155.838 132.008C153.723 129.535 154.312 125.584 156.282 122.993C158.252 120.403 161.259 118.85 164.163 117.382C165.522 109.88 186.434 98.404 193.903 99.933C194.228 96.698 203.229 97.03 204.596 101.474C204.596 101.474 206.574 98.261 211.071 98.953C222.092 100.647 220.762 107.517 220.762 107.517C220.762 107.517 224.108 106.183 227.559 109.955C230.736 113.427 229.474 115.712 229.474 115.712C231.969 117.498 233.615 120.42 233.852 123.48C234.053 126.078 233.321 128.869 234.5 131.193C235.091 132.358 236.117 133.28 236.588 134.498C237.953 138.029 234.119 141.823 234.983 145.509C235.16 146.261 235.526 146.954 235.762 147.69C236.245 149.194 236.158 150.873 235.522 152.32C235.032 153.436 234.214 154.471 234.185 155.69C234.163 156.615 234.605 157.479 234.822 158.378C235.353 160.577 230.872 169.289 229.001 170.561L171.808 173.085C167.447 172.355 163.783 168.556 163.212 164.171C163.117 163.442 163.078 162.648 162.605 162.086C162.202 161.607 161.569 161.403 161.007 161.126C157.254 159.278 156.631 154.236 156.873 150.059C156.907 149.474 156.946 148.875 156.78 148.313C156.536 147.497 155.896 146.874 155.353 146.218Z" fill="#263238"/>
<path d="M171.746 145.723C171.221 135.604 177.162 123.746 187.045 118.441C193.275 115.097 198.221 114.902 201.541 114.397C208.978 113.264 215.134 116.752 215.134 116.752C218.313 117.382 230.242 127.556 231.245 139.017C232.36 151.749 233.22 167.338 231.942 176.89C229.372 196.096 214.767 198.89 214.767 198.89C214.764 198.861 217.25 230.579 217.25 230.579L177.546 216.57L171.746 145.723Z" fill="#FFBF9D"/>
<path d="M204.709 174.983C204.757 174.047 205.207 173.187 205.819 172.572C207.043 171.343 208.953 171.081 210.436 171.939C211.918 172.797 212.229 174.43 212.11 176.3C211.407 177.447 210.911 178.567 209.585 178.789C209.379 178.824 209.171 178.847 208.961 178.859C207.946 178.913 206.888 178.653 206.055 177.967C205.222 177.282 204.65 176.137 204.709 174.983Z" fill="#FF9A6C"/>
<path d="M224.645 154.544C224.722 155.839 223.69 156.972 222.34 157.078C220.992 157.183 219.834 156.223 219.757 154.928C219.68 153.634 220.712 152.499 222.059 152.393C223.409 152.286 224.567 153.25 224.645 154.544Z" fill="#263238"/>
<path d="M227.033 146.467C226.737 146.795 224.844 145.465 222.204 145.536C219.566 145.57 217.661 146.976 217.367 146.659C217.222 146.519 217.519 145.934 218.347 145.299C219.162 144.667 220.565 144.038 222.21 144.004C223.855 143.973 225.253 144.545 226.064 145.145C226.89 145.748 227.179 146.32 227.033 146.467Z" fill="#263238"/>
<path d="M212.094 167.695C212.078 167.546 213.712 167.222 216.363 166.816C217.035 166.73 217.67 166.58 217.773 166.118C217.92 165.627 217.621 164.907 217.274 164.131C216.6 162.515 215.895 160.821 215.154 159.045C212.207 151.804 210.055 145.842 210.348 145.726C210.641 145.609 213.268 151.385 216.215 158.627C216.925 160.413 217.605 162.116 218.251 163.745C218.525 164.505 218.985 165.363 218.666 166.383C218.496 166.891 218.011 167.269 217.581 167.396C217.152 167.539 216.773 167.555 216.44 167.583C213.768 167.793 212.108 167.845 212.094 167.695Z" fill="#263238"/>
<path d="M214.767 198.889C214.767 198.889 201.831 200.04 188.892 192.687C188.892 192.687 196.043 206.005 215.148 203.747L214.767 198.889Z" fill="#FF9A6C"/>
<path d="M225.039 135.952C224.611 136.608 222.579 136.226 220.221 136.48C217.856 136.658 215.922 137.404 215.388 136.836C215.15 136.558 215.393 135.923 216.195 135.255C216.986 134.59 218.366 133.958 219.989 133.808C221.612 133.661 223.079 134.031 223.971 134.543C224.877 135.054 225.224 135.635 225.039 135.952Z" fill="#263238"/>
<path d="M196.985 155.665C197.02 156.962 198.146 158.002 199.501 157.99C200.853 157.979 201.924 156.922 201.889 155.625C201.854 154.329 200.728 153.287 199.377 153.298C198.021 153.309 196.95 154.369 196.985 155.665Z" fill="#263238"/>
<path d="M190.932 148.387C191.256 148.688 193.026 147.2 195.663 147.043C198.294 146.849 200.313 148.086 200.579 147.745C200.711 147.594 200.365 147.036 199.486 146.475C198.619 145.916 197.167 145.41 195.526 145.518C193.884 145.629 192.541 146.319 191.785 146.987C191.013 147.659 190.774 148.253 190.932 148.387Z" fill="#263238"/>
<path d="M190.566 138.04C191.122 138.606 193.118 137.859 195.561 137.678C197.998 137.421 200.103 137.8 200.54 137.145C200.731 136.828 200.367 136.249 199.427 135.738C198.5 135.229 196.98 134.859 195.303 135.009C193.626 135.161 192.203 135.793 191.391 136.459C190.564 137.127 190.319 137.761 190.566 138.04Z" fill="#263238"/>
<path d="M175.271 163.779C175.233 162.354 173.504 159.035 172.091 158.85C168.319 158.357 161.554 158.824 161.724 168.368C161.957 181.414 175.007 178.489 175.024 178.115C175.037 177.822 175.403 168.699 175.271 163.779Z" fill="#FFBF9D"/>
<path d="M171.34 173.413C171.282 173.373 171.116 173.576 170.735 173.759C170.363 173.937 169.721 174.067 169.036 173.824C167.649 173.343 166.449 171.175 166.344 168.825C166.289 167.638 166.518 166.503 166.922 165.559C167.304 164.598 167.909 163.92 168.601 163.785C169.288 163.613 169.787 164.019 169.954 164.383C170.136 164.745 170.057 165.008 170.127 165.028C170.164 165.061 170.403 164.805 170.289 164.269C170.23 164.01 170.072 163.705 169.76 163.46C169.443 163.211 168.981 163.09 168.498 163.151C167.493 163.239 166.604 164.18 166.16 165.216C165.661 166.258 165.376 167.534 165.437 168.867C165.567 171.494 166.957 173.93 168.853 174.442C169.774 174.665 170.536 174.375 170.925 174.059C171.322 173.729 171.385 173.436 171.34 173.413Z" fill="#FF9A6C"/>
<path d="M234.144 139.127C231.467 137.546 229.729 135.347 229.815 132.24C228.08 132.804 226.25 130.598 225.193 129.112C224.136 127.626 222.868 126.894 222.9 125.07C222.906 124.71 222.919 124.329 222.743 124.014C222.466 123.52 221.841 123.373 221.297 123.218C218.494 122.42 216.178 120.096 215.389 117.29C212.624 118.584 209.534 119.174 206.487 118.99C205.185 120.982 202.821 122.233 200.442 122.189C198.063 122.145 195.746 120.808 194.518 118.769C193.77 120.421 192.104 121.511 190.357 122.001C188.611 122.491 186.768 122.463 184.955 122.432C185.825 125.917 183.649 129.887 180.244 131.028C179.784 131.182 179.251 131.337 179.048 131.778C178.837 132.237 179.094 132.759 179.286 133.227C180.499 136.182 178.615 139.993 175.53 140.823C177.705 142.424 177.581 146.256 175.307 147.712C174.84 148.011 174.229 148.371 174.316 148.918C174.349 149.126 174.485 149.301 174.616 149.467C175.62 150.733 176.623 152.118 176.782 153.726C176.941 155.334 175.897 157.169 174.286 157.28C175.152 158.012 175.968 158.962 176.016 160.095C176.064 161.228 174.946 162.412 173.878 162.03C173.424 161.867 166.896 160.754 166.601 160.373C162.784 155.456 167.287 149.803 167.496 143.581C167.705 137.36 169.723 131.289 172.691 125.818C173.936 123.523 175.362 121.304 177.165 119.415C179.22 117.262 181.717 115.589 184.204 113.954C187.449 111.82 190.787 109.689 194.543 108.702C201.54 106.864 208.918 109.237 215.56 112.106C218.086 113.197 220.607 114.381 222.751 116.105C225.316 118.169 227.234 120.922 228.917 123.751C231.349 127.84 233.394 132.264 233.974 136.986" fill="#263238"/>
<path d="M204.224 172.541C204.536 172.329 205.829 174.486 208.591 174.916C211.353 175.354 213.51 173.738 213.707 174.03C213.818 174.148 213.445 174.755 212.489 175.361C211.555 175.962 209.981 176.486 208.291 176.223C206.603 175.956 205.37 174.991 204.768 174.149C204.147 173.295 204.069 172.616 204.224 172.541Z" fill="#263238"/>
<path d="M142.47 111.245C142.47 128.827 154.746 157.444 165.094 159.099L164.989 158.35C164.509 147.191 164.071 135.722 167.715 125.164C171.795 113.342 182.376 104.781 193.905 99.934C176.6 96.188 152.654 104.869 142.47 111.245Z" fill="#FF725E"/>
<path d="M187.326 99.097C183.302 100.014 179.939 103.374 179.019 107.398C173.712 108.28 169.571 113.676 170.093 119.031C167.268 119.937 164.918 122.21 163.917 125.003C162.916 127.796 163.29 131.044 164.897 133.538C162.14 137.124 161.846 142.419 164.189 146.289C162.347 147.953 161.358 150.517 161.606 152.987C161.854 155.457 163.333 157.773 165.469 159.038L170.043 159.1L169.881 140.156L173.125 128.969L179.989 116.903L187.073 110.428L198.41 102.979C195.836 99.751 191.35 98.18 187.326 99.097Z" fill="#263238"/>
<path d="M169.459 182.817C168.248 180.205 162.258 178.975 157.584 180.02C152.91 181.066 148.809 184.067 145.899 187.872C142.989 191.676 141.2 196.243 140.132 200.912C151.979 201.112 163.843 193.251 169.459 182.817Z" fill="#FF725E"/>
<path d="M175.155 187.718C175.169 187.745 174.967 187.895 174.556 188.088C174.146 188.283 173.509 188.486 172.694 188.568C171.103 188.753 168.613 188.259 166.911 186.302C165.241 184.316 165.139 181.78 165.568 180.237C165.776 179.444 166.075 178.846 166.331 178.472C166.585 178.096 166.765 177.919 166.789 177.938C166.878 177.99 166.232 178.785 165.927 180.319C165.609 181.805 165.78 184.154 167.307 185.965C168.86 187.753 171.153 188.286 172.67 188.202C174.231 188.137 175.117 187.622 175.155 187.718Z" fill="#263238"/>
<path d="M154.945 187.494C154.868 187.387 156.954 185.865 159.884 184.669C162.81 183.458 165.362 183.074 165.383 183.204C165.417 183.356 162.955 183.961 160.082 185.151C157.204 186.324 155.028 187.626 154.945 187.494Z" fill="#263238"/>
<path d="M168.82 200.156C168.674 200.145 168.759 197.401 168.857 194.02C168.959 190.638 169.037 187.894 169.184 187.892C169.325 187.89 169.48 190.641 169.378 194.036C169.279 197.429 168.961 200.167 168.82 200.156Z" fill="#263238"/>
<path d="M159.154 111.304C159.193 111.322 158.908 111.989 158.431 113.206C157.952 114.422 157.322 116.208 156.725 118.463C155.516 122.951 154.651 129.468 155.703 136.52C156.751 143.575 159.478 149.558 161.941 153.499C163.169 155.483 164.293 157.007 165.105 158.031C165.915 159.057 166.382 159.611 166.35 159.64C166.337 159.652 166.205 159.527 165.965 159.278C165.731 159.024 165.367 158.665 164.948 158.16C164.084 157.171 162.908 155.67 161.629 153.695C159.065 149.773 156.247 143.74 155.187 136.597C154.121 129.457 155.059 122.866 156.369 118.367C157.016 116.105 157.705 114.326 158.243 113.129C158.497 112.523 158.741 112.074 158.891 111.763C159.048 111.454 159.138 111.297 159.154 111.304Z" fill="#263238"/>
<path d="M146.503 466.058H167.172L167.774 439.871C167.774 439.871 158.384 438.182 153.328 444.803C148.272 451.424 146.503 466.058 146.503 466.058Z" fill="#FF725E"/>
<path d="M139.719 382.365C139.719 397.72 141.525 434.754 188.946 438.367H167.268L166.349 470.37C166.349 470.37 299.826 473.629 303.99 473.695C311.969 473.822 331.21 464.11 334.823 440.174C338.436 416.238 318.564 408.56 312.693 404.044C306.822 399.528 240.884 376.495 215.593 371.978L141.526 379.204L139.719 382.365Z" fill="#263238"/>
<path d="M333.342 293.326C329.99 288.723 324.873 285.725 319.229 284.976C311.577 283.96 299.83 284.198 288.398 291.539C273.736 300.953 217.111 374.849 217.111 374.849L313.291 411.935C313.291 411.935 336.974 338.977 339.746 326.704C342.072 316.399 341.539 304.583 333.342 293.326Z" fill="#263238"/>
<path d="M266.527 386.371C266.51 386.367 266.572 386.066 266.708 385.498C266.86 384.887 267.066 384.06 267.325 383.018C267.591 381.94 267.935 380.627 268.386 379.116C268.83 377.603 269.301 375.869 269.931 373.987C270.531 372.094 271.203 370.026 272.007 367.834C272.76 365.624 273.693 363.309 274.642 360.861C276.626 356 278.991 350.728 281.769 345.341C284.562 339.959 287.528 334.997 290.374 330.583C291.823 328.393 293.201 326.313 294.583 324.429C295.916 322.511 297.252 320.794 298.459 319.218C299.644 317.625 300.823 316.267 301.812 315.04C302.8 313.811 303.699 312.793 304.439 311.965C305.155 311.165 305.723 310.53 306.143 310.061C306.537 309.63 306.75 309.409 306.763 309.421C306.776 309.433 306.59 309.677 306.221 310.131C305.82 310.615 305.277 311.271 304.592 312.098C303.877 312.945 303.001 313.98 302.037 315.225C301.071 316.468 299.914 317.838 298.75 319.443C297.564 321.03 296.249 322.756 294.934 324.68C293.571 326.569 292.209 328.653 290.775 330.845C287.96 335.261 285.015 340.215 282.23 345.582C279.46 350.954 277.089 356.204 275.085 361.043C274.126 363.48 273.181 365.783 272.412 367.982C271.592 370.163 270.901 372.22 270.281 374.102C269.63 375.974 269.134 377.697 268.665 379.2C268.188 380.701 267.816 382.005 267.52 383.074C267.221 384.105 266.984 384.923 266.809 385.527C266.641 386.083 266.544 386.375 266.527 386.371Z" fill="#455A64"/>
<path d="M151.382 327.687C151.382 327.687 148.301 276.182 147.42 263.416C146.54 250.65 145.659 225.998 156.224 214.993C166.789 203.988 174.13 202.225 174.13 202.225L217.11 221.372C217.11 221.372 241.517 255.983 241.517 271.39C241.517 286.798 225.598 332.97 225.598 332.97L151.382 327.687Z" fill="#455A64"/>
<path d="M202.8 258.276L202.569 256.363L241.516 257.642C241.516 257.642 245.815 271.803 239.722 294.747C237.283 303.932 228.418 338.252 228.418 338.252L232.951 366.131L264.784 386.083C264.784 386.083 243.078 388.051 230.312 402.578C217.546 417.105 208.309 441.307 208.309 441.307C208.309 441.307 137.729 441.679 138.653 396.584C138.793 389.735 139.538 382.912 141.666 376.4L152.26 343.976L153.538 327.842C153.538 327.842 176.25 325.386 179.113 317.123C181.979 308.859 202.8 258.276 202.8 258.276Z" fill="#FF725E"/>
<path d="M319.357 408.388C319.349 408.404 319.151 408.325 318.783 408.16C318.367 407.967 317.838 407.721 317.185 407.417C315.799 406.769 313.791 405.837 311.282 404.748C306.276 402.542 299.267 399.708 291.461 396.746C283.648 393.793 276.529 391.242 271.372 389.408C268.842 388.505 266.772 387.766 265.267 387.228C264.591 386.978 264.043 386.776 263.613 386.617C263.237 386.472 263.042 386.387 263.047 386.37C263.053 386.353 263.259 386.404 263.646 386.517C264.085 386.652 264.643 386.824 265.332 387.035C266.792 387.498 268.899 388.183 271.493 389.059C276.683 390.804 283.826 393.302 291.646 396.258C299.459 399.223 306.457 402.115 311.433 404.411C313.927 405.545 315.915 406.529 317.275 407.234C317.911 407.574 318.426 407.849 318.831 408.065C319.184 408.262 319.365 408.372 319.357 408.388Z" fill="#455A64"/>
<path d="M281.367 445.951C281.355 446.094 265.047 444.849 244.946 443.171C224.838 441.492 208.553 440.015 208.565 439.872C208.577 439.729 224.882 440.973 244.989 442.652C265.09 444.33 281.379 445.807 281.367 445.951Z" fill="#455A64"/>
<path d="M183.779 391.052C183.765 391.041 183.874 390.87 184.095 390.555C184.354 390.197 184.681 389.745 185.083 389.189C185.51 388.595 186.06 387.888 186.702 387.07C187.333 386.243 188.085 385.328 188.935 384.331C192.267 380.332 197.52 375.071 204.738 371.464C208.336 369.664 212.016 368.55 215.382 367.724C218.772 366.975 221.873 366.547 224.485 366.346C225.783 366.26 226.963 366.181 228.013 366.111C229.035 366.102 229.926 366.095 230.681 366.088C231.366 366.091 231.924 366.093 232.366 366.095C232.751 366.102 232.953 366.115 232.953 366.133C232.953 366.151 232.751 366.174 232.366 366.2C231.925 366.224 231.368 366.254 230.685 366.291C229.932 366.322 229.044 366.359 228.027 366.402C226.983 366.495 225.809 366.599 224.519 366.713C221.923 366.96 218.848 367.424 215.492 368.192C212.16 369.037 208.525 370.154 204.97 371.932C197.843 375.494 192.607 380.648 189.213 384.574C188.349 385.552 187.579 386.447 186.928 387.255C186.266 388.054 185.694 388.741 185.242 389.316C184.809 389.847 184.457 390.278 184.178 390.621C183.93 390.913 183.793 391.063 183.779 391.052Z" fill="#263238"/>
<path d="M153.182 344.718C153.301 344.836 152.245 346.196 150.041 348.389C147.828 350.564 144.451 353.575 139.828 356.701C138.676 357.487 137.443 358.272 136.137 359.057C135.485 359.451 134.812 359.84 134.121 360.228C133.439 360.612 132.691 361.04 131.776 361.34C131.319 361.487 130.814 361.596 130.276 361.612C129.751 361.637 129.105 361.53 128.591 361.297C128.058 361.067 127.562 360.721 127.154 360.224C126.75 359.731 126.456 359.028 126.484 358.288C126.503 357.564 126.81 356.921 127.139 356.458C127.472 355.985 127.837 355.627 128.168 355.304C128.811 354.686 129.464 354.06 130.124 353.426C132.789 350.907 135.737 348.273 139.35 346.212C142.94 344.2 147.276 342.739 151.868 343.213C151.937 343.219 152.005 343.225 152.069 343.231L151.574 345.78C143.392 343.537 135.846 340.563 129.262 337.324C128.852 337.119 128.444 336.916 128.038 336.713C127.64 336.509 127.231 336.323 126.757 336.024C126.303 335.733 125.772 335.323 125.423 334.653C125.063 333.987 125.045 333.144 125.258 332.518C125.465 331.875 125.83 331.358 126.293 330.951C126.779 330.529 127.301 330.293 127.811 330.134C128.842 329.839 129.75 329.835 130.581 329.858C133.978 329.876 137.078 330.643 139.703 331.74C145.007 333.929 148.334 337.349 150.163 339.86C151.987 342.431 152.491 344.117 152.367 344.17C152.171 344.274 151.359 342.762 149.374 340.494C147.385 338.276 144.048 335.27 139.033 333.452C136.551 332.538 133.676 331.939 130.594 332.014C129.814 332.005 129.054 332.066 128.48 332.254C128.197 332.349 127.944 332.49 127.795 332.633C127.624 332.787 127.493 333.006 127.445 333.186C127.398 333.378 127.416 333.469 127.475 333.576C127.533 333.688 127.707 333.86 127.999 334.034C128.277 334.205 128.683 334.389 129.087 334.585C129.489 334.776 129.893 334.968 130.299 335.162C136.821 338.224 144.242 341.069 152.262 343.267L151.767 345.816C151.714 345.811 151.656 345.806 151.598 345.801C147.748 345.392 143.89 346.623 140.596 348.436C137.281 350.285 134.425 352.746 131.759 355.18C131.092 355.796 130.434 356.404 129.784 357.005C129.143 357.572 128.757 358.102 128.772 358.376C128.722 358.605 129 359.041 129.491 359.258C129.742 359.37 129.934 359.416 130.232 359.417C130.519 359.418 130.824 359.367 131.141 359.275C131.777 359.09 132.441 358.754 133.13 358.391C133.815 358.034 134.485 357.677 135.135 357.315C136.436 356.594 137.671 355.875 138.829 355.155C143.478 352.293 146.974 349.552 149.367 347.633C151.749 345.699 153.047 344.582 153.182 344.718Z" fill="#FF725E"/>
<path d="M168.703 204.533C168.674 204.448 168.888 204.299 169.339 204.087C169.566 203.99 169.846 203.842 170.196 203.745C170.562 203.66 170.972 203.565 171.428 203.46C173.307 203.112 176.184 203.37 179.319 204.706C182.448 206.039 185.781 208.365 188.948 211.424C192.128 214.477 195.186 218.238 197.958 222.449C203.519 230.885 206.95 239.416 208.807 245.714C210.663 252.035 211.03 256.11 210.713 256.167C210.325 256.248 209.324 252.345 207.061 246.299C204.797 240.267 201.181 232.068 195.785 223.883C190.43 215.718 184.144 209.208 178.541 206.373C175.761 204.949 173.253 204.451 171.508 204.469C171.076 204.482 170.687 204.494 170.341 204.505C170 204.517 169.718 204.58 169.479 204.592C169.004 204.635 168.732 204.618 168.703 204.533Z" fill="#FF725E"/>
<path d="M231.093 354.694C231.092 354.703 230.995 354.704 230.808 354.697C230.591 354.686 230.317 354.671 229.977 354.654C229.246 354.625 228.174 354.503 226.785 354.471C224.014 354.334 219.99 354.307 215.047 354.711C210.105 355.103 204.255 356.052 197.933 357.781C194.781 358.672 191.501 359.718 188.179 361.018C184.861 362.322 181.486 363.827 178.117 365.544C164.613 372.461 154.356 381.953 148.046 389.557C144.859 393.357 142.533 396.639 141.016 398.962C140.23 400.106 139.694 401.043 139.288 401.652C139.102 401.938 138.952 402.168 138.834 402.35C138.729 402.506 138.672 402.583 138.664 402.579C138.656 402.575 138.699 402.488 138.788 402.323C138.895 402.134 139.03 401.895 139.198 401.598C139.575 400.971 140.083 400.016 140.845 398.852C142.313 396.49 144.6 393.165 147.763 389.321C154.024 381.628 164.299 372.036 177.879 365.08C181.264 363.355 184.657 361.846 187.995 360.542C191.335 359.242 194.635 358.201 197.806 357.318C204.167 355.605 210.052 354.69 215.018 354.343C219.985 353.985 224.022 354.069 226.796 354.268C228.186 354.331 229.257 354.486 229.986 354.549C230.325 354.588 230.597 354.619 230.813 354.644C230.999 354.668 231.094 354.685 231.093 354.694Z" fill="white"/>
<path d="M229.293 343.626C229.294 343.644 229.007 343.672 228.46 343.709C227.866 343.743 227.07 343.788 226.07 343.845C225.032 343.892 223.762 343.96 222.289 344.065C220.816 344.164 219.138 344.254 217.287 344.419C213.581 344.693 209.179 345.138 204.301 345.715C199.427 346.324 194.082 347.094 188.498 348.068C182.916 349.061 177.627 350.164 172.838 351.257C168.056 352.381 163.766 353.467 160.19 354.476C158.394 354.954 156.786 355.442 155.368 355.853C153.948 356.258 152.732 356.628 151.74 356.938C150.78 357.226 150.017 357.456 149.447 357.627C148.921 357.779 148.642 357.851 148.636 357.834C148.63 357.817 148.898 357.712 149.414 357.528C149.976 357.334 150.73 357.073 151.678 356.746C152.661 356.406 153.87 356.007 155.283 355.576C156.694 355.138 158.297 354.625 160.089 354.124C163.657 353.068 167.944 351.944 172.728 350.792C177.519 349.672 182.815 348.553 188.407 347.558C194.001 346.583 199.359 345.826 204.244 345.242C209.133 344.69 213.546 344.282 217.26 344.055C219.115 343.914 220.797 343.849 222.273 343.778C223.749 343.701 225.021 343.662 226.061 343.646C227.064 343.63 227.861 343.617 228.456 343.607C229.005 343.601 229.293 343.608 229.293 343.626Z" fill="white"/>
<path d="M228.844 334.364C228.848 334.508 211.781 335.092 190.728 335.668C169.668 336.245 152.598 336.596 152.594 336.452C152.59 336.308 169.654 335.724 190.714 335.148C211.767 334.572 228.84 334.221 228.844 334.364Z" fill="white"/>
<path d="M231.126 317.641C231.134 317.785 218.934 318.62 203.88 319.506C188.82 320.393 176.609 320.995 176.601 320.851C176.593 320.708 188.79 319.873 203.85 318.986C218.904 318.099 231.118 317.497 231.126 317.641Z" fill="white"/>
<path d="M243.154 268.867C243.152 269.011 234.052 268.988 222.831 268.816C211.606 268.644 202.512 268.388 202.514 268.244C202.516 268.1 211.614 268.123 222.839 268.295C234.06 268.467 243.156 268.724 243.154 268.867Z" fill="white"/>
<path d="M241.61 282.342C241.61 282.378 241.013 282.412 239.933 282.443C238.853 282.476 237.289 282.494 235.357 282.492C231.493 282.489 226.154 282.376 220.265 282.055C214.375 281.731 209.055 281.262 205.213 280.842C203.292 280.633 201.74 280.445 200.67 280.294C199.6 280.145 199.01 280.046 199.014 280.011C199.018 279.975 199.615 280.006 200.692 280.093C201.856 280.191 203.392 280.32 205.248 280.476C209.095 280.801 214.411 281.212 220.293 281.535C226.173 281.855 231.502 282.027 235.361 282.124C237.223 282.171 238.764 282.211 239.932 282.241C241.012 282.272 241.61 282.306 241.61 282.342Z" fill="white"/>
<path d="M239.667 295.953C239.662 296.097 228.653 295.857 215.081 295.417C201.504 294.977 190.505 294.504 190.51 294.36C190.515 294.216 201.521 294.456 215.098 294.896C228.67 295.336 239.671 295.81 239.667 295.953Z" fill="white"/>
<path d="M197.658 375.307C197.667 375.323 197.469 375.462 197.085 375.712C196.653 375.985 196.091 376.341 195.391 376.784C194.647 377.236 193.748 377.805 192.728 378.503C191.703 379.192 190.517 379.949 189.266 380.874C188.633 381.327 187.97 381.801 187.282 382.293C186.607 382.809 185.906 383.345 185.18 383.899C183.712 384.989 182.227 386.258 180.639 387.561C177.523 390.239 174.205 393.31 170.933 396.742C167.682 400.197 164.794 403.676 162.302 406.943C161.099 408.608 159.916 410.163 158.925 411.7C158.419 412.459 157.929 413.193 157.458 413.9C157.014 414.621 156.587 415.314 156.179 415.977C155.34 417.287 154.676 418.527 154.065 419.6C153.443 420.668 152.947 421.609 152.558 422.387C152.173 423.12 151.864 423.71 151.627 424.162C151.409 424.566 151.286 424.774 151.27 424.766C151.254 424.758 151.344 424.535 151.532 424.117C151.747 423.653 152.028 423.049 152.377 422.296C152.738 421.502 153.209 420.545 153.809 419.46C154.397 418.37 155.041 417.113 155.862 415.786C156.263 415.115 156.682 414.413 157.117 413.683C157.568 412.961 158.065 412.227 158.565 411.458C159.544 409.905 160.719 408.334 161.917 406.654C164.398 403.357 167.289 399.853 170.554 396.383C173.841 392.936 177.183 389.862 180.329 387.193C181.932 385.895 183.433 384.634 184.918 383.554C185.653 383.006 186.353 382.463 187.045 381.967C187.743 381.482 188.414 381.016 189.056 380.57C190.324 379.662 191.528 378.924 192.571 378.257C193.609 377.58 194.526 377.035 195.287 376.609C196.009 376.2 196.588 375.871 197.033 375.619C197.433 375.4 197.649 375.292 197.658 375.307Z" fill="white"/>
<path d="M238.199 369.895C238.202 369.904 238.126 369.942 237.975 370.008C237.795 370.084 237.573 370.176 237.301 370.291C236.666 370.544 235.795 370.891 234.693 371.33C234.122 371.554 233.492 371.8 232.805 372.069C232.128 372.376 231.395 372.709 230.609 373.065C229.041 373.795 227.221 374.553 225.315 375.61C224.35 376.116 223.34 376.645 222.289 377.196C221.246 377.763 220.201 378.426 219.097 379.072C216.865 380.327 214.629 381.906 212.235 383.5C207.555 386.845 202.622 390.824 197.859 395.453C193.14 400.13 189.065 404.987 185.64 409.608C184.008 411.977 182.389 414.184 181.102 416.398C180.44 417.493 179.762 418.528 179.178 419.562C178.613 420.606 178.071 421.609 177.553 422.567C176.47 424.458 175.692 426.269 174.945 427.83C174.58 428.611 174.24 429.34 173.925 430.014C173.65 430.698 173.398 431.326 173.17 431.895C172.721 432.992 172.367 433.86 172.108 434.493C171.991 434.764 171.896 434.985 171.819 435.165C171.751 435.315 171.712 435.391 171.704 435.388C171.696 435.385 171.718 435.303 171.769 435.147C171.833 434.963 171.912 434.736 172.009 434.457C172.246 433.815 172.571 432.934 172.981 431.82C173.197 431.244 173.436 430.609 173.696 429.918C173.984 429.233 174.327 428.503 174.679 427.71C175.403 426.134 176.16 424.305 177.226 422.396C177.737 421.429 178.271 420.417 178.828 419.364C179.405 418.321 180.077 417.276 180.733 416.172C182.009 413.939 183.622 411.713 185.25 409.326C188.669 404.668 192.752 399.779 197.493 395.081C202.278 390.431 207.244 386.444 211.959 383.106C214.371 381.515 216.625 379.944 218.875 378.7C219.989 378.06 221.042 377.403 222.095 376.843C223.156 376.3 224.174 375.779 225.148 375.281C227.071 374.242 228.908 373.504 230.492 372.797C231.288 372.453 232.023 372.118 232.711 371.838C233.405 371.584 234.042 371.351 234.62 371.14C235.738 370.739 236.621 370.422 237.266 370.191C237.545 370.096 237.773 370.019 237.958 369.957C238.115 369.908 238.196 369.886 238.199 369.895Z" fill="white"/>
<path d="M252.618 378.591C252.624 378.608 252.342 378.733 251.8 378.956C251.215 379.19 250.423 379.507 249.424 379.906C248.903 380.11 248.329 380.335 247.704 380.58C247.08 380.838 246.422 381.166 245.704 381.491C244.281 382.17 242.615 382.847 240.89 383.831C240.015 384.3 239.099 384.79 238.145 385.3C237.19 385.809 236.255 386.442 235.255 387.04C233.235 388.209 231.219 389.676 229.07 391.176C224.869 394.309 220.478 398.064 216.303 402.445C212.169 406.869 208.679 411.475 205.785 415.845C204.402 418.072 203.053 420.169 201.99 422.247C201.446 423.278 200.863 424.245 200.405 425.226C199.943 426.204 199.5 427.143 199.076 428.041C198.182 429.815 197.584 431.511 196.973 432.964C196.683 433.697 196.387 434.369 196.158 435.005C195.941 435.64 195.742 436.224 195.561 436.753C195.207 437.768 194.926 438.574 194.718 439.169C194.52 439.72 194.407 440.007 194.39 440.002C194.373 439.997 194.452 439.7 194.618 439.138C194.803 438.535 195.053 437.718 195.369 436.689C195.537 436.154 195.723 435.564 195.924 434.921C196.139 434.279 196.422 433.599 196.701 432.859C197.288 431.391 197.864 429.679 198.74 427.889C199.156 426.983 199.591 426.035 200.045 425.048C200.495 424.058 201.072 423.082 201.61 422.042C202.662 419.946 204.003 417.83 205.383 415.585C208.269 411.178 211.768 406.537 215.925 402.088C220.123 397.682 224.55 393.916 228.789 390.788C230.956 389.29 232.992 387.83 235.032 386.671C236.042 386.079 236.987 385.452 237.951 384.949C238.914 384.447 239.839 383.964 240.723 383.503C242.466 382.536 244.15 381.88 245.588 381.224C246.314 380.911 246.979 380.595 247.611 380.35C248.244 380.12 248.825 379.908 249.352 379.716C250.367 379.355 251.172 379.068 251.766 378.856C252.319 378.666 252.612 378.574 252.618 378.591Z" fill="white"/>
<g opacity="0.3">
<path d="M161.235 273.099C161.235 273.099 184.342 340.853 192.346 345.72C200.35 350.587 228.771 340.41 228.771 340.41L230.315 330.924L178.521 268.245L161.235 273.099Z" fill="black"/>
</g>
<path d="M147.584 469.563L142.127 467.148C142.127 467.148 96.94 485.149 90.159 479.661L150.686 413.427L171.185 442.82C157.554 448.433 153.33 453.983 147.584 469.563Z" fill="#263238"/>
<g opacity="0.6">
<path d="M158.964 434.958C159.779 433.351 159.125 431.126 157.538 430.222C155.95 429.316 153.69 429.926 152.846 431.518C152.002 433.11 152.706 435.803 154.382 436.526C156.058 437.25 158.67 436.388 159.104 434.635" fill="white"/>
</g>
<g opacity="0.6">
<path d="M150.686 413.427L154.793 419.227L95.961 480.167C95.961 480.167 91.963 481.924 90.158 479.662L150.686 413.427Z" fill="white"/>
</g>
<path d="M139.463 467.794C139.144 467.483 140.473 465.73 140.871 463.173C141.336 460.627 140.663 458.506 141.065 458.328C141.402 458.088 142.925 460.366 142.388 463.452C141.88 466.544 139.7 468.141 139.463 467.794Z" fill="#455A64"/>
<path d="M131.491 470.474C131.105 470.257 131.826 468.345 131.441 465.976C131.125 463.597 129.876 461.946 130.184 461.638C130.41 461.287 132.539 462.822 132.962 465.776C133.412 468.724 131.81 470.753 131.491 470.474Z" fill="#455A64"/>
<path d="M119.885 466.45C120.083 466.092 122.136 467.142 123.176 469.617C124.234 472.086 123.55 474.26 123.151 474.147C122.714 474.083 122.646 472.218 121.761 470.198C120.924 468.159 119.623 466.801 119.885 466.45Z" fill="#455A64"/>
<path d="M346.765 155.802C343.993 153.961 342.965 150.357 342.862 147.031C342.758 143.705 343.364 140.36 342.931 137.062C342.583 134.413 343.07 131.628 343.277 128.964C343.684 123.723 346.777 122.943 349 118.179C351.157 113.557 347.895 112.223 349.084 110.22C349.666 109.24 351.3 109.58 352.319 110.089C353.338 110.599 354.117 111.477 354.845 112.354C358.43 116.673 361.543 121.95 361.036 127.54C360.784 130.317 359.653 132.931 359.055 135.655C358.116 139.933 358.451 144.615 356.27 148.413C354.239 151.949 350.427 154.007 346.808 155.886" fill="#455A64"/>
<path d="M342.231 172.619C343.339 165.336 339.8 156.427 334.513 151.298C332.272 149.124 329.543 147.341 328.001 144.626C326.226 141.501 326.285 137.572 324.424 134.497C321.641 129.898 315.592 128.65 310.226 128.336C304.86 128.022 293.559 121.718 294.782 124.747C298.757 136.227 297.905 135.577 312.131 146.11C317.972 150.434 312.626 163.32 328.804 168.322C333.246 169.695 338.708 169.595 342.124 172.748" fill="#455A64"/>
<path d="M339.485 246.762C339.426 246.847 339.371 246.937 339.323 247.034L339.485 246.762Z" fill="#455A64"/>
<path d="M361.192 226.728C352.966 229.891 345.874 235.996 341.377 243.576L339.484 246.763C340.291 245.596 342.077 245.504 343.551 245.327C346.287 244.999 348.906 243.754 350.888 241.839C352.137 240.632 353.149 239.162 354.579 238.176C355.859 237.293 357.386 236.859 358.806 236.224C362.018 234.787 364.673 232.32 367.84 230.785C371.085 229.212 374.719 228.686 378.216 227.803C381.713 226.92 385.284 225.551 387.594 222.782C378.789 223.176 369.418 223.565 361.192 226.728Z" fill="#455A64"/>
<path d="M373.865 182.014C370.85 183.411 368.762 186.317 365.797 187.816C363.123 189.168 360.009 189.248 357.097 189.955C350.119 191.65 341.48 204.592 336.783 211.065C338.672 210.971 342.426 209.39 345.903 209.441C349.38 209.492 353.945 208.509 357.403 208.148C368.74 206.965 374.185 201.45 382.768 194.145C387.932 189.75 394.141 187.983 397.411 182.042C390.101 185.271 381.117 178.654 373.865 182.014Z" fill="#455A64"/>
<path d="M342.191 178.848C346.162 167.265 356.586 158.373 367.593 153.009C378.6 147.645 391.752 146.857 403.322 150.867C396.735 159.531 390.046 160.619 379.455 163.126C377.626 163.559 373.066 162.202 369.757 164.578C368.426 165.534 368.123 169.362 360.445 170.783C352.901 172.179 346.468 173.713 342.191 178.848Z" fill="#455A64"/>
<path d="M350.565 131.487C350.574 131.487 350.581 131.614 350.585 131.863C350.587 132.138 350.589 132.504 350.592 132.968C350.59 133.464 350.588 134.064 350.585 134.766C350.548 135.481 350.506 136.299 350.459 137.217C350.222 140.899 349.597 146.229 348.092 152.662C346.647 159.109 344.333 166.628 341.76 174.956C339.175 183.278 336.593 192.512 334.707 202.388C330.8 222.136 330.091 240.441 330.465 253.597C330.611 260.187 331.088 265.503 331.374 269.177C331.555 270.988 331.697 272.405 331.797 273.401C331.838 273.864 331.87 274.228 331.894 274.501C331.913 274.749 331.918 274.877 331.909 274.878C331.909 274.878 330.554 266.808 330.097 253.607C329.628 240.433 330.28 222.081 334.196 202.287C336.085 192.39 338.69 183.13 341.302 174.813C343.901 166.49 346.247 158.997 347.734 152.578C349.281 146.173 349.959 140.871 350.257 137.202C350.322 136.288 350.38 135.472 350.431 134.76C350.453 134.059 350.472 133.461 350.487 132.966C350.506 132.502 350.521 132.137 350.532 131.862C350.545 131.614 350.556 131.487 350.565 131.487Z" fill="#263238"/>
<path d="M391.808 152.321C391.808 152.339 391.582 152.364 391.152 152.395C390.722 152.433 390.086 152.446 389.271 152.522C387.639 152.638 385.282 152.878 382.401 153.366C379.525 153.867 376.114 154.606 372.456 155.842C368.8 157.061 364.868 158.733 361.112 161.112C353.605 165.939 347.9 171.803 344.277 176.368C342.461 178.658 341.111 180.606 340.217 181.975C339.755 182.65 339.429 183.197 339.187 183.554C338.95 183.914 338.817 184.099 338.802 184.09C338.786 184.081 338.888 183.878 339.097 183.5C339.311 183.125 339.609 182.561 340.046 181.867C340.89 180.46 342.199 178.472 343.987 176.141C347.557 171.493 353.259 165.543 360.833 160.673C364.638 158.265 368.613 156.591 372.306 155.388C376.001 154.168 379.442 153.461 382.341 153.004C385.245 152.56 387.619 152.375 389.259 152.321C390.079 152.276 390.717 152.296 391.149 152.292C391.581 152.293 391.808 152.303 391.808 152.321Z" fill="#263238"/>
<path d="M306.496 134.086C306.501 134.069 306.689 134.108 307.038 134.209C307.388 134.308 307.897 134.473 308.548 134.705C309.841 135.181 311.719 135.897 313.855 137.167C314.909 137.814 316.058 138.592 316.999 139.764C317.896 140.938 318.645 142.302 319.391 143.76C320.121 145.225 320.812 146.797 321.433 148.466C322.099 150.141 322.4 151.961 323.256 153.595C324.961 156.919 328.025 158.974 330.609 160.904C333.248 162.815 335.501 164.734 337.233 166.499C338.938 168.291 340.2 169.845 340.998 170.97C341.364 171.497 341.664 171.928 341.904 172.274C342.106 172.575 342.205 172.738 342.19 172.748C342.175 172.758 342.048 172.615 341.818 172.335C341.558 172.005 341.233 171.595 340.836 171.093C339.992 170.01 338.694 168.502 336.972 166.759C335.22 165.042 332.974 163.178 330.325 161.291C329.011 160.336 327.609 159.342 326.266 158.156C324.924 156.976 323.675 155.542 322.792 153.834C321.898 152.117 321.595 150.262 320.953 148.644C320.346 146.992 319.669 145.428 318.96 143.974C318.238 142.532 317.502 141.164 316.654 140.027C315.792 138.921 314.682 138.134 313.66 137.482C311.585 136.193 309.737 135.427 308.474 134.896C307.88 134.659 307.394 134.466 307.003 134.31C306.667 134.175 306.491 134.103 306.496 134.086Z" fill="#263238"/>
<path d="M381.897 187.687C381.907 187.702 381.753 187.829 381.451 188.058C381.099 188.316 380.656 188.64 380.113 189.037C378.941 189.873 377.239 191.076 375.061 192.457C372.882 193.831 370.21 195.379 367.045 196.686C363.884 197.999 360.269 199.019 356.559 200.261C349.074 202.648 343.138 206.712 339.019 209.744C336.951 211.268 335.312 212.552 334.169 213.425C333.633 213.831 333.195 214.162 332.847 214.425C332.541 214.649 332.376 214.76 332.364 214.747C332.353 214.733 332.497 214.595 332.781 214.344C333.113 214.061 333.53 213.705 334.042 213.268C335.147 212.345 336.752 211.017 338.798 209.45C342.864 206.338 348.837 202.178 356.393 199.768C360.125 198.519 363.727 197.518 366.865 196.242C370.003 194.974 372.674 193.472 374.868 192.144C377.061 190.809 378.793 189.654 379.999 188.87C380.564 188.505 381.025 188.208 381.392 187.972C381.714 187.77 381.887 187.672 381.897 187.687Z" fill="#263238"/>
<path d="M330.565 207.965C325.312 202.351 326.644 192.526 321.011 187.293C317.505 184.037 312.167 183.467 308.511 180.38C306.124 178.365 304.664 175.448 302.391 173.306C298.108 169.27 291.749 168.606 285.882 168.151C286.821 179.463 294.268 190.003 304.616 194.667C307.103 195.788 309.823 196.649 311.721 198.608C313.043 199.973 313.844 201.756 315.051 203.223C316.909 205.479 319.649 206.869 322.477 207.605C325.305 208.341 328.25 208.477 331.169 208.609" fill="#455A64"/>
<path d="M296.56 175.264C296.614 175.239 296.887 175.902 297.565 176.988C298.23 178.079 299.344 179.575 301.004 181.151C302.647 182.745 304.844 184.38 307.35 186.098C309.858 187.811 312.656 189.685 315.375 191.933C320.835 196.409 325.153 201.138 328.165 204.621C329.668 206.37 330.842 207.819 331.643 208.829C332.006 209.301 332.305 209.689 332.548 210.005C332.75 210.278 332.85 210.426 332.836 210.438C332.822 210.449 332.695 210.323 332.467 210.072C332.204 209.773 331.88 209.405 331.487 208.959C330.586 207.934 329.369 206.55 327.889 204.865C324.812 201.452 320.47 196.783 315.046 192.338C312.345 190.104 309.581 188.236 307.077 186.494C304.579 184.75 302.381 183.067 300.748 181.417C299.098 179.785 298.01 178.229 297.391 177.093C297.06 176.535 296.872 176.067 296.738 175.754C296.605 175.439 296.543 175.271 296.56 175.264Z" fill="#263238"/>
<path d="M324.491 237.064C324.333 232.901 323.016 228.52 319.554 226.28C318.067 225.318 316.328 224.736 315.008 223.556C313.721 222.406 312.957 220.801 311.991 219.371C309.199 215.235 304.742 212.584 300.433 210.067C298.732 209.074 297.032 208.081 295.331 207.088C294.813 206.786 294.23 206.472 293.645 206.603C293.08 206.729 292.675 207.257 292.525 207.816C292.376 208.375 292.436 208.966 292.504 209.54C292.915 212.998 293.585 216.425 294.504 219.783C295.299 222.688 296.349 225.652 298.483 227.777C300.864 230.147 304.247 231.145 307.143 232.849C309.599 234.295 311.764 236.288 314.445 237.257C317.558 238.382 321.212 237.516 324.491 237.064Z" fill="#455A64"/>
<path d="M299.18 215.792C299.209 215.77 299.574 216.204 300.213 217.004C300.908 217.876 301.817 219.016 302.912 220.391C305.223 223.194 308.471 227.152 313.036 230.309C315.35 231.817 317.766 232.957 319.91 234.073C322.066 235.174 323.992 236.212 325.551 237.184C327.11 238.157 328.313 239.045 329.063 239.753C329.458 240.083 329.714 240.396 329.901 240.59C330.083 240.791 330.172 240.901 330.158 240.913C330.122 240.948 329.724 240.543 328.931 239.907C328.15 239.255 326.929 238.423 325.36 237.499C323.789 236.575 321.858 235.576 319.692 234.501C317.536 233.407 315.115 232.285 312.745 230.741C308.088 227.517 304.87 223.489 302.622 220.618C301.505 219.164 300.638 217.962 300.049 217.124C299.462 216.288 299.152 215.813 299.18 215.792Z" fill="#263238"/>
<path d="M360.082 230.444C360.098 230.476 359.592 230.789 358.665 231.327C358.199 231.592 357.631 231.92 356.989 232.33C356.345 232.736 355.595 233.17 354.808 233.717C353.202 234.76 351.355 236.098 349.374 237.671C347.412 239.267 345.327 241.111 343.274 243.185C341.235 245.275 339.426 247.391 337.864 249.381C336.325 251.388 335.019 253.259 334.004 254.882C333.472 255.679 333.05 256.436 332.655 257.087C332.256 257.736 331.937 258.309 331.681 258.779C331.159 259.716 330.854 260.227 330.822 260.211C330.79 260.195 331.033 259.653 331.501 258.685C331.731 258.198 332.024 257.609 332.401 256.944C332.773 256.277 333.175 255.503 333.69 254.689C334.671 253.032 335.953 251.127 337.483 249.089C339.035 247.069 340.847 244.926 342.902 242.82C344.971 240.73 347.082 238.882 349.075 237.295C351.086 235.731 352.968 234.416 354.608 233.406C355.412 232.877 356.179 232.462 356.84 232.078C357.499 231.69 358.083 231.386 358.566 231.148C359.528 230.665 360.066 230.412 360.082 230.444Z" fill="#263238"/>
<path d="M343.652 279.662C342.164 275.966 340.668 272.254 338.651 268.817C336.712 265.513 333.891 262.243 330.087 261.788C327.258 261.449 324.435 262.796 322.35 264.738C320.265 266.68 318.791 269.174 317.347 271.631C314.926 275.75 312.505 279.869 310.084 283.988L314.124 289.421C321.293 292.2 329.323 292.709 336.785 290.856C340.386 289.962 344.417 287.816 344.696 284.115C344.813 282.58 344.227 281.089 343.652 279.662Z" fill="#A87058"/>
<path d="M333.525 277.075C333.525 277.075 326.887 274.722 324.203 274.133C321.519 273.544 309.655 273.403 307.96 273.544C306.265 273.685 288.398 286.158 288.398 286.158L294.972 301.328L298.638 299.957C298.638 299.957 313.61 303.488 320.107 304.194C326.604 304.9 334.09 305.183 337.621 304.194C341.152 303.205 347.932 298.968 347.932 298.968C347.932 298.968 348.215 296.991 344.401 297.132C340.587 297.273 336.915 298.403 335.22 298.403C333.525 298.403 327.31 297.838 327.31 297.838L341.011 296.567L352.028 289.164L350.898 286.68C350.898 286.68 353.44 285.126 353.158 283.855C352.875 282.584 351.039 281.171 348.638 281.454C346.237 281.737 338.61 283.149 338.61 283.149C338.61 283.149 327.593 283.714 322.367 282.866C317.141 282.018 315.163 280.747 315.163 280.747L322.79 280.606C322.79 280.606 328.581 282.301 331.971 280.889C335.361 279.476 333.525 277.075 333.525 277.075Z" fill="#FFBF9D"/>
<path d="M323.747 291.539C323.747 291.503 324.14 291.463 324.849 291.422C325.67 291.372 326.671 291.31 327.848 291.238C330.378 291.067 333.865 290.731 337.68 290.099C341.494 289.461 344.903 288.65 347.352 287.992C348.489 287.679 349.456 287.413 350.249 287.194C350.933 287.003 351.317 286.913 351.329 286.947C351.341 286.981 350.978 287.136 350.312 287.386C349.647 287.64 348.671 287.97 347.454 288.345C345.021 289.096 341.604 289.971 337.766 290.612C333.929 291.248 330.413 291.528 327.868 291.605C326.595 291.645 325.565 291.649 324.853 291.624C324.141 291.603 323.748 291.574 323.747 291.539Z" fill="#FF9A6C"/>
<path d="M156.923 245.198C156.923 245.198 184.869 338.314 200.545 340.337C216.221 342.36 294.971 301.328 294.971 301.328L288.397 286.158L215.58 305.373C215.58 305.373 199.904 247.726 197.376 238.119C194.848 228.511 182.206 204.745 173.104 208.284C164.002 211.823 153.383 226.488 156.923 245.198Z" fill="#FFBF9D"/>
<path d="M157.554 274.133L207.613 260.074C207.613 260.074 193.584 193.525 164.569 209.726C144.312 221.037 157.554 274.133 157.554 274.133Z" fill="#455A64"/>
<path d="M157.193 274.752L157.068 274.253C157.035 274.119 153.737 260.764 152.966 246.197C151.922 226.499 155.743 214.081 164.325 209.29C169.77 206.249 175.092 205.872 180.14 208.168C187.985 211.736 195.077 221.552 201.221 237.343C205.776 249.05 208.079 259.863 208.102 259.97L208.199 260.428L157.193 274.752ZM173.495 207.694C170.662 207.694 167.76 208.518 164.812 210.163C146.158 220.579 156.65 268.086 157.92 273.51L207.023 259.72C206.536 257.549 204.283 247.967 200.284 237.693C196.128 227.015 189.188 213.382 179.725 209.079C177.695 208.155 175.614 207.694 173.495 207.694Z" fill="#263238"/>
</svg>
