<svg width="41" height="27" viewBox="0 0 41 27" fill="none" xmlns="http://www.w3.org/2000/svg">
<path d="M36.7878 6.72886C36.8149 7.02487 36.8149 7.3192 36.8149 7.61352C36.8149 16.6208 28.3591 27 12.9059 27C8.14492 27 3.72196 25.8819 0 23.94C0.675962 24.0026 1.32689 24.0246 2.02997 24.0246C5.81242 24.032 9.48776 23.0066 12.4636 21.1135C10.7099 21.0878 9.00985 20.6187 7.60089 19.7717C6.19194 18.9247 5.14437 17.7421 4.60447 16.3891C5.12396 16.4517 5.64553 16.494 6.19214 16.494C6.9453 16.494 7.70262 16.4094 8.40571 16.2622C6.5025 15.9507 4.79114 15.1143 3.56261 13.8953C2.33408 12.6763 1.66423 11.1499 1.66695 9.57568V9.4911C2.7873 9.99687 4.08706 10.3132 5.46402 10.3555C4.31048 9.73398 3.36462 8.89065 2.71081 7.90072C2.05701 6.91079 1.71559 5.80504 1.71703 4.68212C1.71703 3.41687 2.1322 2.25648 2.86032 1.24496C4.97195 3.35093 7.60562 5.07381 10.5908 6.30202C13.5759 7.53022 16.846 8.23636 20.1891 8.3747C20.0598 7.86725 19.9805 7.34119 19.9805 6.81343C19.98 5.91855 20.197 5.03236 20.6191 4.20552C21.0412 3.37867 21.6602 2.62739 22.4407 1.99462C23.2211 1.36184 24.1477 0.859986 25.1676 0.517737C26.1874 0.175488 27.2804 -0.000443819 28.3841 8.40791e-07C30.8042 8.40791e-07 32.9886 0.822078 34.5241 2.15161C36.4055 1.85664 38.2097 1.2998 39.8567 0.505764C39.2296 2.08026 37.9159 3.41535 36.1619 4.26093C37.8305 4.10663 39.4612 3.75086 41 3.20543C39.8507 4.56388 38.4266 5.75513 36.7878 6.72886Z" fill="#40A798"/>
</svg>
